<svg xmlns="http://www.w3.org/2000/svg" xmlns:xlink="http://www.w3.org/1999/xlink" viewBox="0 0 420.56 371.09"><defs><style>.a{fill:#fff;}.b{fill:#f39200;}.ad,.ae,.c,.y,.z{fill:#1d1d1b;}.d{fill:#dadada;}.e{fill:#c2c5e5;}.f{fill:#b2b2b2;}.aa,.ab,.ac,.g{fill:none;}.g{stroke:#467572;stroke-miterlimit:10;stroke-width:2px;}.h{fill:#3d3d3b;}.i,.k{fill:#d9d9d9;}.j{fill:url(#a);}.k{opacity:0.1;}.l{fill:url(#b);}.m{fill:url(#c);}.n{fill:url(#d);}.o{fill:#9d9d9c;}.p{fill:#706f6f;}.q{fill:#ededed;}.r{fill:#878787;}.s{fill:#3c3c3b;}.t{fill:#e30613;}.u{fill:url(#e);}.v{fill:#cbbba0;}.w{fill:#936037;}.x{opacity:0;}.ad,.y{font-size:8px;}.ad,.ae,.y,.z{font-family:Arial;}.ae,.z{font-size:10px;}.ab{stroke:#575756;stroke-linecap:round;}.ac{stroke:#e30613;stroke-linejoin:round;stroke-width:0.7px;}.ad,.ae{font-weight:700;}</style><linearGradient id="a" x1="190.48" y1="170.64" x2="218.12" y2="170.64" gradientUnits="userSpaceOnUse"><stop offset="0" stop-color="#b3b2b2"/><stop offset="1" stop-color="#585857"/></linearGradient><linearGradient id="b" x1="283.21" y1="170.64" x2="310.85" y2="170.64" xlink:href="#a"/><linearGradient id="c" x1="283.21" y1="74.8" x2="310.85" y2="74.8" xlink:href="#a"/><linearGradient id="d" x1="190.48" y1="74.8" x2="218.12" y2="74.8" xlink:href="#a"/><linearGradient id="e" x1="297.82" y1="254.86" x2="307.38" y2="254.86" xlink:href="#a"/></defs><title>atrium</title><rect class="a" y="23.09" width="420" height="348"/><polygon class="a" points="40.65 35.67 0 41.09 0 371.09 40.65 301.8 40.65 35.67"/><polygon class="a" points="379.36 35.67 420 41.09 420 371.09 379.36 301.8 379.36 35.67"/><rect class="b" x="1.06" y="236.05" width="24.51" height="65.75"/><circle class="c" cx="19.89" cy="268.92" r="1.7"/><rect class="b" x="318.18" y="236.05" width="41.56" height="65.75"/><circle class="c" cx="354.06" cy="268.92" r="1.7"/><rect class="b" x="141.18" y="236.05" width="41.56" height="65.75"/><circle class="c" cx="177.06" cy="268.92" r="1.7"/><rect class="d" x="0.1" y="301.9" width="419.8" height="69.09"/><path class="a" d="M419.8,306.22v68.89H0.2V306.22H419.8m0.2-.2H0v69.29H420V306h0Z" transform="translate(0 -4.22)"/><polygon class="e" points="36.79 259.03 40.55 253.73 40.55 301.8 36.79 308.18 36.79 259.03"/><path class="a" d="M40.45,258.26V306L36.89,312V263.31l3.56-5m0.2-.63-4,5.62v49.52l4-6.75V257.63h0Z" transform="translate(0 -4.22)"/><polygon class="e" points="0.1 259.58 5.68 253.06 5.68 361.23 0.1 370.72 0.1 259.58"/><path class="a" d="M5.58,257.55V365.39L0.2,374.57V263.87l5.38-6.32m0.2-.54L0,263.8V375.31l5.78-9.86V257h0Z" transform="translate(0 -4.22)"/><rect class="e" x="33.86" y="258.76" width="2.72" height="49.69"/><path class="a" d="M36.49,263.07v49.49H34V263.07h2.52m0.2-.2H33.76v49.89h2.92V262.87h0Z" transform="translate(0 -4.22)"/><polygon class="e" points="379.44 301.75 379.45 253.73 383.23 259.09 383.21 308.18 379.44 301.75"/><path class="a" d="M379.55,258.26l3.56,5V312L379.55,306v-47.7m-0.2-.63V306l4,6.75V263.25l-4-5.62h0Z" transform="translate(0 -4.22)"/><polygon class="e" points="414.3 361.18 414.32 253.06 419.92 259.64 419.9 370.72 414.3 361.18"/><path class="a" d="M414.42,257.55l5.38,6.32v110.7l-5.38-9.18V257.55m-0.2-.54V365.45l5.78,9.86V263.8L414.22,257h0Z" transform="translate(0 -4.22)"/><rect class="e" x="383.41" y="258.76" width="2.72" height="49.69"/><path class="a" d="M386,263.07v49.49h-2.52V263.07H386m0.2-.2h-2.92v49.89h2.92V262.87h0Z" transform="translate(0 -4.22)"/><rect class="f" x="0.66" y="263.19" width="419.8" height="8.16"/><path class="a" d="M420.35,267.51v8H0.75v-8h419.6m0.2-.2H0.56v8.36h420v-8.36h0Z" transform="translate(0 -4.22)"/><rect class="d" x="0.1" y="214.8" width="419.8" height="48.18"/><path class="a" d="M419.8,219.12v48H0.2v-48H419.8m0.2-.2H0V267.3H420V218.92h0Z" transform="translate(0 -4.22)"/><rect class="b" x="2.89" y="143.84" width="22.74" height="70.87"/><circle class="c" cx="19.96" cy="181.83" r="1.7"/><rect class="b" x="318.25" y="143.84" width="41.56" height="70.87"/><circle class="c" cx="354.13" cy="181.83" r="1.7"/><rect class="b" x="141.25" y="143.84" width="41.56" height="70.87"/><circle class="c" cx="177.13" cy="181.83" r="1.7"/><polygon class="e" points="379.43 214.64 379.45 118.11 383.26 120.46 383.21 219.14 379.43 214.64"/><path class="a" d="M379.55,122.5l3.56,2.2v98.38l-3.56-4.24V122.5m-0.2-.36v96.77l4,4.71v-99l-4-2.45h0Z" transform="translate(0 -4.22)"/><polygon class="e" points="414.29 256.14 414.32 139.69 419.95 143.17 419.9 262.81 414.29 256.14"/><path class="a" d="M414.42,144.09l5.38,3.33V266.76l-5.38-6.41V144.09m-0.2-.36v116.7l5.78,6.88v-120l-5.78-3.58h0Z" transform="translate(0 -4.22)"/><polygon class="e" points="380 133.53 380.04 118.47 419.95 143.17 419.9 161.82 380 133.53"/><path class="a" d="M380.15,122.87l39.65,24.55v18.43l-39.65-28.12V122.87m-0.2-.36v15.32L420,166.23V147.31l-40.05-24.8h0Z" transform="translate(0 -4.22)"/><rect class="e" x="383.41" y="143.19" width="2.72" height="76.13"/><path class="a" d="M386,147.51v75.92h-2.52V147.51H386m0.2-.2h-2.92v76.32h2.92V147.31h0Z" transform="translate(0 -4.22)"/><polygon class="e" points="36.79 120.38 40.55 118.11 40.55 214.7 36.79 219.14 36.79 120.38"/><path class="a" d="M40.45,122.5v96.34l-3.56,4.24V124.71l3.56-2.2m0.2-.36-4,2.45v99l4-4.71V122.15h0Z" transform="translate(0 -4.22)"/><polygon class="e" points="0.1 143.09 5.68 139.69 5.68 256.21 0.1 262.82 0.1 143.09"/><path class="a" d="M5.58,144.09V260.35L0.2,266.76V147.42l5.38-3.33m0.2-.36L0,147.31v120l5.78-6.88V143.73h0Z" transform="translate(0 -4.22)"/><polygon class="e" points="0.1 143.09 39.95 118.47 39.95 133.61 0.1 161.82 0.1 143.09"/><path class="a" d="M39.86,122.87v14.85L0.2,165.84V147.42l39.65-24.55m0.2-.36L0,147.31v18.92l40.05-28.41V122.51h0Z" transform="translate(0 -4.22)"/><rect class="e" x="33.86" y="143.19" width="2.72" height="76.13"/><path class="a" d="M36.49,147.51v75.92H34V147.51h2.52m0.2-.2H33.76v76.32h2.92V147.31h0Z" transform="translate(0 -4.22)"/><path class="g" d="M0,267.31" transform="translate(0 -4.22)"/><line class="g" x1="420" y1="221.57" y2="221.57"/><line class="g" x1="406.45" y1="263.09" x2="406.45" y2="221.57"/><line class="g" x1="392.9" y1="263.09" x2="392.9" y2="221.57"/><line class="g" x1="379.35" y1="263.09" x2="379.35" y2="221.57"/><line class="g" x1="365.81" y1="263.09" x2="365.81" y2="221.57"/><line class="g" x1="352.26" y1="263.09" x2="352.26" y2="221.57"/><line class="g" x1="338.71" y1="263.09" x2="338.71" y2="221.57"/><line class="g" x1="325.16" y1="263.09" x2="325.16" y2="221.57"/><line class="g" x1="311.61" y1="263.09" x2="311.61" y2="221.57"/><line class="g" x1="298.06" y1="263.09" x2="298.06" y2="221.57"/><line class="g" x1="284.52" y1="263.09" x2="284.52" y2="221.57"/><line class="g" x1="270.97" y1="263.09" x2="270.97" y2="221.57"/><line class="g" x1="257.42" y1="263.09" x2="257.42" y2="221.57"/><line class="g" x1="243.87" y1="263.09" x2="243.87" y2="221.57"/><line class="g" x1="230.32" y1="263.09" x2="230.32" y2="221.57"/><line class="g" x1="216.77" y1="263.09" x2="216.77" y2="221.57"/><line class="g" x1="203.23" y1="263.09" x2="203.23" y2="221.57"/><line class="g" x1="189.68" y1="263.09" x2="189.68" y2="221.57"/><line class="g" x1="176.13" y1="263.09" x2="176.13" y2="221.57"/><line class="g" x1="162.58" y1="263.09" x2="162.58" y2="221.57"/><line class="g" x1="149.03" y1="263.09" x2="149.03" y2="221.57"/><line class="g" x1="135.48" y1="263.09" x2="135.48" y2="221.57"/><line class="g" x1="121.94" y1="263.09" x2="121.94" y2="221.57"/><line class="g" x1="108.39" y1="263.09" x2="108.39" y2="221.57"/><line class="g" x1="94.84" y1="263.09" x2="94.84" y2="221.57"/><line class="g" x1="81.29" y1="263.09" x2="81.29" y2="221.57"/><line class="g" x1="67.74" y1="263.09" x2="67.74" y2="221.57"/><line class="g" x1="54.19" y1="263.09" x2="54.19" y2="221.57"/><line class="g" x1="40.65" y1="263.09" x2="40.65" y2="221.57"/><line class="g" x1="27.1" y1="263.09" x2="27.1" y2="221.57"/><line class="g" x1="13.55" y1="263.09" x2="13.55" y2="221.57"/><rect class="f" x="0.1" y="143.19" width="419.8" height="8.16"/><path class="a" d="M419.8,147.51v8H0.2v-8H419.8m0.2-.2H0v8.36H420v-8.36h0Z" transform="translate(0 -4.22)"/><rect class="d" x="0.1" y="118.03" width="419.8" height="24.96"/><path class="a" d="M419.8,122.35v24.76H0.2V122.35H419.8m0.2-.2H0v25.16H420V122.15h0Z" transform="translate(0 -4.22)"/><rect class="b" x="2.89" y="47.06" width="22.74" height="70.87"/><circle class="c" cx="19.96" cy="85.05" r="1.7"/><rect class="b" x="318.25" y="47.06" width="41.56" height="70.87"/><circle class="c" cx="354.13" cy="85.05" r="1.7"/><rect class="b" x="141.25" y="47.06" width="41.56" height="70.87"/><circle class="c" cx="177.13" cy="85.05" r="1.7"/><polygon class="e" points="379.41 117.84 379.45 21.26 383.21 21.44 383.21 120.2 379.41 117.84"/><path class="a" d="M379.55,25.58l3.56,0.17v98.49l-3.56-2.2V25.58m-0.2-.21v96.77l4,2.45v-99l-4-.19h0Z" transform="translate(0 -4.22)"/><polygon class="e" points="414.27 139.43 414.32 22.92 419.9 23.18 419.9 142.91 414.27 139.43"/><path class="a" d="M414.42,27.24l5.38,0.26V146.95l-5.38-3.33V27.24m-0.2-.21v116.7l5.78,3.58v-120L414.22,27h0Z" transform="translate(0 -4.22)"/><rect class="e" x="383.41" y="36.44" width="2.72" height="83.84"/><path class="a" d="M386,40.76V124.4h-2.52V40.76H386m0.2-.2h-2.92v84h2.92v-84h0Z" transform="translate(0 -4.22)"/><polygon class="e" points="379.45 36.33 379.45 21.26 419.9 23.18 419.9 41.9 379.45 36.33"/><path class="a" d="M379.55,25.58L419.8,27.5V46l-40.25-5.54V25.58m-0.2-.21V40.63L420,46.23V27.31l-40.65-1.94h0Z" transform="translate(0 -4.22)"/><polygon class="e" points="36.79 21.44 40.55 21.26 40.55 117.93 36.79 120.2 36.79 21.44"/><path class="a" d="M40.45,25.58V122l-3.56,2.2V25.75l3.56-.17m0.2-.21-4,.19v99l4-2.45V25.37h0Z" transform="translate(0 -4.22)"/><polygon class="e" points="0.1 23.18 5.68 22.92 5.68 139.51 0.1 142.91 0.1 23.18"/><path class="a" d="M5.58,27.24V143.62L0.2,146.95V27.5l5.38-.26M5.78,27L0,27.31v120l5.78-3.58V27h0Z" transform="translate(0 -4.22)"/><rect class="e" x="33.86" y="36.44" width="2.72" height="83.84"/><path class="a" d="M36.49,40.76V124.4H34V40.76h2.52m0.2-.2H33.76v84h2.92v-84h0Z" transform="translate(0 -4.22)"/><polygon class="e" points="0.1 23.18 40.55 21.26 40.55 36.33 0.1 41.9 0.1 23.18"/><path class="a" d="M40.45,25.58V40.46L0.2,46V27.5l40.25-1.92m0.2-.21L0,27.31V46.23l40.65-5.6V25.37h0Z" transform="translate(0 -4.22)"/><path class="g" d="M0,147.31" transform="translate(0 -4.22)"/><line class="g" x1="420" y1="101.57" y2="101.57"/><line class="g" x1="406.45" y1="143.09" x2="406.45" y2="101.57"/><line class="g" x1="392.9" y1="143.09" x2="392.9" y2="101.57"/><line class="g" x1="379.35" y1="143.09" x2="379.35" y2="101.57"/><line class="g" x1="365.81" y1="143.09" x2="365.81" y2="101.57"/><line class="g" x1="352.26" y1="143.09" x2="352.26" y2="101.57"/><line class="g" x1="338.71" y1="143.09" x2="338.71" y2="101.57"/><line class="g" x1="325.16" y1="143.09" x2="325.16" y2="101.57"/><line class="g" x1="311.61" y1="143.09" x2="311.61" y2="101.57"/><line class="g" x1="298.06" y1="143.09" x2="298.06" y2="101.57"/><line class="g" x1="284.52" y1="143.09" x2="284.52" y2="101.57"/><line class="g" x1="270.97" y1="143.09" x2="270.97" y2="101.57"/><line class="g" x1="257.42" y1="143.09" x2="257.42" y2="101.57"/><line class="g" x1="243.87" y1="143.09" x2="243.87" y2="101.57"/><line class="g" x1="230.32" y1="143.09" x2="230.32" y2="101.57"/><line class="g" x1="216.77" y1="143.09" x2="216.77" y2="101.57"/><line class="g" x1="203.23" y1="143.09" x2="203.23" y2="101.57"/><line class="g" x1="189.68" y1="143.09" x2="189.68" y2="101.57"/><line class="g" x1="176.13" y1="143.09" x2="176.13" y2="101.57"/><line class="g" x1="162.58" y1="143.09" x2="162.58" y2="101.57"/><line class="g" x1="149.03" y1="143.09" x2="149.03" y2="101.57"/><line class="g" x1="135.48" y1="143.09" x2="135.48" y2="101.57"/><line class="g" x1="121.94" y1="143.09" x2="121.94" y2="101.57"/><line class="g" x1="108.39" y1="143.09" x2="108.39" y2="101.57"/><line class="g" x1="94.84" y1="143.09" x2="94.84" y2="101.57"/><line class="g" x1="81.29" y1="143.09" x2="81.29" y2="101.57"/><line class="g" x1="67.74" y1="143.09" x2="67.74" y2="101.57"/><line class="g" x1="54.19" y1="143.09" x2="54.19" y2="101.57"/><line class="g" x1="40.65" y1="143.09" x2="40.65" y2="101.57"/><line class="g" x1="27.1" y1="143.09" x2="27.1" y2="101.57"/><line class="g" x1="13.55" y1="143.09" x2="13.55" y2="101.57"/><path class="h" d="M218.78,183.85a0.55,0.55,0,0,1-.51.59H190.33a0.55,0.55,0,0,1-.51-0.59V166.92a0.55,0.55,0,0,1,.51-0.59h27.94a0.55,0.55,0,0,1,.51.59v16.93Z" transform="translate(0 -4.22)"/><rect class="i" x="203.27" y="178.99" width="2.07" height="0.59"/><rect class="j" x="190.48" y="162.88" width="27.64" height="15.52"/><path class="k" d="M217.49,181.31A67.93,67.93,0,0,1,201,175.78a49.67,49.67,0,0,1-6.53-3.82,18.5,18.5,0,0,1-3.47-3.07h-0.69a0.51,0.51,0,0,0-.51.51v14.55a0.51,0.51,0,0,0,.51.51h27.94a0.51,0.51,0,0,0,.51-0.51v-2.37Z" transform="translate(0 -4.22)"/><path class="h" d="M311.51,183.85a0.55,0.55,0,0,1-.51.59H283.06a0.55,0.55,0,0,1-.51-0.59V166.92a0.55,0.55,0,0,1,.51-0.59H311a0.55,0.55,0,0,1,.51.59v16.93Z" transform="translate(0 -4.22)"/><rect class="i" x="295.99" y="178.99" width="2.07" height="0.59"/><rect class="l" x="283.21" y="162.88" width="27.64" height="15.52"/><path class="k" d="M310.21,181.31a67.93,67.93,0,0,1-16.47-5.53,49.67,49.67,0,0,1-6.53-3.82,18.5,18.5,0,0,1-3.47-3.07h-0.69a0.51,0.51,0,0,0-.51.51v14.55a0.51,0.51,0,0,0,.51.51H311a0.51,0.51,0,0,0,.51-0.51v-2.37Z" transform="translate(0 -4.22)"/><path class="h" d="M311.51,88a0.55,0.55,0,0,1-.51.59H283.06a0.55,0.55,0,0,1-.51-0.59V71.08a0.55,0.55,0,0,1,.51-0.59H311a0.55,0.55,0,0,1,.51.59V88Z" transform="translate(0 -4.22)"/><rect class="i" x="295.99" y="83.14" width="2.07" height="0.59"/><rect class="m" x="283.21" y="67.03" width="27.64" height="15.52"/><path class="k" d="M310.21,85.46a67.93,67.93,0,0,1-16.47-5.53,49.67,49.67,0,0,1-6.53-3.82A18.5,18.5,0,0,1,283.74,73h-0.69a0.51,0.51,0,0,0-.51.51V88.1a0.51,0.51,0,0,0,.51.51H311a0.51,0.51,0,0,0,.51-0.51V85.73Z" transform="translate(0 -4.22)"/><path class="h" d="M218.78,88a0.55,0.55,0,0,1-.51.59H190.33a0.55,0.55,0,0,1-.51-0.59V71.08a0.55,0.55,0,0,1,.51-0.59h27.94a0.55,0.55,0,0,1,.51.59V88Z" transform="translate(0 -4.22)"/><rect class="i" x="203.27" y="83.14" width="2.07" height="0.59"/><rect class="n" x="190.48" y="67.03" width="27.64" height="15.52"/><path class="k" d="M217.49,85.46A67.93,67.93,0,0,1,201,79.93a49.67,49.67,0,0,1-6.53-3.82A18.5,18.5,0,0,1,191,73h-0.69a0.51,0.51,0,0,0-.51.51V88.1a0.51,0.51,0,0,0,.51.51h27.94a0.51,0.51,0,0,0,.51-0.51V85.73Z" transform="translate(0 -4.22)"/><rect class="o" x="296.55" y="25.7" width="14.3" height="345.39"/><rect class="f" x="309.03" y="27.52" width="94.5" height="343.57"/><rect class="p" x="320.13" y="282.92" width="68.4" height="88.17"/><rect class="q" x="322.9" y="285.68" width="62.76" height="85.4"/><rect class="p" x="323.53" y="286.3" width="61.44" height="84.79"/><rect class="r" x="351.4" y="286.3" width="5.94" height="84.79"/><rect class="s" x="353.84" y="286.3" width="1.06" height="84.79"/><rect class="r" x="390.43" y="329.64" width="7.55" height="13.66"/><polygon class="q" points="397.02 337.47 394.21 341.46 391.4 337.47 397.02 337.47"/><polygon class="t" points="391.4 335.91 394.21 331.92 397.02 335.91 391.4 335.91"/><polygon class="p" points="378.58 25.7 296.55 25.7 309.03 27.52 402.89 27.52 378.58 25.7"/><path class="h" d="M297.62,258.36a4.79,4.79,0,0,0,.16,1.27l9.66,26.68c0.11,0.3.19,0.12,0.19-.4v-27a4.8,4.8,0,0,0-.19-1.42l-9.66-23.82c-0.09-.21-0.16,0-0.16.45v24.22Z" transform="translate(0 -4.22)"/><polygon class="i" points="302 265.23 302.71 267.19 302.71 268.08 302 266.11 302 265.23"/><polygon class="u" points="297.82 252.94 307.38 279.04 307.38 254.36 297.82 230.68 297.82 252.94"/><path class="k" d="M298,255.82c1.81,3.15,3.68,5.6,5.48,6.41a2.87,2.87,0,0,0,2.37.23,2.57,2.57,0,0,0,1.31-1.53l0.26,0.66a4.3,4.3,0,0,1,.19,1.29v23.2c0,0.44-.09.57-0.19,0.27l-9.66-26.68a4.21,4.21,0,0,1-.16-1.16v-3.4Z" transform="translate(0 -4.22)"/><polygon class="d" points="295.49 322.12 284.66 322.12 296.5 371.09 309.04 371.09 295.49 322.12"/><rect class="v" x="270.28" y="21.15" width="19.84" height="349.94"/><rect class="v" x="129.55" y="21.15" width="19.84" height="349.94"/><polygon class="w" points="379.36 21.15 40.65 21.15 0 23.09 420 23.09 379.36 21.15"/><g class="x"><text class="y" transform="translate(270.64 94.73)">TSW_5</text><text class="y" transform="translate(270.64 60.98)">TSW_6</text><text class="y" transform="translate(270.64 164.1)">TSW_9</text><text class="y" transform="translate(270.64 187.24)">TSW_4</text><text class="y" transform="translate(270.64 208.38)">TSW_3</text><text class="y" transform="translate(270.64 285.98)">TSW_8</text><text class="y" transform="translate(270.64 305.8)">TSW_2</text><text class="y" transform="translate(270.64 325.09)">TSW_1</text><text class="y" transform="translate(270.64 345.09)">TSW_0</text><text class="y" transform="translate(270.64 364.46)">TSW_7</text></g><text class="z" transform="translate(281.99 56.09)">6</text><circle class="aa" cx="278.56" cy="60.66" r="3.51"/><path class="a" d="M277.27,61.61a3.51,3.51,0,1,0,2.58,0" transform="translate(0 -4.22)"/><path class="a" d="M277.27,61.61V53.2a1.17,1.17,0,0,1,1.29-1h0a1.17,1.17,0,0,1,1.29,1v8.41" transform="translate(0 -4.22)"/><path class="ab" d="M277.27,61.61a3.51,3.51,0,1,0,2.58,0" transform="translate(0 -4.22)"/><path class="ab" d="M277.27,61.61V53.2a1.17,1.17,0,0,1,1.29-1h0a1.17,1.17,0,0,1,1.29,1v8.41" transform="translate(0 -4.22)"/><circle class="t" cx="278.56" cy="60.66" r="2.4"/><line class="ac" x1="278.56" y1="52.04" x2="278.56" y2="60.76"/><text class="z" transform="translate(281.99 90.58)">5</text><circle class="aa" cx="278.56" cy="95.15" r="3.51"/><path class="a" d="M277.27,96.1a3.51,3.51,0,1,0,2.58,0" transform="translate(0 -4.22)"/><path class="a" d="M277.27,96.1V87.69a1.17,1.17,0,0,1,1.29-1h0a1.17,1.17,0,0,1,1.29,1V96.1" transform="translate(0 -4.22)"/><path class="ab" d="M277.27,96.1a3.51,3.51,0,1,0,2.58,0" transform="translate(0 -4.22)"/><path class="ab" d="M277.27,96.1V87.69a1.17,1.17,0,0,1,1.29-1h0a1.17,1.17,0,0,1,1.29,1V96.1" transform="translate(0 -4.22)"/><circle class="t" cx="278.56" cy="95.15" r="2.4"/><line class="ac" x1="278.56" y1="86.54" x2="278.56" y2="95.25"/><text class="z" transform="translate(281.99 159.43)">9</text><circle class="aa" cx="278.56" cy="164" r="3.51"/><path class="a" d="M277.27,165a3.51,3.51,0,1,0,2.58,0" transform="translate(0 -4.22)"/><path class="a" d="M277.27,165v-8.41a1.17,1.17,0,0,1,1.29-1h0a1.17,1.17,0,0,1,1.29,1V165" transform="translate(0 -4.22)"/><path class="ab" d="M277.27,165a3.51,3.51,0,1,0,2.58,0" transform="translate(0 -4.22)"/><path class="ab" d="M277.27,165v-8.41a1.17,1.17,0,0,1,1.29-1h0a1.17,1.17,0,0,1,1.29,1V165" transform="translate(0 -4.22)"/><circle class="t" cx="278.56" cy="164" r="2.4"/><line class="ac" x1="278.56" y1="155.39" x2="278.56" y2="164.1"/><text class="z" transform="translate(281.99 182.4)">4</text><circle class="aa" cx="278.56" cy="186.97" r="3.51"/><path class="a" d="M277.27,187.92a3.51,3.51,0,1,0,2.58,0" transform="translate(0 -4.22)"/><path class="a" d="M277.27,187.92v-8.41a1.17,1.17,0,0,1,1.29-1h0a1.17,1.17,0,0,1,1.29,1v8.41" transform="translate(0 -4.22)"/><path class="ab" d="M277.27,187.92a3.51,3.51,0,1,0,2.58,0" transform="translate(0 -4.22)"/><path class="ab" d="M277.27,187.92v-8.41a1.17,1.17,0,0,1,1.29-1h0a1.17,1.17,0,0,1,1.29,1v8.41" transform="translate(0 -4.22)"/><circle class="t" cx="278.56" cy="186.97" r="2.4"/><line class="ac" x1="278.56" y1="178.36" x2="278.56" y2="187.07"/><text class="z" transform="translate(281.99 203.38)">3</text><circle class="aa" cx="278.56" cy="207.95" r="3.51"/><path class="a" d="M277.27,208.9a3.51,3.51,0,1,0,2.58,0" transform="translate(0 -4.22)"/><path class="a" d="M277.27,208.9V200.5a1.17,1.17,0,0,1,1.29-1h0a1.17,1.17,0,0,1,1.29,1v8.41" transform="translate(0 -4.22)"/><path class="ab" d="M277.27,208.9a3.51,3.51,0,1,0,2.58,0" transform="translate(0 -4.22)"/><path class="ab" d="M277.27,208.9V200.5a1.17,1.17,0,0,1,1.29-1h0a1.17,1.17,0,0,1,1.29,1v8.41" transform="translate(0 -4.22)"/><circle class="t" cx="278.56" cy="207.95" r="2.4"/><line class="ac" x1="278.56" y1="199.34" x2="278.56" y2="208.05"/><text class="z" transform="translate(281.99 360.35)">7</text><path class="a" d="M277.27,365.87a3.51,3.51,0,1,0,2.58,0" transform="translate(0 -4.22)"/><path class="a" d="M277.27,365.87v-8.41a1.17,1.17,0,0,1,1.29-1h0a1.17,1.17,0,0,1,1.29,1v8.41" transform="translate(0 -4.22)"/><path class="ab" d="M277.27,365.87a3.51,3.51,0,1,0,2.58,0" transform="translate(0 -4.22)"/><path class="ab" d="M277.27,365.87v-8.41a1.17,1.17,0,0,1,1.29-1h0a1.17,1.17,0,0,1,1.29,1v8.41" transform="translate(0 -4.22)"/><circle class="t" cx="278.56" cy="364.92" r="2.4"/><line class="ac" x1="278.56" y1="356.31" x2="278.56" y2="365.02"/><text class="z" transform="translate(281.99 340.51)">0</text><path class="a" d="M277.27,346a3.51,3.51,0,1,0,2.58,0" transform="translate(0 -4.22)"/><path class="a" d="M277.27,346v-8.41a1.17,1.17,0,0,1,1.29-1h0a1.17,1.17,0,0,1,1.29,1V346" transform="translate(0 -4.22)"/><path class="ab" d="M277.27,346a3.51,3.51,0,1,0,2.58,0" transform="translate(0 -4.22)"/><path class="ab" d="M277.27,346v-8.41a1.17,1.17,0,0,1,1.29-1h0a1.17,1.17,0,0,1,1.29,1V346" transform="translate(0 -4.22)"/><circle class="t" cx="278.56" cy="345.08" r="2.4"/><line class="ac" x1="278.56" y1="336.47" x2="278.56" y2="345.18"/><text class="z" transform="translate(281.99 320.66)">1</text><path class="a" d="M277.27,326.19a3.51,3.51,0,1,0,2.58,0" transform="translate(0 -4.22)"/><path class="a" d="M277.27,326.19v-8.41a1.17,1.17,0,0,1,1.29-1h0a1.17,1.17,0,0,1,1.29,1v8.41" transform="translate(0 -4.22)"/><path class="ab" d="M277.27,326.19a3.51,3.51,0,1,0,2.58,0" transform="translate(0 -4.22)"/><path class="ab" d="M277.27,326.19v-8.41a1.17,1.17,0,0,1,1.29-1h0a1.17,1.17,0,0,1,1.29,1v8.41" transform="translate(0 -4.22)"/><circle class="t" cx="278.56" cy="325.24" r="2.4"/><line class="ac" x1="278.56" y1="316.62" x2="278.56" y2="325.33"/><text class="z" transform="translate(281.99 300.82)">2</text><path class="a" d="M277.27,306.34a3.51,3.51,0,1,0,2.58,0" transform="translate(0 -4.22)"/><path class="a" d="M277.27,306.34v-8.41a1.17,1.17,0,0,1,1.29-1h0a1.17,1.17,0,0,1,1.29,1v8.41" transform="translate(0 -4.22)"/><path class="ab" d="M277.27,306.34a3.51,3.51,0,1,0,2.58,0" transform="translate(0 -4.22)"/><path class="ab" d="M277.27,306.34v-8.41a1.17,1.17,0,0,1,1.29-1h0a1.17,1.17,0,0,1,1.29,1v8.41" transform="translate(0 -4.22)"/><circle class="t" cx="278.56" cy="305.39" r="2.4"/><line class="ac" x1="278.56" y1="296.78" x2="278.56" y2="305.49"/><text class="z" transform="translate(281.99 280.98)">8</text><path class="a" d="M277.27,286.5a3.51,3.51,0,1,0,2.58,0" transform="translate(0 -4.22)"/><path class="a" d="M277.27,286.5v-8.41a1.17,1.17,0,0,1,1.29-1h0a1.17,1.17,0,0,1,1.29,1v8.41" transform="translate(0 -4.22)"/><path class="ab" d="M277.27,286.5a3.51,3.51,0,1,0,2.58,0" transform="translate(0 -4.22)"/><path class="ab" d="M277.27,286.5v-8.41a1.17,1.17,0,0,1,1.29-1h0a1.17,1.17,0,0,1,1.29,1v8.41" transform="translate(0 -4.22)"/><circle class="t" cx="278.56" cy="285.55" r="2.4"/><line class="ac" x1="278.56" y1="276.94" x2="278.56" y2="285.65"/><text class="ad" transform="translate(273.94 17.58)">SW</text><g class="x"><text class="y" transform="translate(129.64 94.73)">TSE_5</text><text class="y" transform="translate(129.64 60.98)">TSE_6</text><text class="y" transform="translate(129.64 164.1)">TSE_9</text><text class="y" transform="translate(129.64 187.24)">TSE_4</text><text class="y" transform="translate(129.64 208.38)">TSE_3</text><text class="y" transform="translate(129.64 285.98)">TSE_8</text><text class="y" transform="translate(129.64 305.8)">TSE_2</text><text class="y" transform="translate(129.64 325.09)">TSE_1</text><text class="y" transform="translate(129.64 345.09)">TSE_0</text><text class="y" transform="translate(129.64 364.46)">TSE_7</text></g><text class="z" transform="translate(140.98 56.09)">6</text><circle class="aa" cx="137.55" cy="60.66" r="3.51"/><path class="a" d="M136.26,61.61a3.51,3.51,0,1,0,2.58,0" transform="translate(0 -4.22)"/><path class="a" d="M136.26,61.61V53.2a1.17,1.17,0,0,1,1.29-1h0a1.17,1.17,0,0,1,1.29,1v8.41" transform="translate(0 -4.22)"/><path class="ab" d="M136.26,61.61a3.51,3.51,0,1,0,2.58,0" transform="translate(0 -4.22)"/><path class="ab" d="M136.26,61.61V53.2a1.17,1.17,0,0,1,1.29-1h0a1.17,1.17,0,0,1,1.29,1v8.41" transform="translate(0 -4.22)"/><circle class="t" cx="137.55" cy="60.66" r="2.4"/><line class="ac" x1="137.55" y1="52.04" x2="137.55" y2="60.76"/><text class="z" transform="translate(140.98 90.58)">5</text><circle class="aa" cx="137.55" cy="95.15" r="3.51"/><path class="a" d="M136.26,96.1a3.51,3.51,0,1,0,2.58,0" transform="translate(0 -4.22)"/><path class="a" d="M136.26,96.1V87.69a1.17,1.17,0,0,1,1.29-1h0a1.17,1.17,0,0,1,1.29,1V96.1" transform="translate(0 -4.22)"/><path class="ab" d="M136.26,96.1a3.51,3.51,0,1,0,2.58,0" transform="translate(0 -4.22)"/><path class="ab" d="M136.26,96.1V87.69a1.17,1.17,0,0,1,1.29-1h0a1.17,1.17,0,0,1,1.29,1V96.1" transform="translate(0 -4.22)"/><circle class="t" cx="137.55" cy="95.15" r="2.4"/><line class="ac" x1="137.55" y1="86.54" x2="137.55" y2="95.25"/><text class="z" transform="translate(140.98 159.43)">9</text><circle class="aa" cx="137.55" cy="164" r="3.51"/><path class="a" d="M136.26,165a3.51,3.51,0,1,0,2.58,0" transform="translate(0 -4.22)"/><path class="a" d="M136.26,165v-8.41a1.17,1.17,0,0,1,1.29-1h0a1.17,1.17,0,0,1,1.29,1V165" transform="translate(0 -4.22)"/><path class="ab" d="M136.26,165a3.51,3.51,0,1,0,2.58,0" transform="translate(0 -4.22)"/><path class="ab" d="M136.26,165v-8.41a1.17,1.17,0,0,1,1.29-1h0a1.17,1.17,0,0,1,1.29,1V165" transform="translate(0 -4.22)"/><circle class="t" cx="137.55" cy="164" r="2.4"/><line class="ac" x1="137.55" y1="155.39" x2="137.55" y2="164.1"/><text class="z" transform="translate(140.98 182.4)">4</text><circle class="aa" cx="137.55" cy="186.97" r="3.51"/><path class="a" d="M136.26,187.92a3.51,3.51,0,1,0,2.58,0" transform="translate(0 -4.22)"/><path class="a" d="M136.26,187.92v-8.41a1.17,1.17,0,0,1,1.29-1h0a1.17,1.17,0,0,1,1.29,1v8.41" transform="translate(0 -4.22)"/><path class="ab" d="M136.26,187.92a3.51,3.51,0,1,0,2.58,0" transform="translate(0 -4.22)"/><path class="ab" d="M136.26,187.92v-8.41a1.17,1.17,0,0,1,1.29-1h0a1.17,1.17,0,0,1,1.29,1v8.41" transform="translate(0 -4.22)"/><circle class="t" cx="137.55" cy="186.97" r="2.4"/><line class="ac" x1="137.55" y1="178.36" x2="137.55" y2="187.07"/><text class="z" transform="translate(140.98 203.38)">3</text><circle class="aa" cx="137.55" cy="207.95" r="3.51"/><path class="a" d="M136.26,208.9a3.51,3.51,0,1,0,2.58,0" transform="translate(0 -4.22)"/><path class="a" d="M136.26,208.9V200.5a1.17,1.17,0,0,1,1.29-1h0a1.17,1.17,0,0,1,1.29,1v8.41" transform="translate(0 -4.22)"/><path class="ab" d="M136.26,208.9a3.51,3.51,0,1,0,2.58,0" transform="translate(0 -4.22)"/><path class="ab" d="M136.26,208.9V200.5a1.17,1.17,0,0,1,1.29-1h0a1.17,1.17,0,0,1,1.29,1v8.41" transform="translate(0 -4.22)"/><circle class="t" cx="137.55" cy="207.95" r="2.4"/><line class="ac" x1="137.55" y1="199.34" x2="137.55" y2="208.05"/><text class="z" transform="translate(140.98 360.35)">7</text><path class="a" d="M136.26,365.87a3.51,3.51,0,1,0,2.58,0" transform="translate(0 -4.22)"/><path class="a" d="M136.26,365.87v-8.41a1.17,1.17,0,0,1,1.29-1h0a1.17,1.17,0,0,1,1.29,1v8.41" transform="translate(0 -4.22)"/><path class="ab" d="M136.26,365.87a3.51,3.51,0,1,0,2.58,0" transform="translate(0 -4.22)"/><path class="ab" d="M136.26,365.87v-8.41a1.17,1.17,0,0,1,1.29-1h0a1.17,1.17,0,0,1,1.29,1v8.41" transform="translate(0 -4.22)"/><circle class="t" cx="137.55" cy="364.92" r="2.4"/><line class="ac" x1="137.55" y1="356.31" x2="137.55" y2="365.02"/><text class="z" transform="translate(140.98 340.51)">0</text><path class="a" d="M136.26,346a3.51,3.51,0,1,0,2.58,0" transform="translate(0 -4.22)"/><path class="a" d="M136.26,346v-8.41a1.17,1.17,0,0,1,1.29-1h0a1.17,1.17,0,0,1,1.29,1V346" transform="translate(0 -4.22)"/><path class="ab" d="M136.26,346a3.51,3.51,0,1,0,2.58,0" transform="translate(0 -4.22)"/><path class="ab" d="M136.26,346v-8.41a1.17,1.17,0,0,1,1.29-1h0a1.17,1.17,0,0,1,1.29,1V346" transform="translate(0 -4.22)"/><circle class="t" cx="137.55" cy="345.08" r="2.4"/><line class="ac" x1="137.55" y1="336.47" x2="137.55" y2="345.18"/><text class="z" transform="translate(140.98 320.66)">1</text><path class="a" d="M136.26,326.19a3.51,3.51,0,1,0,2.58,0" transform="translate(0 -4.22)"/><path class="a" d="M136.26,326.19v-8.41a1.17,1.17,0,0,1,1.29-1h0a1.17,1.17,0,0,1,1.29,1v8.41" transform="translate(0 -4.22)"/><path class="ab" d="M136.26,326.19a3.51,3.51,0,1,0,2.58,0" transform="translate(0 -4.22)"/><path class="ab" d="M136.26,326.19v-8.41a1.17,1.17,0,0,1,1.29-1h0a1.17,1.17,0,0,1,1.29,1v8.41" transform="translate(0 -4.22)"/><circle class="t" cx="137.55" cy="325.24" r="2.4"/><line class="ac" x1="137.55" y1="316.62" x2="137.55" y2="325.33"/><text class="z" transform="translate(140.98 300.82)">2</text><path class="a" d="M136.26,306.34a3.51,3.51,0,1,0,2.58,0" transform="translate(0 -4.22)"/><path class="a" d="M136.26,306.34v-8.41a1.17,1.17,0,0,1,1.29-1h0a1.17,1.17,0,0,1,1.29,1v8.41" transform="translate(0 -4.22)"/><path class="ab" d="M136.26,306.34a3.51,3.51,0,1,0,2.58,0" transform="translate(0 -4.22)"/><path class="ab" d="M136.26,306.34v-8.41a1.17,1.17,0,0,1,1.29-1h0a1.17,1.17,0,0,1,1.29,1v8.41" transform="translate(0 -4.22)"/><circle class="t" cx="137.55" cy="305.39" r="2.4"/><line class="ac" x1="137.55" y1="296.78" x2="137.55" y2="305.49"/><text class="z" transform="translate(140.98 280.98)">8</text><path class="a" d="M136.26,286.5a3.51,3.51,0,1,0,2.58,0" transform="translate(0 -4.22)"/><path class="a" d="M136.26,286.5v-8.41a1.17,1.17,0,0,1,1.29-1h0a1.17,1.17,0,0,1,1.29,1v8.41" transform="translate(0 -4.22)"/><path class="ab" d="M136.26,286.5a3.51,3.51,0,1,0,2.58,0" transform="translate(0 -4.22)"/><path class="ab" d="M136.26,286.5v-8.41a1.17,1.17,0,0,1,1.29-1h0a1.17,1.17,0,0,1,1.29,1v8.41" transform="translate(0 -4.22)"/><circle class="t" cx="137.55" cy="285.55" r="2.4"/><line class="ac" x1="137.55" y1="276.94" x2="137.55" y2="285.65"/><text class="ad" transform="translate(134.6 17.58)">SE</text><text class="ae" transform="translate(195.84 8.58)">South</text></svg>