<svg xmlns="http://www.w3.org/2000/svg" xmlns:xlink="http://www.w3.org/1999/xlink" viewBox="0 0 420.55 349.94"><defs><style>.a{fill:#fff;}.b{fill:#f39200;}.c,.s{fill:#1d1d1b;}.d{fill:#dadada;}.e{fill:#3d3d3b;}.f,.h{fill:#d9d9d9;}.g{fill:url(#a);}.h{opacity:0.1;}.i{fill:url(#b);}.j{fill:#c2c5e5;}.k{fill:#b2b2b2;}.l{fill:none;stroke:#467572;stroke-miterlimit:10;stroke-width:2px;}.m{fill:url(#c);}.n{fill:url(#d);}.o{fill:url(#e);}.p{fill:url(#f);}.q{fill:#cbbba0;}.r{fill:#3c3c3b;}.s{font-size:8px;font-family:Arial;}</style><linearGradient id="a" x1="190.48" y1="241.4" x2="218.12" y2="241.4" gradientUnits="userSpaceOnUse"><stop offset="0" stop-color="#b3b2b2"/><stop offset="1" stop-color="#585857"/></linearGradient><linearGradient id="b" x1="284.24" y1="241.4" x2="311.89" y2="241.4" xlink:href="#a"/><linearGradient id="c" x1="190.48" y1="153.49" x2="218.12" y2="153.49" xlink:href="#a"/><linearGradient id="d" x1="283.21" y1="153.49" x2="310.85" y2="153.49" xlink:href="#a"/><linearGradient id="e" x1="283.21" y1="57.64" x2="310.85" y2="57.64" xlink:href="#a"/><linearGradient id="f" x1="190.48" y1="57.64" x2="218.12" y2="57.64" xlink:href="#a"/></defs><title>atrium</title><rect class="a" y="1.94" width="420" height="348"/><polygon class="a" points="40.65 14.52 0 19.93 0 349.94 40.65 280.64 40.65 14.52"/><polygon class="a" points="379.36 14.52 420 19.93 420 349.94 379.36 280.64 379.36 14.52"/><rect class="b" x="1.06" y="214.89" width="24.51" height="65.75"/><circle class="c" cx="19.89" cy="247.77" r="1.7"/><rect class="b" x="318.18" y="214.89" width="41.56" height="65.75"/><circle class="c" cx="354.06" cy="247.77" r="1.7"/><rect class="b" x="141.18" y="214.89" width="41.56" height="65.75"/><circle class="c" cx="177.06" cy="247.77" r="1.7"/><rect class="d" x="0.1" y="280.75" width="419.8" height="69.09"/><path class="a" d="M630.8,403.85v68.89H211.2V403.85H630.8m0.2-.2H211v69.29H631V403.65h0Z" transform="translate(-211 -123)"/><path class="e" d="M429.78,373.39a0.55,0.55,0,0,1-.51.59H401.33a0.55,0.55,0,0,1-.51-0.59V356.46a0.55,0.55,0,0,1,.51-0.59h27.94a0.55,0.55,0,0,1,.51.59v16.93Z" transform="translate(-211 -123)"/><rect class="f" x="203.27" y="249.75" width="2.07" height="0.59"/><rect class="g" x="190.48" y="233.64" width="27.64" height="15.52"/><path class="h" d="M428.49,370.85A67.93,67.93,0,0,1,412,365.32a49.67,49.67,0,0,1-6.53-3.82,18.5,18.5,0,0,1-3.47-3.07h-0.69a0.51,0.51,0,0,0-.51.51v14.55a0.51,0.51,0,0,0,.51.51h27.94a0.51,0.51,0,0,0,.51-0.51v-2.37Z" transform="translate(-211 -123)"/><path class="e" d="M523.54,373.39a0.55,0.55,0,0,1-.51.59H495.09a0.55,0.55,0,0,1-.51-0.59V356.46a0.55,0.55,0,0,1,.51-0.59H523a0.55,0.55,0,0,1,.51.59v16.93Z" transform="translate(-211 -123)"/><rect class="f" x="297.03" y="249.75" width="2.07" height="0.59"/><rect class="i" x="284.24" y="233.64" width="27.64" height="15.52"/><path class="h" d="M522.25,370.85a67.93,67.93,0,0,1-16.47-5.53,49.67,49.67,0,0,1-6.53-3.82,18.5,18.5,0,0,1-3.47-3.07h-0.69a0.51,0.51,0,0,0-.51.51v14.55a0.51,0.51,0,0,0,.51.51H523a0.51,0.51,0,0,0,.51-0.51v-2.37Z" transform="translate(-211 -123)"/><polygon class="j" points="36.79 237.87 40.55 232.57 40.55 280.65 36.79 287.02 36.79 237.87"/><path class="a" d="M251.45,355.89v47.7l-3.56,6.07V360.94l3.56-5m0.2-.63-4,5.62v49.52l4-6.75V355.26h0Z" transform="translate(-211 -123)"/><polygon class="j" points="0.1 238.43 5.68 231.91 5.68 340.08 0.1 349.57 0.1 238.43"/><path class="a" d="M216.58,355.18V463l-5.38,9.18V361.5l5.38-6.32m0.2-.54L211,361.42V472.94l5.78-9.86V354.64h0Z" transform="translate(-211 -123)"/><rect class="j" x="33.86" y="237.6" width="2.72" height="49.69"/><path class="a" d="M247.49,360.7v49.49H245V360.7h2.52m0.2-.2h-2.92v49.89h2.92V360.5h0Z" transform="translate(-211 -123)"/><polygon class="j" points="379.44 280.6 379.45 232.57 383.23 237.93 383.21 287.02 379.44 280.6"/><path class="a" d="M590.55,355.89l3.56,5v48.72l-3.56-6.07v-47.7m-0.2-.63v48.39l4,6.75V360.87l-4-5.62h0Z" transform="translate(-211 -123)"/><polygon class="j" points="414.3 340.03 414.32 231.91 419.92 238.49 419.9 349.57 414.3 340.03"/><path class="a" d="M625.42,355.18l5.38,6.32V472.2L625.42,463V355.18m-0.2-.54V463.08l5.78,9.86V361.42l-5.78-6.79h0Z" transform="translate(-211 -123)"/><rect class="j" x="383.41" y="237.6" width="2.72" height="49.69"/><path class="a" d="M597,360.7v49.49h-2.52V360.7H597m0.2-.2h-2.92v49.89h2.92V360.5h0Z" transform="translate(-211 -123)"/><rect class="k" x="0.66" y="242.04" width="419.8" height="8.16"/><path class="a" d="M631.35,365.14v8H211.75v-8h419.6m0.2-.2h-420v8.36h420v-8.36h0Z" transform="translate(-211 -123)"/><rect class="d" x="0.1" y="193.65" width="419.8" height="48.18"/><path class="a" d="M630.8,316.75v48H211.2v-48H630.8m0.2-.2H211v48.38H631V316.55h0Z" transform="translate(-211 -123)"/><rect class="b" x="2.89" y="127.8" width="22.74" height="65.75"/><circle class="c" cx="19.96" cy="160.67" r="1.7"/><rect class="b" x="318.25" y="127.8" width="41.56" height="65.75"/><circle class="c" cx="354.13" cy="160.67" r="1.7"/><rect class="b" x="141.25" y="127.8" width="41.56" height="65.75"/><circle class="c" cx="177.13" cy="160.67" r="1.7"/><polygon class="j" points="379.43 193.48 379.45 96.95 383.26 99.31 383.21 197.99 379.43 193.48"/><path class="a" d="M590.55,220.13l3.56,2.2v98.38l-3.56-4.24V220.13m-0.2-.36v96.77l4,4.71v-99l-4-2.45h0Z" transform="translate(-211 -123)"/><polygon class="j" points="414.29 234.99 414.32 118.53 419.95 122.02 419.9 241.66 414.29 234.99"/><path class="a" d="M625.42,241.71L630.8,245V364.39L625.42,358V241.71m-0.2-.36v116.7l5.78,6.88v-120l-5.78-3.58h0Z" transform="translate(-211 -123)"/><polygon class="j" points="380 112.37 380.05 97.32 419.95 122.02 419.9 140.67 380 112.37"/><path class="a" d="M591.15,220.5L630.8,245v18.43l-39.65-28.12V220.5m-0.2-.36v15.32L631,263.86V244.94l-40.05-24.8h0Z" transform="translate(-211 -123)"/><rect class="j" x="383.41" y="122.04" width="2.72" height="76.12"/><path class="a" d="M597,245.14v75.92h-2.52V245.14H597m0.2-.2h-2.92v76.32h2.92V244.94h0Z" transform="translate(-211 -123)"/><polygon class="j" points="36.79 99.22 40.55 96.95 40.55 193.55 36.79 197.99 36.79 99.22"/><path class="a" d="M251.45,220.13v96.34l-3.56,4.24V222.34l3.56-2.2m0.2-.36-4,2.45v99l4-4.71V219.77h0Z" transform="translate(-211 -123)"/><polygon class="j" points="0.1 121.94 5.68 118.53 5.68 235.05 0.1 241.66 0.1 121.94"/><path class="a" d="M216.58,241.71V358l-5.38,6.41V245l5.38-3.33m0.2-.36L211,244.94v120l5.78-6.88V241.36h0Z" transform="translate(-211 -123)"/><polygon class="j" points="0.1 121.94 39.95 97.32 39.95 112.45 0.1 140.67 0.1 121.94"/><path class="a" d="M250.85,220.5v14.85L211.2,263.47V245l39.65-24.55m0.2-.36L211,244.94v18.92l40.05-28.41V220.14h0Z" transform="translate(-211 -123)"/><rect class="j" x="33.86" y="122.04" width="2.72" height="76.12"/><path class="a" d="M247.49,245.14v75.92H245V245.14h2.52m0.2-.2h-2.92v76.32h2.92V244.94h0Z" transform="translate(-211 -123)"/><path class="l" d="M211,364.94" transform="translate(-211 -123)"/><line class="l" x1="420" y1="200.42" y2="200.42"/><line class="l" x1="406.45" y1="241.94" x2="406.45" y2="200.42"/><line class="l" x1="392.9" y1="241.94" x2="392.9" y2="200.42"/><line class="l" x1="379.35" y1="241.94" x2="379.35" y2="200.42"/><line class="l" x1="365.81" y1="241.94" x2="365.81" y2="200.42"/><line class="l" x1="352.26" y1="241.94" x2="352.26" y2="200.42"/><line class="l" x1="338.71" y1="241.94" x2="338.71" y2="200.42"/><line class="l" x1="325.16" y1="241.94" x2="325.16" y2="200.42"/><line class="l" x1="311.61" y1="241.94" x2="311.61" y2="200.42"/><line class="l" x1="298.06" y1="241.94" x2="298.06" y2="200.42"/><line class="l" x1="284.52" y1="241.94" x2="284.52" y2="200.42"/><line class="l" x1="270.97" y1="241.94" x2="270.97" y2="200.42"/><line class="l" x1="257.42" y1="241.94" x2="257.42" y2="200.42"/><line class="l" x1="243.87" y1="241.94" x2="243.87" y2="200.42"/><line class="l" x1="230.32" y1="241.94" x2="230.32" y2="200.42"/><line class="l" x1="216.77" y1="241.94" x2="216.77" y2="200.42"/><line class="l" x1="203.23" y1="241.94" x2="203.23" y2="200.42"/><line class="l" x1="189.68" y1="241.94" x2="189.68" y2="200.42"/><line class="l" x1="176.13" y1="241.94" x2="176.13" y2="200.42"/><line class="l" x1="162.58" y1="241.94" x2="162.58" y2="200.42"/><line class="l" x1="149.03" y1="241.94" x2="149.03" y2="200.42"/><line class="l" x1="135.48" y1="241.94" x2="135.48" y2="200.42"/><line class="l" x1="121.94" y1="241.94" x2="121.94" y2="200.42"/><line class="l" x1="108.39" y1="241.94" x2="108.39" y2="200.42"/><line class="l" x1="94.84" y1="241.94" x2="94.84" y2="200.42"/><line class="l" x1="81.29" y1="241.94" x2="81.29" y2="200.42"/><line class="l" x1="67.74" y1="241.94" x2="67.74" y2="200.42"/><line class="l" x1="54.19" y1="241.94" x2="54.19" y2="200.42"/><line class="l" x1="40.65" y1="241.94" x2="40.65" y2="200.42"/><line class="l" x1="27.1" y1="241.94" x2="27.1" y2="200.42"/><line class="l" x1="13.55" y1="241.94" x2="13.55" y2="200.42"/><rect class="k" x="0.1" y="122.04" width="419.8" height="8.16"/><path class="a" d="M630.8,245.14v8H211.2v-8H630.8m0.2-.2H211v8.36H631v-8.36h0Z" transform="translate(-211 -123)"/><rect class="d" x="0.1" y="96.87" width="419.8" height="24.96"/><path class="a" d="M630.8,220v24.76H211.2V220H630.8m0.2-.2H211v25.16H631V219.77h0Z" transform="translate(-211 -123)"/><rect class="b" x="2.89" y="31.02" width="22.74" height="65.75"/><circle class="c" cx="19.96" cy="63.9" r="1.7"/><rect class="b" x="318.25" y="31.02" width="41.56" height="65.75"/><circle class="c" cx="354.13" cy="63.9" r="1.7"/><rect class="b" x="141.25" y="31.02" width="41.56" height="65.75"/><circle class="c" cx="177.13" cy="63.9" r="1.7"/><polygon class="j" points="379.41 96.69 379.45 0.1 383.21 0.28 383.21 99.04 379.41 96.69"/><path class="a" d="M590.55,123.21l3.56,0.17v98.49l-3.56-2.2V123.21m-0.2-.21v96.77l4,2.45v-99l-4-.19h0Z" transform="translate(-211 -123)"/><polygon class="j" points="414.27 118.27 414.32 1.76 419.9 2.03 419.9 121.76 414.27 118.27"/><path class="a" d="M625.42,124.87l5.38,0.26V244.58l-5.38-3.33V124.87m-0.2-.21v116.7l5.78,3.58v-120l-5.78-.28h0Z" transform="translate(-211 -123)"/><rect class="j" x="383.41" y="15.29" width="2.72" height="83.84"/><path class="a" d="M597,138.39V222h-2.52V138.39H597m0.2-.2h-2.92v84h2.92v-84h0Z" transform="translate(-211 -123)"/><polygon class="j" points="379.45 15.18 379.45 0.1 419.9 2.03 419.9 20.75 379.45 15.18"/><path class="a" d="M590.55,123.21l40.25,1.92v18.5l-40.25-5.54V123.21m-0.2-.21v15.26l40.65,5.6V124.94L590.35,123h0Z" transform="translate(-211 -123)"/><polygon class="j" points="36.79 0.28 40.55 0.1 40.55 96.77 36.79 99.05 36.79 0.28"/><path class="a" d="M251.45,123.21v96.45l-3.56,2.2V123.38l3.56-.17m0.2-.21-4,.19v99l4-2.45V123h0Z" transform="translate(-211 -123)"/><polygon class="j" points="0.1 2.03 5.68 1.76 5.68 118.36 0.1 121.76 0.1 2.03"/><path class="a" d="M216.58,124.87V241.24l-5.38,3.33V125.13l5.38-.26m0.2-.21-5.78.28v120l5.78-3.58V124.66h0Z" transform="translate(-211 -123)"/><rect class="j" x="33.86" y="15.29" width="2.72" height="83.84"/><path class="a" d="M247.49,138.39V222H245V138.39h2.52m0.2-.2h-2.92v84h2.92v-84h0Z" transform="translate(-211 -123)"/><polygon class="j" points="0.1 2.03 40.55 0.1 40.55 15.18 0.1 20.75 0.1 2.03"/><path class="a" d="M251.45,123.21v14.88l-40.25,5.54v-18.5l40.25-1.92m0.2-.21L211,124.94v18.92l40.65-5.6V123h0Z" transform="translate(-211 -123)"/><path class="l" d="M211,244.94" transform="translate(-211 -123)"/><line class="l" x1="420" y1="80.42" y2="80.42"/><line class="l" x1="406.45" y1="121.94" x2="406.45" y2="80.42"/><line class="l" x1="392.9" y1="121.94" x2="392.9" y2="80.42"/><line class="l" x1="379.35" y1="121.94" x2="379.35" y2="80.42"/><line class="l" x1="365.81" y1="121.94" x2="365.81" y2="80.42"/><line class="l" x1="352.26" y1="121.94" x2="352.26" y2="80.42"/><line class="l" x1="338.71" y1="121.94" x2="338.71" y2="80.42"/><line class="l" x1="325.16" y1="121.94" x2="325.16" y2="80.42"/><line class="l" x1="311.61" y1="121.94" x2="311.61" y2="80.42"/><line class="l" x1="298.06" y1="121.94" x2="298.06" y2="80.42"/><line class="l" x1="284.52" y1="121.94" x2="284.52" y2="80.42"/><line class="l" x1="270.97" y1="121.94" x2="270.97" y2="80.42"/><line class="l" x1="257.42" y1="121.94" x2="257.42" y2="80.42"/><line class="l" x1="243.87" y1="121.94" x2="243.87" y2="80.42"/><line class="l" x1="230.32" y1="121.94" x2="230.32" y2="80.42"/><line class="l" x1="216.77" y1="121.94" x2="216.77" y2="80.42"/><line class="l" x1="203.23" y1="121.94" x2="203.23" y2="80.42"/><line class="l" x1="189.68" y1="121.94" x2="189.68" y2="80.42"/><line class="l" x1="176.13" y1="121.94" x2="176.13" y2="80.42"/><line class="l" x1="162.58" y1="121.94" x2="162.58" y2="80.42"/><line class="l" x1="149.03" y1="121.94" x2="149.03" y2="80.42"/><line class="l" x1="135.48" y1="121.94" x2="135.48" y2="80.42"/><line class="l" x1="121.94" y1="121.94" x2="121.94" y2="80.42"/><line class="l" x1="108.39" y1="121.94" x2="108.39" y2="80.42"/><line class="l" x1="94.84" y1="121.94" x2="94.84" y2="80.42"/><line class="l" x1="81.29" y1="121.94" x2="81.29" y2="80.42"/><line class="l" x1="67.74" y1="121.94" x2="67.74" y2="80.42"/><line class="l" x1="54.19" y1="121.94" x2="54.19" y2="80.42"/><line class="l" x1="40.65" y1="121.94" x2="40.65" y2="80.42"/><line class="l" x1="27.1" y1="121.94" x2="27.1" y2="80.42"/><line class="l" x1="13.55" y1="121.94" x2="13.55" y2="80.42"/><path class="e" d="M429.78,285.48a0.55,0.55,0,0,1-.51.59H401.33a0.55,0.55,0,0,1-.51-0.59V268.55a0.55,0.55,0,0,1,.51-0.59h27.94a0.55,0.55,0,0,1,.51.59v16.93Z" transform="translate(-211 -123)"/><rect class="f" x="203.27" y="161.83" width="2.07" height="0.59"/><rect class="m" x="190.48" y="145.73" width="27.64" height="15.52"/><path class="h" d="M428.49,282.94A67.93,67.93,0,0,1,412,277.41a49.67,49.67,0,0,1-6.53-3.82,18.5,18.5,0,0,1-3.47-3.07h-0.69a0.51,0.51,0,0,0-.51.51v14.55a0.51,0.51,0,0,0,.51.51h27.94a0.51,0.51,0,0,0,.51-0.51V283.2Z" transform="translate(-211 -123)"/><path class="e" d="M522.51,285.48a0.55,0.55,0,0,1-.51.59H494.06a0.55,0.55,0,0,1-.51-0.59V268.55a0.55,0.55,0,0,1,.51-0.59H522a0.55,0.55,0,0,1,.51.59v16.93Z" transform="translate(-211 -123)"/><rect class="f" x="295.99" y="161.83" width="2.07" height="0.59"/><rect class="n" x="283.21" y="145.73" width="27.64" height="15.52"/><path class="h" d="M521.21,282.94a67.93,67.93,0,0,1-16.47-5.53,49.67,49.67,0,0,1-6.53-3.82,18.5,18.5,0,0,1-3.47-3.07h-0.69a0.51,0.51,0,0,0-.51.51v14.55a0.51,0.51,0,0,0,.51.51H522a0.51,0.51,0,0,0,.51-0.51V283.2Z" transform="translate(-211 -123)"/><path class="e" d="M522.51,189.64a0.55,0.55,0,0,1-.51.59H494.06a0.55,0.55,0,0,1-.51-0.59V172.7a0.55,0.55,0,0,1,.51-0.59H522a0.55,0.55,0,0,1,.51.59v16.93Z" transform="translate(-211 -123)"/><rect class="f" x="295.99" y="65.99" width="2.07" height="0.59"/><rect class="o" x="283.21" y="49.88" width="27.64" height="15.52"/><path class="h" d="M521.21,187.09a67.93,67.93,0,0,1-16.47-5.53,49.67,49.67,0,0,1-6.53-3.82,18.5,18.5,0,0,1-3.47-3.07h-0.69a0.51,0.51,0,0,0-.51.51v14.55a0.51,0.51,0,0,0,.51.51H522a0.51,0.51,0,0,0,.51-0.51v-2.37Z" transform="translate(-211 -123)"/><path class="e" d="M429.78,189.64a0.55,0.55,0,0,1-.51.59H401.33a0.55,0.55,0,0,1-.51-0.59V172.7a0.55,0.55,0,0,1,.51-0.59h27.94a0.55,0.55,0,0,1,.51.59v16.93Z" transform="translate(-211 -123)"/><rect class="f" x="203.27" y="65.99" width="2.07" height="0.59"/><rect class="p" x="190.48" y="49.88" width="27.64" height="15.52"/><path class="h" d="M428.49,187.09A67.93,67.93,0,0,1,412,181.56a49.67,49.67,0,0,1-6.53-3.82,18.5,18.5,0,0,1-3.47-3.07h-0.69a0.51,0.51,0,0,0-.51.51v14.55a0.51,0.51,0,0,0,.51.51h27.94a0.51,0.51,0,0,0,.51-0.51v-2.37Z" transform="translate(-211 -123)"/><rect class="q" x="118.05" width="28.35" height="349.94"/><rect class="q" x="260.28" width="28.35" height="349.94"/><polygon class="r" points="379.36 0 40.65 0 0 1.94 420 1.94 379.36 0"/><text class="s" transform="translate(118.63 37.83)">TNW_6</text><text class="s" transform="translate(118.63 74.58)">TNW_5</text><text class="s" transform="translate(118.63 138.94)">TNW_9</text><text class="s" transform="translate(118.63 163.08)">TNW_4</text><text class="s" transform="translate(118.63 189.23)">TNW_3</text><text class="s" transform="translate(118.63 259.82)">TNW_8</text><text class="s" transform="translate(118.63 278.64)">TNW_2</text><text class="s" transform="translate(118.63 296.94)">TNW_1</text><text class="s" transform="translate(118.63 319.94)">TNW_0</text><text class="s" transform="translate(118.63 342.31)">TNW_7</text><text class="s" transform="translate(261.76 342.31)">TNE_7</text><text class="s" transform="translate(261.76 319.94)">TNE_0</text><text class="s" transform="translate(261.88 297.06)">TNE_1</text><text class="s" transform="translate(261.76 278.64)">TNE_2</text><text class="s" transform="translate(261.76 259.82)">TNE_8</text><text class="s" transform="translate(261.76 189.23)">TNE_3</text><text class="s" transform="translate(261.88 163.08)">TNE_4</text><text class="s" transform="translate(261.88 138.94)">TNE_9</text><text class="s" transform="translate(261.76 74.58)">TNE_5</text><text class="s" transform="translate(261.76 37.83)">TNE_6</text></svg>