<svg xmlns="http://www.w3.org/2000/svg" viewBox="0 0 477.4 400.53">
  <defs>
    <style>
      .a {
        fill: #394d54;
      }

      .a, .f, .g, .h {
        fill-rule: evenodd;
      }

      .b {
        fill: #00aada;
      }

      .c {
        fill: #24b8eb;
      }

      .d {
        fill: #008bb8;
      }

      .e {
        fill: #039bc6;
      }

      .f {
        fill: #00acd3;
      }

      .g {
        fill: #20c2ef;
      }

      .h, .j {
        fill: #d4edf1;
      }

      .i {
        fill: #bfdbe0;
      }
    </style>
  </defs>
  <title>docker</title>
  <g>
    <path class="a" d="M441.47,463.32q16.11-13.81,32.19-27.66c3.66-3.16,7.67-6.43,11.3-9.75-2.91-3.67-7.78-6.32-11.91-7.89-8.34-3.18-16.57-2.11-24.23,2.31-10,5.78-14.29,15-13.91,26.46a25.36,25.36,0,0,0,3.76,12.71,33.76,33.76,0,0,0,2.8,3.84M453.89,472c5.27,1.84,11.27,1.58,16.67.63,2.76-1.17,9.83-4.26,12.43-3.8l0.41,0.07,0.37,0.18a8.16,8.16,0,0,1,3.91,3.47c1.89,3.79,1,7.59-2.73,9.74l-1.24.71c-13.72,7.92-28.32,6.82-42-.57a38.94,38.94,0,0,1-15.24-15.18l-0.86-1.5c-8.81-15.26-7.62-31.31,2.31-45.82a39.59,39.59,0,0,1,13.16-11.92l2-1.14c12.93-7.46,26.78-7,40.05-.4A39.19,39.19,0,0,1,500,422.19l0.72,1.24c2.89,5-.86,9.39-4.73,12.37-4.49,3.47-9,7.64-13.33,11.35Q468.28,459.59,453.89,472Zm102.84-69.41h1.44a6.85,6.85,0,0,1,7.24,7.24c0,6-5.73,7.52-10.68,7.52-6.5,0-12.7,3.93-17.18,8.35-5.59,5.51-8,12.56-8,20.31v35c0,4-2.51,7.24-6.67,7.24H521.7c-4.16,0-6.66-3.22-6.66-7.24V444c0-14.22,6.92-25.83,18.46-34A39.79,39.79,0,0,1,556.73,402.63ZM376.4,427.49c5.62-5.63,11.26-11.24,17-16.78,1.59-1.54,7.61-8.08,10-8.08h2.59l0.29,0.06c3.3,0.69,5.77,2.78,5.77,6.32v1.43c0,2.42-2.83,5.23-4.4,6.89-3.32,3.52-6.82,6.93-10.23,10.38L379.9,445.46q11.29,11.31,22.51,22.7c2.06,2.1,4.13,4.21,6.16,6.34a15.83,15.83,0,0,1,2.38,2.75,5.93,5.93,0,0,1,1,3.27V482l-0.08.34c-0.81,3.3-2.91,6-6.57,6H404.2c-2.39,0-5.1-2.71-6.74-4.26-3.38-3.19-6.64-6.54-10-9.79l-11.11-10.9V480.8c0,4-2.51,7.24-6.66,7.24H368.6c-4.15,0-6.66-3.23-6.66-7.24V382.59c0-4,2.51-7.23,6.66-7.23h1.14c4.15,0,6.66,3.21,6.66,7.23v44.9Zm-46.93-9.8c-2.18-1-6.27-1.36-8.63-1.45-12.09-.46-20.83,6.35-26,17a26.47,26.47,0,0,0-2.58,11.64c0,12.39,6.51,21.07,17.57,26.36,4,1.93,9.26,2.3,13.67,2.3,3.88,0,9.37-2.38,12.82-4l0.6-.28h2.67l0.29,0.06c3.29,0.68,5.78,2.77,5.78,6.31v1.43c0,8.81-16.1,10.83-22.24,11.25-21.68,1.5-37.89-10.4-44.07-31.08a37.44,37.44,0,0,1-1.56-10.9v-2.86c0-15.69,7.79-28.12,21.24-36.11a39.6,39.6,0,0,1,20.45-5.58h2.87a36.84,36.84,0,0,1,21.18,6.54l0.52,0.36,0.33,0.54A7.62,7.62,0,0,1,345.7,413v1.43c0,3.69-2.76,5.68-6.1,6.32l-0.28,0h-0.86C336.31,420.84,331.4,418.6,329.47,417.7Zm-131.93,27.5c0,11,5.4,19.09,14.69,24.78a26.79,26.79,0,0,0,14.26,3.88c10.87,0,18.9-5.51,24.49-14.68a26.9,26.9,0,0,0,3.87-14.27c0-10.23-4.93-18-13.35-23.7a26.91,26.91,0,0,0-15.31-4.66c-12.12,0-20.84,6.12-26.08,17A26.51,26.51,0,0,0,197.54,445.19Zm27.22-43.13h2c16.76,0,29.51,8.13,37.59,22.77a38.89,38.89,0,0,1,5,18.94v2.87c0,15.68-7.73,28.18-21.26,36.12a40,40,0,0,1-20.43,5.57h-2.87c-15.69,0-28.15-7.76-36.12-21.25a39.8,39.8,0,0,1-5.58-20.44v-2.87c0-15.69,7.78-28.12,21.24-36.12A39.58,39.58,0,0,1,224.77,402.06Zm-122,43.13c0,11.33,5.49,19.85,15.42,25.28a26.75,26.75,0,0,0,13,3.38c11.12,0,19.37-5.25,25.06-14.67a27.14,27.14,0,0,0,3.88-14.28c0-9.82-4.65-17.49-12.56-23.18a27,27,0,0,0-16.09-5.18c-12.12,0-20.84,6.12-26.08,17A26.56,26.56,0,0,0,102.79,445.19Zm57.31-32.33V382.31c0-4,2.51-7.24,6.66-7.24h1.15c4.15,0,6.65,3.23,6.65,7.24v64.32c0,15.69-7.75,28.16-21.25,36.12a39.92,39.92,0,0,1-20.44,5.57H130c-15.69,0-28.15-7.76-36.12-21.25a39.8,39.8,0,0,1-5.57-20.44v-2.87c0-15.69,7.75-28.16,21.25-36.13A39.76,39.76,0,0,1,130,402.06h2.87C143.5,402.06,152.51,406.18,160.11,412.86Z" transform="translate(-88 -88)"/>
    <path class="a" d="M363.39,173.39h42.7V217h21.59a93.61,93.61,0,0,0,29.66-5,75.94,75.94,0,0,0,14.42-6.51c-6-7.87-9.1-17.8-10-27.6-1.23-13.32,1.46-30.66,10.47-41.09l4.49-5.19,5.35,4.3c13.46,10.82,24.79,25.93,26.79,43.17,16.21-4.77,35.25-3.64,49.54,4.61l5.86,3.38-3.09,6c-12.09,23.59-37.35,30.89-62.06,29.6-37,92.07-117.44,135.66-215,135.66-50.41,0-96.66-18.85-123-63.57l-0.43-.73-3.84-7.81c-8.9-19.69-11.86-41.26-9.85-62.81l0.6-6.46h36.51V173.39h42.69V130.7h85.39V88h51.23v85.39Z" transform="translate(-88 -88)"/>
    <g>
      <path class="b" d="M501.71,189.54c2.86-22.25-13.79-39.72-24.11-48-11.9,13.76-13.75,49.81,4.92,65-10.42,9.25-32.37,17.64-54.85,17.64H154c-2.19,23.46,1.93,45.07,11.34,63.57l3.11,5.69a105.46,105.46,0,0,0,6.45,9.68h0q16.87,1.08,31.11.76h0c18.65-.41,33.86-2.61,45.39-6.61a3.29,3.29,0,0,1,2.15,6.21c-1.53.53-3.13,1-4.78,1.5h0a142.86,142.86,0,0,1-31.38,5.11c0.74,0-.78.11-0.78,0.11l-1.39.11c-4.94.28-10.28,0.34-15.74,0.34-6,0-11.84-.11-18.41-0.45l-0.17.11c22.8,25.63,58.45,41,103.13,41,94.57,0,174.79-41.92,210.3-136,25.2,2.59,49.42-3.84,60.44-25.35C537.27,179.78,514.71,183,501.71,189.54Z" transform="translate(-88 -88)"/>
      <path class="c" d="M501.71,189.54c2.86-22.25-13.79-39.72-24.11-48-11.9,13.76-13.75,49.81,4.92,65-10.42,9.25-32.37,17.64-54.85,17.64H170.25c-1.12,35.94,12.22,63.21,35.81,79.71h0c18.65-.41,33.86-2.61,45.39-6.61a3.29,3.29,0,0,1,2.15,6.21c-1.53.53-3.13,1-4.78,1.5h0a150.21,150.21,0,0,1-32.22,5.34L216.3,310c32.18,16.51,78.85,16.45,132.36-4.1,60-23,115.82-67,154.77-117.18Q502.54,189.12,501.71,189.54Z" transform="translate(-88 -88)"/>
      <path class="d" d="M154.55,252.66a109.42,109.42,0,0,0,10.83,35.06l3.11,5.69a105.26,105.26,0,0,0,6.45,9.68q16.88,1.08,31.11.76c18.65-.41,33.86-2.61,45.39-6.61a3.29,3.29,0,0,1,2.15,6.21c-1.53.53-3.13,1-4.78,1.5h0a150.15,150.15,0,0,1-32.16,5.22c-0.43,0-1.18,0-1.62.06-4.94.28-10.22,0.45-15.68,0.45-6,0-12.07-.11-18.64-0.45,22.8,25.63,58.67,41,103.35,41,81,0,151.4-30.73,192.28-98.63H154.55Z" transform="translate(-88 -88)"/>
      <path class="e" d="M172.71,252.66c4.84,22.07,16.47,39.39,33.36,51.2,18.65-.41,33.86-2.61,45.39-6.61a3.29,3.29,0,0,1,2.15,6.21c-1.53.53-3.13,1-4.78,1.5h0a152.41,152.41,0,0,1-32.38,5.22c32.18,16.51,78.71,16.27,132.21-4.28C381,293.47,412.17,275,440.12,252.66H172.71Z" transform="translate(-88 -88)"/>
    </g>
    <g>
      <path class="f" d="M222.18,183.59h2.92v30.84h-2.92V183.59Zm-5.61,0h3v30.84h-3V183.59Zm-5.61,0h3v30.84h-3V183.59Zm-5.61,0h3v30.84h-3V183.59Zm-5.61,0h3v30.84h-3V183.59Zm-5.49,0h2.92v30.84h-2.92V183.59Zm-3.08-3.08h37v37h-37v-37Z" transform="translate(-88 -88)"/>
      <path class="f" d="M264.88,140.89h2.92v30.84h-2.92V140.89Zm-5.61,0h3v30.84h-3V140.89Zm-5.61,0h3v30.84h-3V140.89Zm-5.61,0h3v30.84h-3V140.89Zm-5.6,0h3v30.84h-3V140.89Zm-5.49,0h2.92v30.84H237V140.89Zm-3.09-3.08h37v37h-37v-37Z" transform="translate(-88 -88)"/>
      <path class="g" d="M264.88,183.59h2.92v30.84h-2.92V183.59Zm-5.61,0h3v30.84h-3V183.59Zm-5.61,0h3v30.84h-3V183.59Zm-5.61,0h3v30.84h-3V183.59Zm-5.6,0h3v30.84h-3V183.59Zm-5.49,0h2.92v30.84H237V183.59Zm-3.09-3.08h37v37h-37v-37Z" transform="translate(-88 -88)"/>
      <path class="f" d="M307.57,183.59h2.92v30.84h-2.92V183.59Zm-5.61,0h3v30.84h-3V183.59Zm-5.61,0h3v30.84h-3V183.59Zm-5.61,0h3v30.84h-3V183.59Zm-5.61,0h3v30.84h-3V183.59Zm-5.49,0h2.92v30.84h-2.92V183.59Zm-3.08-3.08h37v37h-37v-37Z" transform="translate(-88 -88)"/>
      <path class="g" d="M307.57,140.89h2.92v30.84h-2.92V140.89Zm-5.61,0h3v30.84h-3V140.89Zm-5.61,0h3v30.84h-3V140.89Zm-5.61,0h3v30.84h-3V140.89Zm-5.61,0h3v30.84h-3V140.89Zm-5.49,0h2.92v30.84h-2.92V140.89Zm-3.08-3.08h37v37h-37v-37Z" transform="translate(-88 -88)"/>
      <path class="g" d="M350.27,183.59h2.92v30.84h-2.92V183.59Zm-5.61,0h3v30.84h-3V183.59Zm-5.61,0h3v30.84h-3V183.59Zm-5.61,0h3v30.84h-3V183.59Zm-5.61,0h3v30.84h-3V183.59Zm-5.49,0h2.92v30.84h-2.92V183.59Zm-3.08-3.08h37v37h-37v-37Z" transform="translate(-88 -88)"/>
      <path class="f" d="M350.27,140.89h2.92v30.84h-2.92V140.89Zm-5.61,0h3v30.84h-3V140.89Zm-5.61,0h3v30.84h-3V140.89Zm-5.61,0h3v30.84h-3V140.89Zm-5.61,0h3v30.84h-3V140.89Zm-5.49,0h2.92v30.84h-2.92V140.89Zm-3.08-3.08h37v37h-37v-37Z" transform="translate(-88 -88)"/>
      <path class="g" d="M350.27,98.2h2.92V129h-2.92V98.2Zm-5.61,0h3V129h-3V98.2Zm-5.61,0h3V129h-3V98.2Zm-5.61,0h3V129h-3V98.2Zm-5.61,0h3V129h-3V98.2Zm-5.49,0h2.92V129h-2.92V98.2Zm-3.08-3.08h37v37h-37v-37Z" transform="translate(-88 -88)"/>
      <path class="f" d="M393,183.59h2.92v30.84H393V183.59Zm-5.61,0h3v30.84h-3V183.59Zm-5.61,0h3v30.84h-3V183.59Zm-5.61,0h3v30.84h-3V183.59Zm-5.61,0h3v30.84h-3V183.59Zm-5.49,0H368v30.84H365V183.59ZM362,180.51h37v37H362v-37Z" transform="translate(-88 -88)"/>
    </g>
    <path class="h" d="M268.56,277.5a10.21,10.21,0,1,1-10.21,10.21,10.21,10.21,0,0,1,10.21-10.21" transform="translate(-88 -88)"/>
    <path class="a" d="M268.56,280.4a7.31,7.31,0,0,1,2.65.49,3,3,0,1,0,4.11,4,7.31,7.31,0,1,1-6.75-4.51" transform="translate(-88 -88)"/>
    <path class="a" d="M88,256.35H562.88c-10.34-2.62-32.71-6.17-29-19.72-18.8,21.76-64.14,15.26-75.59,4.54-12.74,18.48-86.93,11.46-92.1-2.94-16,18.75-65.48,18.75-81.45,0-5.18,14.4-79.36,21.42-92.1,2.94-11.44,10.73-56.78,17.22-75.58-4.54,3.69,13.55-18.69,17.09-29,19.72" transform="translate(-88 -88)"/>
    <path class="i" d="M295.7,351.07c-25.28-12-39.16-28.31-46.88-46.11-9.39,2.68-20.68,4.39-33.79,5.13q-7.41.42-15.59,0.42-9.43,0-19.87-.55c23.18,23.17,51.7,41,104.52,41.34Q289.93,351.29,295.7,351.07Z" transform="translate(-88 -88)"/>
    <path class="j" d="M258.21,321.39A88.55,88.55,0,0,1,248.83,305c-9.39,2.68-20.68,4.4-33.8,5.13C224,315,236.92,319.51,258.21,321.39Z" transform="translate(-88 -88)"/>
  </g>
</svg>
