<svg xmlns="http://www.w3.org/2000/svg" xmlns:xlink="http://www.w3.org/1999/xlink" viewBox="0 0 491.34 496.22"><defs><style>.cls-1{fill:#e65270;}.cls-2{fill:#430a1d;}.cls-13,.cls-2,.cls-3,.cls-6,.cls-8{opacity:0.2;}.cls-13,.cls-14,.cls-2,.cls-25,.cls-26,.cls-27,.cls-29,.cls-34,.cls-35,.cls-6,.cls-8,.cls-9{isolation:isolate;}.cls-35,.cls-4,.cls-6{fill:#2b2b2b;}.cls-5{fill:url(#Unbenannter_Verlauf_22);}.cls-7{fill:url(#Unbenannter_Verlauf_22-2);}.cls-11,.cls-14,.cls-8{fill:#fff;}.cls-13,.cls-34,.cls-38,.cls-9{fill:#8b4fba;}.cls-9{opacity:0.6;}.cls-10{fill:#f9e0e7;}.cls-12{fill:url(#Unbenannter_Verlauf_38);}.cls-14,.cls-29{opacity:0.3;}.cls-15{fill:url(#Unbenannter_Verlauf_28);}.cls-16{fill:url(#Unbenannter_Verlauf_28-2);}.cls-17{fill:#e65271;}.cls-18{fill:url(#Unbenannter_Verlauf_28-3);}.cls-19{fill:url(#Unbenannter_Verlauf_39);}.cls-20,.cls-29{fill:#f6e8a0;}.cls-21{fill:#f8d285;}.cls-22{fill:url(#Unbenannter_Verlauf_28-4);}.cls-23{fill:url(#Unbenannter_Verlauf_38-2);}.cls-24{fill:url(#Unbenannter_Verlauf_38-3);}.cls-25,.cls-26,.cls-27{opacity:0.7;}.cls-25{fill:url(#Unbenannter_Verlauf_33);}.cls-26{fill:url(#Unbenannter_Verlauf_33-2);}.cls-27{fill:url(#Unbenannter_Verlauf_33-3);}.cls-28{fill:url(#Unbenannter_Verlauf_34);}.cls-30{fill:url(#Unbenannter_Verlauf_38-4);}.cls-31{fill:url(#Unbenannter_Verlauf_38-5);}.cls-32{fill:url(#Unbenannter_Verlauf_38-6);}.cls-33{fill:url(#Unbenannter_Verlauf_38-7);}.cls-34,.cls-35{opacity:0.4;}.cls-36{fill:#0d0d0d;}.cls-37{fill:url(#Unbenannter_Verlauf_39-2);}</style><linearGradient id="Unbenannter_Verlauf_22" x1="59935.79" y1="-18.71" x2="59964.26" y2="114.13" gradientTransform="matrix(-1, 0, 0, 1, 59965.26, 0)" gradientUnits="userSpaceOnUse"><stop offset="0.38" stop-color="#faa100"/><stop offset="0.66" stop-color="#bf73f2"/><stop offset="0.66" stop-color="#c370e6"/><stop offset="0.69" stop-color="#cc68c7"/><stop offset="0.71" stop-color="#d461ab"/><stop offset="0.73" stop-color="#db5b95"/><stop offset="0.76" stop-color="#e05784"/><stop offset="0.8" stop-color="#e35479"/><stop offset="0.85" stop-color="#e55272"/><stop offset="1" stop-color="#e65270"/></linearGradient><linearGradient id="Unbenannter_Verlauf_22-2" x1="59919.72" y1="-20.49" x2="59950.05" y2="121.02" xlink:href="#Unbenannter_Verlauf_22"/><linearGradient id="Unbenannter_Verlauf_38" x1="59914.75" y1="-11.51" x2="59916.55" y2="72.44" gradientTransform="matrix(-1, 0, 0, 1, 59965.26, 0)" gradientUnits="userSpaceOnUse"><stop offset="0" stop-color="#faa7b5"/><stop offset="0.38" stop-color="#faa100"/><stop offset="0.73" stop-color="#bf73f2"/></linearGradient><linearGradient id="Unbenannter_Verlauf_28" x1="59937.14" y1="-2.88" x2="59916.88" y2="32.03" gradientTransform="matrix(-1, 0, 0, 1, 59965.26, 0)" gradientUnits="userSpaceOnUse"><stop offset="0" stop-color="#f6e8a0"/><stop offset="1" stop-color="#e65271"/></linearGradient><linearGradient id="Unbenannter_Verlauf_28-2" x1="59933.58" y1="18.1" x2="59916.1" y2="48.2" xlink:href="#Unbenannter_Verlauf_28"/><linearGradient id="Unbenannter_Verlauf_28-3" x1="59894.52" y1="-4.15" x2="59896.54" y2="31.02" xlink:href="#Unbenannter_Verlauf_28"/><linearGradient id="Unbenannter_Verlauf_39" x1="59896.42" y1="30.98" x2="59908.04" y2="-20.5" gradientTransform="matrix(-1, 0, 0, 1, 59965.26, 0)" gradientUnits="userSpaceOnUse"><stop offset="0" stop-color="#e65271"/><stop offset="0.38" stop-color="#faa100"/></linearGradient><linearGradient id="Unbenannter_Verlauf_28-4" x1="59936.73" y1="5.21" x2="59893.73" y2="41.85" xlink:href="#Unbenannter_Verlauf_28"/><linearGradient id="Unbenannter_Verlauf_38-2" x1="59897.93" y1="30.82" x2="59939.73" y2="42.19" xlink:href="#Unbenannter_Verlauf_38"/><linearGradient id="Unbenannter_Verlauf_38-3" x1="59786.67" y1="-18.04" x2="59983" y2="87.23" xlink:href="#Unbenannter_Verlauf_38"/><radialGradient id="Unbenannter_Verlauf_33" cx="116605.05" cy="-9350.35" r="14.87" gradientTransform="matrix(-0.46, -0.14, -0.27, 0.88, 50961.75, 24475.79)" gradientUnits="userSpaceOnUse"><stop offset="0.01" stop-color="#fff"/><stop offset="1" stop-color="#fff" stop-opacity="0"/></radialGradient><radialGradient id="Unbenannter_Verlauf_33-2" cx="102753.96" cy="-44020.15" r="23.25" gradientTransform="matrix(-0.48, 0, 0, 0.48, 49199.5, 21101.68)" xlink:href="#Unbenannter_Verlauf_33"/><radialGradient id="Unbenannter_Verlauf_33-3" cx="102753.97" cy="-44020.16" r="23.25" gradientTransform="matrix(-0.48, 0, 0, 0.48, 49199.5, 21101.68)" xlink:href="#Unbenannter_Verlauf_33"/><linearGradient id="Unbenannter_Verlauf_34" x1="59867.38" y1="72.64" x2="59878.39" y2="97.47" gradientTransform="matrix(-1, 0, 0, 1, 59965.26, 0)" gradientUnits="userSpaceOnUse"><stop offset="0" stop-color="#faa7b5"/><stop offset="0.38" stop-color="#faa100"/></linearGradient><linearGradient id="Unbenannter_Verlauf_38-4" x1="59940.71" y1="0.97" x2="59949.74" y2="69.57" xlink:href="#Unbenannter_Verlauf_38"/><linearGradient id="Unbenannter_Verlauf_38-5" x1="59948.24" y1="-0.02" x2="59957.27" y2="68.58" xlink:href="#Unbenannter_Verlauf_38"/><linearGradient id="Unbenannter_Verlauf_38-6" x1="59961.5" y1="29.23" x2="59957.45" y2="76.97" xlink:href="#Unbenannter_Verlauf_38"/><linearGradient id="Unbenannter_Verlauf_38-7" x1="59889.3" y1="-10.96" x2="59891.11" y2="72.99" xlink:href="#Unbenannter_Verlauf_38"/><linearGradient id="Unbenannter_Verlauf_39-2" x1="59886.91" y1="16.27" x2="59886.91" y2="16.27" xlink:href="#Unbenannter_Verlauf_39"/><symbol id="New_Symbol" data-name="New Symbol" viewBox="0 0 100.91 101.91"><path class="cls-1" d="M64.57,101l-4.05,0H36.36a32.63,32.63,0,0,1-8.06-1A34.73,34.73,0,0,1,5.79,82.3a33.89,33.89,0,0,1-4-14.47,34.9,34.9,0,0,1,.35-7.11c0-.28.1-.57.15-.85l.12-.65.19.19a.61.61,0,0,1,.16.29c.1.32.19.64.28,1,.19.66.39,1.35.62,2a46.78,46.78,0,0,0,7.9,13.9,1.82,1.82,0,0,1,.31.57,22,22,0,0,0,6.33,9.69A27.81,27.81,0,0,0,28.51,92.6a30.94,30.94,0,0,1-7-4.14,22.75,22.75,0,0,1-7.38-9.89,1.86,1.86,0,0,1-.07-1.37c.06-.18.11-.36.16-.54s.06-.25.1-.38a13.59,13.59,0,0,1,3.63-6.12,14.49,14.49,0,0,1,6-3.26,45.57,45.57,0,0,1,7.14-1.3l1-.13c1.32-.17,2.66-.38,4-.58l.78-.12c.29,0,.58-.11.88-.17l.73-.15-.19.32,0,.07a20,20,0,0,0-3.06,4.54.64.64,0,0,1-.35.31l-.52.17a13.91,13.91,0,0,1-1.7.49c-.62.12-1.26.21-1.88.3s-1,.14-1.48.23a8.12,8.12,0,0,0-3.9,1.64c.21-.05.43-.08.65-.11a4.89,4.89,0,0,0,.89-.19,15.67,15.67,0,0,1,5.26-.78h.28l1.12,0,.73,0-.06.18a22.52,22.52,0,0,0,.12,14.16,24.64,24.64,0,0,1-.37-8.74A18.47,18.47,0,0,1,39.5,66.26a26.87,26.87,0,0,1,7.94-5.13A49.2,49.2,0,0,1,56,58.43l.53-.13c2-.48,4-1,6-1.56a19.18,19.18,0,0,0,7.72-4.28,8.53,8.53,0,0,0,1-1,17.88,17.88,0,0,1,7.26-5.73.56.56,0,0,0,.23-.22,9.57,9.57,0,0,1,3.42-3.42,1.81,1.81,0,0,1,.9-.26,1.84,1.84,0,0,1,1.11.42,3.6,3.6,0,0,1,.38.33,6,6,0,0,1,1.21,1.86.19.19,0,0,0,.19.14c.35,0,.71.09,1.06.16A13,13,0,0,1,97.59,56.41c0,.16,0,.32,0,.49A5.08,5.08,0,0,0,97.82,58a9.52,9.52,0,0,0,.57,1.32c.09.19.19.38.28.57l.23.49c.19.39.37.79.53,1.19a2.94,2.94,0,0,1,.08,1.91c-.08.28-.25.32-.34.32a.43.43,0,0,1-.22-.07,5.6,5.6,0,0,1-.46-.34l-.22-.16L98,63.09a4.27,4.27,0,0,0-.56-.4.45.45,0,0,0-.22-.06.38.38,0,0,0-.21.06l.27.24c.49.43,1,.87,1.46,1.31a.54.54,0,0,1,.16.4A3.39,3.39,0,0,1,98,66.89a3,3,0,0,1-2.18,1,2.93,2.93,0,0,1-.51,0,.57.57,0,0,1-.35.56,9.87,9.87,0,0,1-4.78,1.3h-.25a6.77,6.77,0,0,0-3.37,1,5,5,0,0,1-1.12.48,14.35,14.35,0,0,1-3,.42,9.28,9.28,0,0,0,1.28.08c.29,0,.59,0,.91,0l.19,0,.41,0a1.16,1.16,0,0,1,.45.07c.84.34,1.66.76,2.43,1.15a.79.79,0,0,0,.36.11.48.48,0,0,0,.17,0l.22-.08c.42-.16.85-.32,1.27-.51a6.49,6.49,0,0,1,2.68-.65,5.06,5.06,0,0,1,.67,0,4.67,4.67,0,0,1,1.85.58A1.35,1.35,0,0,1,96,73.36a.24.24,0,0,0,.07.09l.23.19.23.2a1.87,1.87,0,0,1,.62,1.62c0,.18-.06.6-.42.6a1,1,0,0,1-.42-.13l-.21-.09.52.33a1.35,1.35,0,0,1,.58,1.24,2.67,2.67,0,0,1-2.6,2.34,2.23,2.23,0,0,1-.45,0A1.63,1.63,0,0,1,93,79l0,0h-.22A4.26,4.26,0,0,0,92,79l-.07,0a5.8,5.8,0,0,1-1.31.19,2.67,2.67,0,0,1-.51,0l-.6-.14-.15,0a6.44,6.44,0,0,1-1.11,2.09,9.32,9.32,0,0,1-4.61,3.1,14.55,14.55,0,0,1-4.56.71,18.69,18.69,0,0,1-2.62-.19A8.82,8.82,0,0,1,69.1,79a13.25,13.25,0,0,1-.52-1.71c-.07-.27-.14-.55-.22-.83a17.7,17.7,0,0,0-1.62-3.86A11.4,11.4,0,0,0,62.14,68a10.37,10.37,0,0,0-4.88-1.19A12.87,12.87,0,0,0,55,67l-.47.1c.55,0,1.07.06,1.59.11a15,15,0,0,1,6.58,2.22,10.62,10.62,0,0,1,4.94,6.34,22.75,22.75,0,0,0,1.63,4.3,10.6,10.6,0,0,0,1.66,2.55A8.79,8.79,0,0,0,75.16,85c.5.14,1,.3,1.51.46a.91.91,0,0,1,.59.59,4.06,4.06,0,0,1,.21,2.27,6.71,6.71,0,0,1-1.61,3.14,11.56,11.56,0,0,1-2.36,1.92,12.33,12.33,0,0,0-1.16.88,1.18,1.18,0,0,0-.44,1c0,.59.07.61.18.61a1.79,1.79,0,0,0,.47-.11l.34-.13.69-.3,1.18-.5a6.57,6.57,0,0,1,2.51-.54,5.56,5.56,0,0,1,1.29.15,3.84,3.84,0,0,1,3,2.69,1.18,1.18,0,0,1-.06,1,.72.72,0,0,1-.54.33.77.77,0,0,1-.49-.31.5.5,0,0,1-.1-.28l0-.09a1.87,1.87,0,0,0-.6-1.06,3.35,3.35,0,0,1,.69,2.23,1.41,1.41,0,0,1-1.47,1.37h-.1a.52.52,0,0,1-.55-.47,5.38,5.38,0,0,1,0-.58c0-.08,0-.16,0-.24s0-.21,0-.31a4.91,4.91,0,0,0,0-.64,1,1,0,0,0-.78-.89l-.1,0a.87.87,0,0,1,.34.35,4.1,4.1,0,0,1,.39.91,1.59,1.59,0,0,1-.58,1.85,2.51,2.51,0,0,1-1,.32,2.87,2.87,0,0,1-.41,0,6.5,6.5,0,0,1-1.49-.23l-.25-.06a4.57,4.57,0,0,0-2.26,0l-.15,0a39.11,39.11,0,0,1-7,.68Z"/><path class="cls-2" d="M85.18,71.41a8.79,8.79,0,0,1-10.08,1.9c-5.81-2.34-3.69-8.78-3.69-8.78s1,4,4,5.51C79.8,72.23,85.18,71.41,85.18,71.41Z"/><path class="cls-2" d="M66.78,73.31A4.84,4.84,0,0,1,67.86,76a13.19,13.19,0,0,0,2.3,5.19,9.91,9.91,0,0,0,4.42,3.3c1.58.61,3.61.43,3.31,2.78l-.53,2c-4,0-7.83-1.84-9.37-5.85-1.35-3.52.24-7.77-3.86-13.72C64.46,70.09,66.36,72.89,66.78,73.31Z"/><g class="cls-3"><path class="cls-4" d="M65.18,71.57c.06.25.12.5.17.76A.89.89,0,0,1,65.18,71.57Z"/></g><path class="cls-5" d="M18.11,86.94c-15.24-1.51-17-16.68-17-16.68a40.77,40.77,0,0,1,1.1-13.93C3.42,68.88,13.48,77.57,13.48,77.57S15.7,84.72,18.11,86.94Z"/><path class="cls-6" d="M14.31,81.16s-3.2.3-7.46-4.87c4.11,7.46,9.44,7.61,9.44,7.61Z"/><path class="cls-7" d="M22.54,89.87c-.8-14,7.44-7.52,11.69-15A24.15,24.15,0,0,1,39,64.28S13.51,59.5,13.11,78.1c.89,4,4.79,7.92,7.24,10-.48-1.08-6.57-17.83,13.71-16.47-7-.6-17.1,6.72-12.29,17.67C22.25,89.68,22.54,89.87,22.54,89.87Z"/><path class="cls-8" d="M29.44,69.64c-5.27,2-14.23,2-11.68,15.43-.41.31-2.44-2.85-1.94-2.55C13.48,70.49,24,71.19,29.44,69.64Z"/><path class="cls-9" d="M36.11,64.82c5.13-2,1,3.72.24,4.64-1.68,2.13-5.94,1.44-8.21,2.15-1.31.41-6.53,1.17-8.27,6.13a15.09,15.09,0,0,0,.58,10.15c-.41.31-3.1-2.65-2.59-2.34C13.53,66.21,33.94,73.15,36.11,64.82Z"/><path class="cls-10" d="M87.09,56.93a3.29,3.29,0,0,1,.68-1.16,2.15,2.15,0,0,1,.2.07,3.75,3.75,0,0,1,1.92-.28,3.93,3.93,0,0,1,1.29,0c.53.2.47.76.69,1.18.41.79,1.69.8,1.69,1.91a7.43,7.43,0,0,1,0,1.74c-.1.38-.53.26-.89.26-1.11,0-2.22,0-3.33,0L87.8,59.57c-.41.13-.73-.73-.79-1A3.4,3.4,0,0,1,87.09,56.93Z"/><path class="cls-11" d="M92.21,58.45a1.78,1.78,0,0,0,.58-.55c.08-.13.06-.21.24-.2.47,0,.47.65.45,1s-.2.8-.26,1.21c-.15,0-.24-.23-.41-.28a1.62,1.62,0,0,0-.47,0c-.21,0-.5.15-.68.07Z"/><path class="cls-12" d="M31.46,37.89l.11-.13a12.89,12.89,0,0,0,3.69-7A6.91,6.91,0,0,0,34.37,26l-.07-.08c-.16.49-.3,1-.47,1.46a10.69,10.69,0,0,1-1.71,3.29c-.32.39-13.61,7.75-12.24,24.06,0,.1,0,.2,0,.31.25-.23.46-.47.71-.66a8.44,8.44,0,0,1,3-1.43c2-.54,3.91-1,5.88-1.52a55.17,55.17,0,0,0,6.65-1.88,16.53,16.53,0,0,0,3.44-1.82,18.84,18.84,0,0,0,4.21-4,7.06,7.06,0,0,0,1.34-2.62,6.42,6.42,0,0,1-.2,3,7.45,7.45,0,0,1-1.52,2.65,2.5,2.5,0,0,0,.49-.16,14.06,14.06,0,0,0,4.83-4.25,7.78,7.78,0,0,0,1.41-4.06s0,0,0-.07a8.24,8.24,0,0,1-1.73,7.17c.73-.26,1.39-.52,2.07-.72a2.1,2.1,0,0,0,1.24-1,23.27,23.27,0,0,0,3.09-6.88A11.29,11.29,0,0,0,54.87,31a9.53,9.53,0,0,0-3.7-5.18,17.15,17.15,0,0,0-4.05-2.17l-.26-.1s0,0-.08-.08l1.39.38a18.55,18.55,0,0,1,5.78,2.69A8.74,8.74,0,0,1,57.3,31,9.48,9.48,0,0,1,57.4,36a20.08,20.08,0,0,1-3.11,6.75l-.13.19a.33.33,0,0,0,0,.06L54.3,43a23,23,0,0,0,7.61-6,20.36,20.36,0,0,0,4.18-8.44,11.91,11.91,0,0,0-2.66-10.63,19.65,19.65,0,0,0-5.87-4.68,27.26,27.26,0,0,0-9.18-3.06,16.46,16.46,0,0,0-5.53,0,7.86,7.86,0,0,0-2.79,1.11c.14-.12.28-.25.43-.36a8.12,8.12,0,0,1,3.39-1.41A19.25,19.25,0,0,1,50,9.4,27.27,27.27,0,0,1,59,12l.86.44c0-.26,0-.48,0-.71a.54.54,0,0,1,.47-.57.36.36,0,0,1,.46.32c0,.22.05.44.08.65a2.31,2.31,0,0,0,.64,1.27l.11.1s0,0,.12,0c0-.18,0-.34,0-.5,0-.33,0-.66,0-1,0-.08.06-.21.11-.23a.31.31,0,0,1,.27.08,1.8,1.8,0,0,1,.33.56c.13.43.19.88.32,1.3a2.61,2.61,0,0,0,.4.78c.19.25.39.19.46-.11s.09-.58.14-.87a1.81,1.81,0,0,1,.05-.3,1.13,1.13,0,0,1,.13-.22c.07.06.16.11.19.18a1.74,1.74,0,0,1,.14.53c0,.4,0,.79,0,1.19a1.55,1.55,0,0,0,.19.62c.11.2.3.18.36,0s.14-.66.2-1l.15-.72a1,1,0,0,1,.35.72c.07.65.1,1.3.16,1.94a2.71,2.71,0,0,0,.5,1.33c.52.76,1,1.55,1.45,2.35.24.41.46.44.69,0s.44-1,.66-1.48c.09-.22.17-.44.27-.65a2.27,2.27,0,0,1,.19-.3.62.62,0,0,1,.27.67c-.07.36-.21.71-.3,1.07a11.65,11.65,0,0,0-.27,1.18,1,1,0,0,0,.12.51c.1.23.27.25.44.08s.32-.4.49-.58a2.08,2.08,0,0,1,.35-.25c.07.15.2.3.19.44a3.16,3.16,0,0,1-.2.88c-.22.57-.52,1.1-.71,1.68a6.16,6.16,0,0,0-.21,1.31.39.39,0,0,0,.16.33.43.43,0,0,0,.34-.14c.36-.4.7-.82,1.06-1.23a2.56,2.56,0,0,1,.31-.26l.1.05a3.26,3.26,0,0,1-.11.7,6.59,6.59,0,0,1-.52,1c-.32.52-.69,1-1,1.51a9.5,9.5,0,0,0-1.27,3.07c-.18.79-.44,1.56-.67,2.33a1.24,1.24,0,0,0-.07.3c.2-.32.39-.64.6-1a5.67,5.67,0,0,1,1.6-1.71,5.35,5.35,0,0,1,1.07-.56,54.25,54.25,0,0,0,5.73-2.3,11.17,11.17,0,0,0,1.5-.94A1.59,1.59,0,0,0,79,24.16l-.38-1.56c-.31.5-.59,1-.9,1.43a3,3,0,0,1-1.28,1.09,1.77,1.77,0,0,1,.09-.18,11.26,11.26,0,0,0,1.64-3.71,1.12,1.12,0,0,0,0-.45,13.32,13.32,0,0,1,0-2.88,2.88,2.88,0,0,0,0-.58.33.33,0,0,0-.16-.23c-.05,0-.18,0-.23.11a4.62,4.62,0,0,0-.52.81c-.5,1.17-1,2.35-1.47,3.52a15.12,15.12,0,0,1-2.3,4.12A5.41,5.41,0,0,1,71.8,27a2.56,2.56,0,0,1-.4.16,5.25,5.25,0,0,0,1.27-3.7c.06-1.72,0-3.45,0-5.17a19.08,19.08,0,0,1,.73-5.51.37.37,0,0,0-.05-.25c-.16-.31-.35-.59-.49-.91-.27-.66-.5-1.34-.77-2-.16-.39-.21-.42-.63-.39a1.07,1.07,0,0,1-1-.55c-.18-.24-.26-.24-.39,0s-.25.63-.39.93c-.05.1-.18.17-.27.26-.07-.11-.19-.21-.2-.32,0-.37,0-.74-.06-1.11a2,2,0,0,0-.1-.54.33.33,0,0,0-.24-.18c-.06,0-.17.1-.2.19-.09.26-.15.54-.23.8s-.16.24-.29.06A11.45,11.45,0,0,0,64.7,5.89l-1.16-.72-.08,0c.05.43.1.86.15,1.28l-.1.05a2.82,2.82,0,0,1-.36-.31c-.26-.3-.49-.62-.75-.93a3.51,3.51,0,0,0-1.78-1.18l.57,2-.09,0a2.45,2.45,0,0,1-.19-.24c-.15-.24-.3-.49-.44-.74a3.53,3.53,0,0,0-2.71-1.87c-.82-.12-1.65-.2-2.47-.25a4.67,4.67,0,0,1-1.74-.4,12,12,0,0,0-1.21-.43.67.67,0,0,0-.24,0,.76.76,0,0,0,0,.26c.19.38.4.74.59,1.12a4.19,4.19,0,0,1,.17.43l-.06.06a3,3,0,0,1-.37-.13c-.53-.26-1.07-.5-1.59-.79a3.91,3.91,0,0,0-1.67-.37A13.91,13.91,0,0,0,44,3.27a7.64,7.64,0,0,0-2.86,1.52l.32,0a13.36,13.36,0,0,1,3.14-.38,4.32,4.32,0,0,1,2.07.51,1.22,1.22,0,0,1,.25.27,1.07,1.07,0,0,1-.43.13c-.33,0-.65-.16-1-.19a8.69,8.69,0,0,0-3.1.43,21.18,21.18,0,0,0-6.72,3.29c-.5.36-1,.69-1.55,1a8.09,8.09,0,0,0-2.49,2.49,2.05,2.05,0,0,0-.19.38.64.64,0,0,0,.31.86,3.48,3.48,0,0,0,.8.29,8.91,8.91,0,0,1,6.81,7.64,26,26,0,0,1,.28,4.22,13.38,13.38,0,0,1-3.5,8.52,18,18,0,0,1-4.49,3.55Z"/><path class="cls-13" d="M78.35,16.27C76.8,28.4,71.41,25.66,67.89,32.43c-.19-.26-.64,1.82.25-2s3.44-2.11,5.85-6.52C77,18.32,76.43,17.82,78.35,16.27Z"/><path class="cls-14" d="M62.26,16.49c-.58,3.47-5.49,3.32-9.69,1.84-4.57-1.6-14.06-2.12-14.82-.21-.38.44-1.15-1.36-1.15-1.36s7.21-7.86,19.27.44c-.49-.76,4.34-3,4.34-3S61.66,13.76,62.26,16.49Z"/><path class="cls-13" d="M37.26,49.85c.26.65,2.4.21,2.6-.8-3.15-3.57,5.14-10.12-2.5-18.67C42.35,43.57,31.7,44.11,37.26,49.85Z"/><path class="cls-9" d="M37.26,49.85c.26.65.22.46.41-.55-3.15-3.57,5.24-8.77-.32-18.92C42.35,43.57,31.7,44.11,37.26,49.85Z"/><path class="cls-15" d="M48.73,47.25C63.86,31.33,44.73,34,38.5,23.19c0-.19,0-.37,0-.56a9.21,9.21,0,0,0-1-4.17c5.83,8.65,20.62,1,17.75,18.71C55,38.08,53,47,48.73,47.25Z"/><path class="cls-16" d="M48.73,47.25c-6.23,3.06-11.67,3.15-11.42,2.24,12.38-8.4,2.39-17,.06-25.2.16-.66,1.15-.9,1.15-1.65,0-.08,0-.16,0-.24a2.71,2.71,0,0,0,1,1.5C45.28,29.7,63.56,31.64,48.73,47.25Z"/><path class="cls-17" d="M46.78,47c9.58-14.31-8.3-17-8.18-21.56-1.42,9.33,15.72,13.32-.39,24.49C38,50.84,40.55,50.07,46.78,47Z"/><path class="cls-18" d="M73.55,22.16c.76,1.27-.08,2.77-1,4.18s-2.79.87-4.13,4l.11-2.44c1.48-2.59-1-6.15-1.73-8.56-1.19-4.1-2.48-7.88-.91-12,.11-.28.2-.58.31-.87a9.65,9.65,0,0,1,2.06,2c.45.59.29-1.51.88-1.07.43.32,0,1.8.39,2.15s.74-1.87,1.07-1.37c.78,1.17,1.23.43,1.56.78s1,2.78,1.29,3.11.54.66.81,1a23,23,0,0,1-1.08,5.42A3.42,3.42,0,0,0,73.55,22.16Z"/><path class="cls-17" d="M52.25,3.46l.11,0c.42,0-1.13-2-.68-2,.75,0,1.81.78,2.55.83a13.33,13.33,0,0,1,4.54.71c1.32.6,1.9,2.48,2.2,2.56s-.72-2.17-.43-2.07a3.75,3.75,0,0,1,1.21.68c1.3,1.86,1.72,11.08-.19,10.85s3.16.71,3.18.63A11.25,11.25,0,0,0,62.8,5.42,1.79,1.79,0,0,0,63.4,6c.41.16-.26-1.57.12-1.34,1.19.73,2,1.24,2.73,1.76,0,0,0,.1.06.09.51-.21,3.67-1,1.27,10.4,3.65-7.39.79-10.29,1.07-10,1.3,1.4,1.56,4.82,1.73,6.85s-1,6.24-2.59,7.67c-1.09,1-1.07-.24-1.48-1.2a16.9,16.9,0,0,0-3-4.16,35.89,35.89,0,0,0-2.76-2.55c-1-.95-1.52-2.27-2.42-3.31S56.33,8.57,55.57,7.6s-1.42-2.32-2.36-3.32A7.9,7.9,0,0,0,52.25,3.46Z"/><path class="cls-19" d="M59.26,2.43c2.23,0,3.63,1.06,5.48,2.08,1.53.85,3.41.86,4.7,2a8.09,8.09,0,0,1,2.78,5.39,28.13,28.13,0,0,1-.08,8.5c-.25,1.33-1.19,4-2.19,5l-1.19-.76c-2.35-6.08-9.45-8.58-12.14-14.55a15.69,15.69,0,0,1-1.11-6C55.49,2.16,57.63,2.43,59.26,2.43Z"/><path class="cls-20" d="M37,17.62a9.27,9.27,0,0,0-5.77-4c-.61-.14-1.72-.52-.62-1.83A11.31,11.31,0,0,1,34.4,8.57c3.62-2.69,2.13-3,4.24-3.21.83-.1.61-.17,1,0s-.32-.12-.59-.29c-2.36-1.56-2.19,1.55-1.18.88,3-2.33,10-4,11.92-3.64.28,0,2.24,1.18,2.54,1.17s-1.13-2-.68-2c.75,0,1.81.78,2.55.83a7.66,7.66,0,0,1,6.11,7.82,22.21,22.21,0,0,1-.14,4C58.52,22.37,41.45,10.91,37,17.62Z"/><path class="cls-11" d="M57.48,12.59c-.79-1-5.93-2.77-5.93-2.77S43,6.88,35.14,15.26c4-3.19,11.1-1.85,16.21-1.26.68.08-1.46-.6-.9-.81,1.9-.7,3.66,1.27,5.55.89A1.61,1.61,0,0,0,57.48,12.59Z"/><path class="cls-20" d="M50.93,11.21c-3.14-.83-6.27.38-6.87.42.28-.43.75-1.41,3.07-1.75a20.06,20.06,0,0,1,2.16,0,5.15,5.15,0,0,1,2.51.67,6.4,6.4,0,0,0,2.37.49s4.81.36,3.21,2-3.91-2.1-9-.91A3.28,3.28,0,0,1,50.93,11.21Z"/><path class="cls-21" d="M46.18,4.45c-2-1.31-5.45-.19-5.9-.19,0,0,0-.1.1-.15,3-2.33,7.49-2.13,9.44-1.79l.06,0h0c.42.16,1.8.94,2.3,1.11,2.94,1.67,7.58,5.18,8,10.75A18.63,18.63,0,0,1,56.42,12c-.31-.24-7.33-7.58-25.92,1.24a.69.69,0,0,1-.22-.95C34.48,5.59,42.14,3.65,54.34,10,52.61,8,51.77,6.11,46.18,4.45Z"/><path class="cls-22" d="M58.06,42.35c6.88-7,9.69-12.3,6.36-18-5.4-9.18-22,.4-29.24-8.87a16.84,16.84,0,0,0,4,3.46c5.36,3.5,15.44,2.37,18.65,5.08C61.93,27.54,63,34.56,58.06,42.35Z"/><path class="cls-23" d="M35.64,27.64c0,.47,1.07,3.19.9,3.82-1.45,5.35-7.73,8-7.73,8s-7,2.83-8.16,15.78c-1.28.92-1.1-1-1.07-1.92C20.38,36.32,34.51,38.22,35.64,27.64Z"/><path class="cls-24" d="M59.58,55.69a2.48,2.48,0,0,0-.35-.16L57.37,55c-.2-.06-.38-.14-.57-.22,0,0,0-.08,0-.12a4.15,4.15,0,0,1,.66-.11c.89,0,1.77,0,2.66,0a12.61,12.61,0,0,0,3.72-.37,8.91,8.91,0,0,0,1.71-.75,26.87,26.87,0,0,0,12.18-13.9,25.15,25.15,0,0,0,1.17-3.82c0-.07,0-.15,0-.27l-.21.12A30,30,0,0,1,67.27,40.4a28.79,28.79,0,0,1-4.51.47.52.52,0,0,0-.33.12,28.14,28.14,0,0,1-7.83,5.44,28.62,28.62,0,0,1-7.24,2.31c-3.21.62-6.42,1.22-9.63,1.83a88.13,88.13,0,0,0-11.67,2.89,29.75,29.75,0,0,0-6.9,3.2,12.81,12.81,0,0,0-4.06,4c-.36.59-.61,1.24-.92,1.86a1.18,1.18,0,0,1-.2.31,8.67,8.67,0,0,0-2.63,7.54,15,15,0,0,0,2.13,6c.13.22.24.45.35.64.05-.47.1-1,.17-1.53A9.77,9.77,0,0,1,19.11,68a19.33,19.33,0,0,1,5.44-2c2.08-.46,4.19-.85,6.29-1.23a61.25,61.25,0,0,0,7.6-1.63c.48-.15,1-.33,1.43-.51a6.91,6.91,0,0,0,1.71-.92,24.76,24.76,0,0,1,5.72-3.08l.16-.07v0h-.09c-2.27,0-4.55,0-6.82,0a44.32,44.32,0,0,0-6.07.32,36.15,36.15,0,0,0-8.12,2.09,57.05,57.05,0,0,0-8.89,4.4.72.72,0,0,1-.26.11l.15-.13a41.54,41.54,0,0,1,10.1-5.8,30.93,30.93,0,0,1,7.9-1.92,40.45,40.45,0,0,1,7.19-.05l6.22.44a1.54,1.54,0,0,0,.55-.06,41.44,41.44,0,0,1,6.27-1.29c1.25-.18,2.49-.48,3.73-.72a1.47,1.47,0,0,0,.24-.09Z"/><path class="cls-8" d="M21.39,62.68c8.13-9.7,29.2-4.62,38.19-7-5.69,3.27-10.31,2.7-10.31,2.7S29.86,56.25,21.39,62.68Z"/><path class="cls-17" d="M83.51,25.85a5.26,5.26,0,0,0-.66.12,16.08,16.08,0,0,0-2.18.73,9.51,9.51,0,0,0-1.82,1.22c-1.1.89-2.15,1.84-3.23,2.74a7.05,7.05,0,0,1-4.06,2,8.37,8.37,0,0,0,3.12-3.39l-.12,0A37.93,37.93,0,0,0,68.17,33a4,4,0,0,0-1.24,1.49c-.48,1-1.08,1.93-1.63,2.89l-.12.2c.48-.1.9-.17,1.31-.27a23.74,23.74,0,0,0,5-2,64.46,64.46,0,0,0,7.15-4.37.84.84,0,0,1,.23-.12.6.6,0,0,1-.06.08,29,29,0,0,1-9.35,6.44,17,17,0,0,1-4.81,1.25.3.3,0,0,0-.18.07l-1.14,1.41c1-.22,2-.41,2.92-.63A41.13,41.13,0,0,0,74,36.91,18.07,18.07,0,0,0,79,33.69a15.71,15.71,0,0,0,4.22-6.59A11.06,11.06,0,0,0,83.51,25.85Z"/><path class="cls-9" d="M37.49,50.56c.79-.26,1.69-.59,2.65-1,11.3-3.52,15-6.46,15-6.46l11.36-8.41s1.85,1.42,4.26-.44c-1.64,2-6.66,3.49-6.66,3.49a4.59,4.59,0,0,1-1.87,2.75c4.47-1.52,12-1.08,17.19-5.77-3.94,11.14-13.73,2.65-23.18,9.58-1.09.66-15.51,4.34-8.35,4.09s11.89,4.64,17.88,3c-5.62,2-10.59-1.23-18.41-1.78A6.7,6.7,0,0,1,51,51.51c-2.84-2-8.39-2.12-9.71-1.66A34.71,34.71,0,0,0,37.49,50.56Z"/><path class="cls-6" d="M64.61,54c-8.24,3.27-37.35-6.21-50.42,8.5,0,0-1-.44,4.23-6.27C38.88,46.43,54.12,55.69,64.61,54Z"/><path class="cls-25" d="M77.35,41c2.44-1.37.46,2-2,4-9.6,6.7-13.93-.92-23.45,2.74C66.48,39.64,67.9,49.64,77.35,41Z"/><path class="cls-13" d="M76.6,42.86c2.44-1.37,1.2.08-1.23,2.06-9.6,6.7-13.93-.92-23.45,2.74C61.29,42.45,67.16,51.54,76.6,42.86Z"/><path class="cls-26" d="M29.23,39.27c-4.44,4.06-1,13-1,13l-3.16.68S21.93,44.3,29.23,39.27Z"/><path class="cls-27" d="M36.89,32.45c3.35,6-5.53,14.14-.76,17-.07.39-2.72,1.72-2.6,1.34-5.88-9,3.82-11.17,2.54-16.81-6.8,9.27-6.87,11.11-3.57,17,0,0-.4.51-.76.24C26.58,47.36,25.12,43,36.89,32.45Z"/><path class="cls-13" d="M47.83,44.55c.21,2.79,2.16-1.74,2.45-4.87.25-11.7-11.61-8.87-12.15-18.33C37,32.12,49.81,31.88,47.83,44.55Z"/><path class="cls-14" d="M59.33,39.91c.21,2.79,5.81-4.39,6.1-7.51-1.88-20.07-22.54-7.86-27.94-15.26C42,25.24,70.83,14,59.33,39.91Z"/><path class="cls-28" d="M97.12,79c-.3.27-.55.51-.83.72a4.45,4.45,0,0,1-.71.44,1.91,1.91,0,0,1-1.82,0,5.06,5.06,0,0,0-3-.43.75.75,0,0,0-.64.46,8.9,8.9,0,0,1-5,4.4.56.56,0,0,0-.41.49,5.13,5.13,0,0,0,0,2,4.07,4.07,0,0,0,1.85,2.47,10,10,0,0,0,3.12,1.28,16.56,16.56,0,0,0,4,.54,7.08,7.08,0,0,0,2.05-.28,3.77,3.77,0,0,0,2.75-3,25.19,25.19,0,0,0,.53-3,7.8,7.8,0,0,0-1.89-6.08Z"/><path class="cls-29" d="M92.81,79.16c.11.68,1.4.87,2,.85a3.29,3.29,0,0,0,2.41-1.44,2.56,2.56,0,0,0,.27-.39,3.92,3.92,0,0,1,1.67,3.55C98.84,84,96,85.54,92.81,85.09A6.38,6.38,0,0,1,88,82.17c.58-.74.81-1.69,1.58-2.33A5.22,5.22,0,0,1,92.81,79.16Z"/><path class="cls-30" d="M15.41,57.44a2,2,0,0,0,1.6.26,33.24,33.24,0,0,1-.66-7.56A20,20,0,0,1,18.16,42a6.49,6.49,0,0,1,.55-.94,1.13,1.13,0,0,1,0,.15,16.36,16.36,0,0,0-1.07,5.19,30,30,0,0,0,.77,8.23c0,.07,0,.13.06.23.39-.26.77-.52,1.15-.78,0,0,0-.15,0-.23a22.18,22.18,0,0,1,0-4.93,27.92,27.92,0,0,1,1.66-6.82,37.29,37.29,0,0,1,4.62-8.61l.13-.19a.4.4,0,0,0,0-.08l-.8.28a41.31,41.31,0,0,0-5.13,2.22,3.68,3.68,0,0,0-.73.5,13.63,13.63,0,0,0-4.33,7.7c-.09.45-.16.91-.28,1.36,0-.5,0-1,.08-1.51a28,28,0,0,1,1.46-7,3.1,3.1,0,0,0,0-1.63,1.93,1.93,0,0,0-.22-.48,2.31,2.31,0,0,0-.38.38,13.39,13.39,0,0,0-1.44,3.4A38.47,38.47,0,0,0,13.14,44a37.15,37.15,0,0,0-.39,5.28,16.07,16.07,0,0,0,.74,5.27,7.16,7.16,0,0,0,1.21,2.24c.19.24.44.44.66.66Z"/><path class="cls-6" d="M23.52,33.3s-4.45.63-6.32,3.68-2.42,8.31-2.42,8.31-1,7.84,2.22,12.4C15,41,23.52,33.3,23.52,33.3Z"/><path class="cls-31" d="M15.41,57.44h0a5.1,5.1,0,0,1-2.22-1.75,9.19,9.19,0,0,1-1.58-3.8,21.79,21.79,0,0,1-.27-6.16c.1-1.18.27-2.35.42-3.52,0,0,0-.08,0-.17l-.16.14A34.25,34.25,0,0,0,3.92,54.38a.7.7,0,0,0,0,.41,38.83,38.83,0,0,0,4.22,9c.75,1.19,1.57,2.34,2.36,3.51.06.09.13.17.25.32,0-.59.34-1.06.1-1.64a5.25,5.25,0,0,1-.47-2.32,1.49,1.49,0,0,1,.3-.86,3.79,3.79,0,0,0,.83,1.61.81.81,0,0,0,.08-.71,7.82,7.82,0,0,1-.48-3,4.67,4.67,0,0,1,.17-.93,6.2,6.2,0,0,0,1.27,2,.89.89,0,0,0,.08-.11,17.46,17.46,0,0,1,2.71-4C15.39,57.63,15.39,57.52,15.41,57.44Z"/><path class="cls-6" d="M12,61.36S7,51.58,9.31,43.17c.29-.23-.47.36-1.37,1.4-.14.16-1.81,11.25,1.59,16.15C5,55.3,7.12,45.6,6.92,45.89a8.68,8.68,0,0,0-1,2A18.48,18.48,0,0,0,11.65,65.4Z"/><path class="cls-1" d="M88.48,96.59c-.21.31-.44.63-.63,1a1.27,1.27,0,0,0-.1,1,.73.73,0,0,0,.9.54,9.35,9.35,0,0,1,1.1-.12c.39,0,.42,0,.47.42a1.05,1.05,0,0,0,.06.3,1,1,0,0,0,.81.76,1,1,0,0,0,1-.51A1.54,1.54,0,0,0,91,97.55a7.27,7.27,0,0,0-1.13,0l-.22,0-.06-.07a1.51,1.51,0,0,1,.31-.35,1.43,1.43,0,0,1,.9-.18,7.92,7.92,0,0,0,5.71-1.23,7.19,7.19,0,0,0,2.21-2.6v0c.07-.19.21-.42,0-.56a.67.67,0,0,0-.52,0c-.76.25-1.5.57-2.27.78a10.78,10.78,0,0,1-3.45.26,15.25,15.25,0,0,1-4.58-.89A13.27,13.27,0,0,1,83.45,90a3.77,3.77,0,0,0-.47-.39c-.28-.19-.48-.1-.49.25a2.89,2.89,0,0,0,.07.73,7.64,7.64,0,0,0,4.19,5.24C87.32,96.15,87.93,96.36,88.48,96.59Z"/><path class="cls-32" d="M2.43,51.6A32.09,32.09,0,0,0,11,74.32c-.08-.59-.19-1.18-.24-1.77-.08-1-.14-2-.19-3a1,1,0,0,0-.18-.53,64.76,64.76,0,0,1-5.79-9.92,24.5,24.5,0,0,1-1.88-5.52C2.59,52.91,2.53,52.28,2.43,51.6Z"/><path class="cls-33" d="M73.75,22.92a18,18,0,0,0,2.51-5.6,4.38,4.38,0,0,0,0-1.06A15.08,15.08,0,0,1,77,10.47a1.55,1.55,0,0,0,.12-.51A.71.71,0,0,0,77,9.54c-.12-.14-.28-.09-.44,0a3.15,3.15,0,0,0-1.14,1.17,9.39,9.39,0,0,0-1.11,3.11,38.18,38.18,0,0,0-.57,9A1.11,1.11,0,0,0,73.75,22.92Z"/><path class="cls-34" d="M74.37,11.4a7.09,7.09,0,0,1,1.29-1.54l.71-.45a15,15,0,0,0-1,5.59c0,1.63.5,3.14.58,4.75.06,1.33-.52,2-1.21,3.09-.31.49-.74,1.55-1.42,1.55a7.17,7.17,0,0,1-.27-2.56c0-1-.17-2-.13-2.95A40.64,40.64,0,0,1,74.37,11.4Z"/><path class="cls-1" d="M98.71,89.34l0,0a4.29,4.29,0,0,1-3.79,2.41A15.39,15.39,0,0,1,87,90.37a4.74,4.74,0,0,1-2.45-2.26,12.2,12.2,0,0,1-.49-1.49,1.34,1.34,0,0,0-1.23,1.11,1.19,1.19,0,0,0,.15.57A5.18,5.18,0,0,0,84.53,90a13.08,13.08,0,0,0,5.23,2.5,14.1,14.1,0,0,0,7.53-.13,9.69,9.69,0,0,0,1.7-.77,1,1,0,0,0,.58-1.12A1.4,1.4,0,0,0,98.71,89.34Z"/><path class="cls-35" d="M98.71,89.34l0,0a4.29,4.29,0,0,1-3.79,2.41A15.39,15.39,0,0,1,87,90.37a4.74,4.74,0,0,1-2.45-2.26,12.2,12.2,0,0,1-.49-1.49,1.34,1.34,0,0,0-1.23,1.11,1.19,1.19,0,0,0,.15.57A5.18,5.18,0,0,0,84.53,90a13.08,13.08,0,0,0,5.23,2.5,14.1,14.1,0,0,0,7.53-.13,9.69,9.69,0,0,0,1.7-.77,1,1,0,0,0,.58-1.12A1.4,1.4,0,0,0,98.71,89.34Z"/><path class="cls-36" d="M71.31,64.25A6,6,0,0,0,71.91,67a7.52,7.52,0,0,0,4,3.65,10.65,10.65,0,0,0,4.81.79l.11,0a14.89,14.89,0,0,1-3.29-.89,11.08,11.08,0,0,1-4.65-3.28,8.84,8.84,0,0,1-1.51-2.73C71.38,64.43,71.34,64.34,71.31,64.25Z"/><path class="cls-36" d="M84.87,50.27a3.63,3.63,0,0,0,1-5.12A7.67,7.67,0,0,1,84.87,50.27Z"/><path class="cls-36" d="M87.81,60.33a4.45,4.45,0,0,0,3,.89c.44,0,.87-.08,1.31-.1a2.8,2.8,0,0,1,.72.06c.44.1.64,0,.79-.39a6.67,6.67,0,0,0,.39-3,5,5,0,0,0-.35-1.44,3.43,3.43,0,0,0-4.78-1.54,4.38,4.38,0,0,0-.62.43c-.21.17-.4.36-.61.57.1.11.18.22.27.31a.77.77,0,0,1,.22.74,1.63,1.63,0,0,0,.93,1.92,10.23,10.23,0,0,0,1.68.69,7.05,7.05,0,0,0,.91.24.29.29,0,0,0,.21-.08,2.48,2.48,0,0,0,1-1.2,2.27,2.27,0,0,1,0,1.18,1.71,1.71,0,0,0,.1,1l0,0-.16-.09a4.68,4.68,0,0,0-1.93-.56,5.28,5.28,0,0,1-2.36-.78,3,3,0,0,1-1.36-2.42s0-.06,0-.15A2.7,2.7,0,0,0,87.81,60.33Z"/><path class="cls-11" d="M96.56,85.79a.69.69,0,0,0,.95-.22,4.69,4.69,0,0,0-.05-4.37.69.69,0,0,0-1.22.63,3.32,3.32,0,0,1,.1,3A.7.7,0,0,0,96.56,85.79Z"/><path class="cls-2" d="M22.58,89.76c-.43-12.32,7.17-8.31,10.54-13.51a3.82,3.82,0,0,0,.56-1C29.89,77.37,19.26,76,22.58,89.76Z"/><path class="cls-6" d="M16.79,65.75c10.43-9,31-8,32.53-7.87C40.69,64,14.77,58.24,13.82,77A10.1,10.1,0,0,1,16.79,65.75Z"/><path class="cls-2" d="M33.47,75.77s0,2.72,0,4.65-2.42.87-3.35-1.76A6.82,6.82,0,0,0,33.47,75.77Z"/><path class="cls-2" d="M32.17,76.68a5.08,5.08,0,0,0-.33-5.86c1-.05,2.9-1.91,3.35-2.53A6.62,6.62,0,0,0,36,64.75c1.41-.06,2.4-.93,3.68-1.23a14.14,14.14,0,0,0-3.23,3.6A28.16,28.16,0,0,0,35,71.05a28.7,28.7,0,0,0-.82,3.22A11.29,11.29,0,0,0,33.62,77s-.18,7.17,1.26,10.71a8.83,8.83,0,0,1-4.65-4c-.56-1-1.62-3.39-.31-4.93A5,5,0,0,0,32.17,76.68Z"/><path class="cls-36" d="M6.67,86A36.45,36.45,0,0,0,28.6,100.51a40,40,0,0,0,9.24.88c7.62,0,15.23,0,22.85,0H76.06a10.88,10.88,0,0,0,3.6-.49,4,4,0,0,0,2.52-2.23,4.1,4.1,0,0,0-1.42-4.81,5.7,5.7,0,0,0-3.74-1c-.36,0-.73.07-1.09.11a.78.78,0,0,1-.25,0,2.46,2.46,0,0,1-.34-.12,1.25,1.25,0,0,1,.19-.28,8.49,8.49,0,0,0,2.81-4.42,5.66,5.66,0,0,0,.16-2c0-.05,0-.1,0-.15,0-.34.1-.45.44-.46,1,0,2-.08,3-.16.48,0,.94-.15,1.48-.19-.06.08-.11.2-.19.24a2.86,2.86,0,0,0-1.57,1.79,8.55,8.55,0,0,0-.48,3,7.05,7.05,0,0,0,1.75,4.31,10.2,10.2,0,0,0,3.4,2.6c.17.08.21.15.15.34a2.53,2.53,0,0,0,0,1.62,1.32,1.32,0,0,0,.63.74,2.5,2.5,0,0,0,2.22.12c0,.11,0,.23.06.33.22.82.74,1.15,1.54,1.63h.56s0-.06.07-.06a2.31,2.31,0,0,0,1.83-2.74c0-.31-.13-.62-.19-.91.64-.17,1.29-.3,1.92-.52a8.3,8.3,0,0,0,5.62-5.94,3,3,0,0,0-.8-3.14.4.4,0,0,1,0-.29c.18-1.12.46-2.24.53-3.37a9,9,0,0,0-2.54-7,.34.34,0,0,1-.09-.35c.12-.6.26-1.2.34-1.81A3.79,3.79,0,0,0,97,72.63a.85.85,0,0,1-.19-.26,2.5,2.5,0,0,0-1.33-1.46,6.31,6.31,0,0,0-4-.53,9.73,9.73,0,0,0-2.54.92.84.84,0,0,1-1,0c-.06,0-.15-.06-.2-.11s-.25-.21-.23-.28a.48.48,0,0,1,.27-.28,5.34,5.34,0,0,1,2-.39,13.22,13.22,0,0,0,1.54-.08,11.47,11.47,0,0,0,4.52-1.62.88.88,0,0,1,.3-.12,4.32,4.32,0,0,0,3.58-3.5,1.46,1.46,0,0,1,.12-.54,4.11,4.11,0,0,0,.39-3.74c-.28-.82-.67-1.6-1-2.41a5.19,5.19,0,0,1-.38-1.33,20.82,20.82,0,0,0-.62-3.79,12.93,12.93,0,0,0-11.52-9.8.5.5,0,0,1-.48-.34,5,5,0,0,0-3-2.82,1.43,1.43,0,0,0-1.09,0,9,9,0,0,0-1.44.77,10.67,10.67,0,0,0-2.85,3.06c-.06.09-.13.21-.22.24a.51.51,0,0,1-.39,0c-.07,0-.09-.24-.06-.36a1.25,1.25,0,0,1,.21-.37,23.71,23.71,0,0,0,3.91-9.67.67.67,0,0,1,.18-.31c.5-.51,1-1,1.51-1.51A6.07,6.07,0,0,0,84.55,29a5.38,5.38,0,0,0,.12-.87c0-.09-.08-.18-.12-.27s-.22.09-.28.17-.23.4-.35.58-.19.23-.29.35a.18.18,0,0,1,0-.15,17.16,17.16,0,0,0,1.08-4.18c0-.4.08-.81.09-1.21s-.19-.48-.38-.4a.91.91,0,0,0-.28.21,12.65,12.65,0,0,1-2.67,1.91s0,0,0-.06-.05-.28-.07-.42a32.46,32.46,0,0,0-1.2-4.89A8.05,8.05,0,0,1,79.75,16a2.88,2.88,0,0,1,1.06-2,1.25,1.25,0,0,0,.14-.16.84.84,0,0,0-.18-.09,2,2,0,0,0-2.45,1c-.06.12-.14.23-.25.41a3,3,0,0,1-.27-.56,8.44,8.44,0,0,1-.15-2.6,8.79,8.79,0,0,1,1-3,5.13,5.13,0,0,0,.31-.77.6.6,0,0,0-.63-.83,2.26,2.26,0,0,0-.74.13A5.12,5.12,0,0,0,74.74,10l-.15.3a4.35,4.35,0,0,1-1.18-1.59,9.42,9.42,0,0,0-.56-1.19c-.15-.28-.26-.27-.44,0,0,.07-.09.14-.15.21s-.25.17-.35,0a3.23,3.23,0,0,1-.24-.53A4.91,4.91,0,0,0,70.11,5l-.22-.14c0,.28.08.49.1.7s.06.44.08.67H70l-.21-.14a28.11,28.11,0,0,0-9.58-4.24A9.78,9.78,0,0,1,57.08.92L57,.89a.39.39,0,0,0-.47.11.58.58,0,0,1-.39.13c-.42,0-.84-.1-1.26-.14A7.34,7.34,0,0,1,53.73.78C53.09.62,52.47,0,51.85,0h-.46c-.15,0-.32.42-.44.57s-.46.56-.79.58a35.38,35.38,0,0,0-6.38,1,25.48,25.48,0,0,0-8.88,4,16.29,16.29,0,0,0-4.84,5.22,13.18,13.18,0,0,0-.63,1.35,1.54,1.54,0,0,0-.06,1.09.56.56,0,0,0,.64.42,6,6,0,0,1,4.61,1.36,8.31,8.31,0,0,1,3,3.85,5.85,5.85,0,0,1-1.24,6.31c-.17.19-.35.36-.56.56-.08-.28-.14-.54-.21-.8A8.51,8.51,0,0,0,33.8,22c-.52-.58-1.37-.91-.59-.88s-.26,0-.35,0c.9.62.21,1,.34,2a6.7,6.7,0,0,1-1.94,5.74,1,1,0,0,1-.37.21c-1.63.58-3.27,1.13-4.89,1.73a49.56,49.56,0,0,0-8.34,4l-.11.06a.73.73,0,0,1-.34-.67c0-.36.07-.72.12-1.08,0,0,0-.08,0-.12.09-.64-.16-.84-.75-.56a2.47,2.47,0,0,0-.77.63,10.35,10.35,0,0,0-1.49,2.72c-.21.51-.38,1-.6,1.53a1.35,1.35,0,0,1-.35.5,40.21,40.21,0,0,0-6.24,6.46,35.89,35.89,0,0,0-4,6.63l-.09.18L3,51.12a23,23,0,0,1-.22-6.19c-.17.62-.35,1.23-.49,1.85a25.48,25.48,0,0,0-.6,7.6,1.12,1.12,0,0,1-.06.4A34.93,34.93,0,0,0,6.67,86ZM4.59,59.05A64.76,64.76,0,0,0,10.38,69a1,1,0,0,1,.18.53c0,1,.1,2,.19,3,0,.59.16,1.19.24,1.77A32.09,32.09,0,0,1,2.43,51.6c.1.68.16,1.31.28,1.93A24.5,24.5,0,0,0,4.59,59.05ZM26.05,33.24a.4.4,0,0,1,0,.08l-.13.19a37.31,37.31,0,0,0-4.62,8.61,27.94,27.94,0,0,0-1.66,6.82,22.18,22.18,0,0,0,0,4.93c0,.08,0,.2,0,.23-.37.27-.76.52-1.15.78,0-.1,0-.16-.06-.23a29.9,29.9,0,0,1-.77-8.23,16.43,16.43,0,0,1,1.07-5.19,1.34,1.34,0,0,0,0-.15,6.65,6.65,0,0,0-.55.94,20,20,0,0,0-1.82,8.1A33.25,33.25,0,0,0,17,57.7a2,2,0,0,1-1.6-.26c0,.08,0,.19-.07.24a17.55,17.55,0,0,0-2.71,4,1.06,1.06,0,0,1-.08.11,6.25,6.25,0,0,1-1.27-2,4.63,4.63,0,0,0-.17.93,7.82,7.82,0,0,0,.48,3,.81.81,0,0,1-.08.71,3.79,3.79,0,0,1-.83-1.61,1.5,1.5,0,0,0-.3.86A5.25,5.25,0,0,0,10.86,66c.24.57-.07,1.05-.1,1.64-.11-.15-.19-.23-.25-.32C9.72,66.14,8.9,65,8.15,63.8a38.85,38.85,0,0,1-4.22-9,.7.7,0,0,1,0-.41,34.22,34.22,0,0,1,7.63-12.19l.16-.14c0,.08,0,.13,0,.17-.14,1.17-.31,2.35-.42,3.52a21.71,21.71,0,0,0,.27,6.16,9.23,9.23,0,0,0,1.58,3.8,5.11,5.11,0,0,0,2.22,1.75,9.31,9.31,0,0,1-.66-.66,7.16,7.16,0,0,1-1.21-2.24,16,16,0,0,1-.74-5.27A36.42,36.42,0,0,1,13.15,44a38.55,38.55,0,0,1,1.12-5.55A13.35,13.35,0,0,1,15.7,35a2.39,2.39,0,0,1,.38-.38,2.08,2.08,0,0,1,.22.48,3.09,3.09,0,0,1,0,1.63,28,28,0,0,0-1.46,7c0,.5-.06,1-.08,1.51.13-.45.19-.91.28-1.36a13.61,13.61,0,0,1,4.33-7.7,3.64,3.64,0,0,1,.73-.5,41.61,41.61,0,0,1,5.13-2.22ZM77.14,10a1.53,1.53,0,0,1-.12.51,15,15,0,0,0-.73,5.79,4.48,4.48,0,0,1,0,1.06,18,18,0,0,1-2.51,5.6,1,1,0,0,1,0-.1,38.29,38.29,0,0,1,.57-9,9.43,9.43,0,0,1,1.11-3.11,3.17,3.17,0,0,1,1.14-1.17c.15-.09.32-.14.44,0A.73.73,0,0,1,77.14,10Zm1.25,16a11.26,11.26,0,0,1-1.5.93,54.81,54.81,0,0,1-5.73,2.3,5.35,5.35,0,0,0-1.07.56,5.65,5.65,0,0,0-1.6,1.72c-.21.31-.4.64-.6,1a1.43,1.43,0,0,1,.07-.3c.23-.78.49-1.55.67-2.33a9.5,9.5,0,0,1,1.27-3.07c.33-.51.7-1,1-1.51a6.41,6.41,0,0,0,.52-1,3.24,3.24,0,0,0,.11-.7l-.1,0a2.56,2.56,0,0,0-.31.26c-.35.41-.7.83-1.06,1.23a.42.42,0,0,1-.34.14.39.39,0,0,1-.16-.33,6.16,6.16,0,0,1,.21-1.31c.19-.57.49-1.11.71-1.68a3.15,3.15,0,0,0,.2-.88c0-.14-.12-.29-.19-.44a2.08,2.08,0,0,0-.35.25c-.17.18-.31.4-.49.58s-.34.15-.44-.08a1,1,0,0,1-.12-.51,11.88,11.88,0,0,1,.27-1.18c.09-.36.23-.71.3-1.07a.62.62,0,0,0-.27-.67,2,2,0,0,0-.19.3c-.1.21-.18.44-.27.65-.22.49-.4,1-.66,1.48s-.44.38-.69,0c-.47-.79-.93-1.59-1.45-2.35a2.71,2.71,0,0,1-.5-1.33c-.06-.65-.09-1.3-.16-1.94a1,1,0,0,0-.35-.72l-.15.72c-.06.33-.11.67-.2,1s-.25.25-.36,0a1.52,1.52,0,0,1-.19-.61c0-.4,0-.79,0-1.19a1.71,1.71,0,0,0-.14-.53c0-.07-.13-.12-.19-.18a1.1,1.1,0,0,0-.13.22,1.83,1.83,0,0,0-.05.3c0,.29-.07.59-.14.88s-.27.36-.46.11a2.61,2.61,0,0,1-.4-.77c-.14-.43-.19-.87-.32-1.3a1.87,1.87,0,0,0-.33-.56.3.3,0,0,0-.27-.08c-.06,0-.11.15-.11.23,0,.33,0,.66,0,1,0,.16,0,.33,0,.5l-.12,0-.11-.1a2.31,2.31,0,0,1-.64-1.27c0-.22,0-.44-.08-.65a.36.36,0,0,0-.46-.32c-.27,0-.44.23-.47.57s0,.45,0,.71L59,12.06a27.24,27.24,0,0,0-9-2.65,19.22,19.22,0,0,0-6.08.17A8.14,8.14,0,0,0,40.49,11c-.15.11-.28.24-.43.36a7.84,7.84,0,0,1,2.79-1.11,16.51,16.51,0,0,1,5.53,0,27.18,27.18,0,0,1,9.18,3.06,19.64,19.64,0,0,1,5.87,4.68c.12.15.24.3.35.45-3.34-1.59-7.1,1.4-10.87.07,5.16,2.66,8.22-.77,11.13,1.45.74.56.87,2-.82,1.77s2.43.57,3.16,4.78a13.54,13.54,0,0,1-.3,2.1A20.33,20.33,0,0,1,61.92,37a23,23,0,0,1-7.61,6l-.15,0a.34.34,0,0,1,0-.06l.13-.19a20,20,0,0,0,3.11-6.75A9.46,9.46,0,0,0,57.3,31a8.75,8.75,0,0,0-3.35-4.43,18.58,18.58,0,0,0-5.78-2.69l-1.39-.38.08.08.26.1a17.08,17.08,0,0,1,4.05,2.17A9.51,9.51,0,0,1,54.86,31a11.32,11.32,0,0,1-.06,5.76,23.23,23.23,0,0,1-3.09,6.88,2.12,2.12,0,0,1-1.24,1c-.67.2-1.34.46-2.07.72a8.23,8.23,0,0,0,1.73-7.17.73.73,0,0,0,0,.07,7.78,7.78,0,0,1-1.41,4.06,14.07,14.07,0,0,1-4.83,4.25,2.57,2.57,0,0,1-.49.16,7.35,7.35,0,0,0,1.52-2.65,6.43,6.43,0,0,0,.2-3,7.05,7.05,0,0,1-1.34,2.62,18.75,18.75,0,0,1-4.21,4,16.45,16.45,0,0,1-3.44,1.82,54.78,54.78,0,0,1-6.65,1.88c-2,.48-3.93,1-5.88,1.52a8.43,8.43,0,0,0-3,1.43,8.71,8.71,0,0,1-.47-2.58C20,40.1,29.3,33.88,32.13,30.62a9.87,9.87,0,0,0,1.71-3.29c.17-.48.31-1,.47-1.46l.07.08a6.94,6.94,0,0,1,.9,4.82,12.9,12.9,0,0,1-3.69,7l-.11.13.17-.09a18,18,0,0,0,4.49-3.55,13.38,13.38,0,0,0,3.5-8.52,26.13,26.13,0,0,0-.28-4.22,8.91,8.91,0,0,0-6.81-7.64,3.52,3.52,0,0,1-.8-.29.64.64,0,0,1-.32-.86,2,2,0,0,1,.19-.38A8.12,8.12,0,0,1,34.1,9.84c.52-.33,1-.66,1.54-1a21.15,21.15,0,0,1,6.72-3.29,8.79,8.79,0,0,1,3.1-.43c.33,0,.66.15,1,.19a1.18,1.18,0,0,0,.43-.12,1.2,1.2,0,0,0-.25-.27,4.34,4.34,0,0,0-2.07-.51,13.45,13.45,0,0,0-3.14.38,2.82,2.82,0,0,1-.32,0A7.63,7.63,0,0,1,44,3.28a13.87,13.87,0,0,1,5.24-.49,3.89,3.89,0,0,1,1.67.37c.51.29,1.05.53,1.59.79a3,3,0,0,0,.37.13L52.88,4a4.21,4.21,0,0,0-.17-.43c-.19-.38-.4-.74-.59-1.12a.73.73,0,0,1,0-.26.7.7,0,0,1,.24,0,11.07,11.07,0,0,1,1.21.44,4.68,4.68,0,0,0,1.74.4c.82.06,1.65.13,2.47.25a3.53,3.53,0,0,1,2.71,1.87c.14.25.29.5.44.74a2.33,2.33,0,0,0,.19.24l.09,0-.57-2A3.49,3.49,0,0,1,62.4,5.32c.26.3.49.63.75.93a3.2,3.2,0,0,0,.36.31l.1-.05c-.05-.43-.1-.85-.15-1.28l.08,0,1.16.72a11.5,11.5,0,0,1,3.48,2.95c.13.17.22.15.29-.06s.14-.54.23-.8c0-.08.14-.19.2-.19a.33.33,0,0,1,.24.18,2,2,0,0,1,.1.54c0,.37,0,.74.06,1.11,0,.11.13.22.2.32.09-.08.23-.15.27-.26.15-.3.26-.62.39-.93s.2-.29.38,0a1.07,1.07,0,0,0,1,.55c.42,0,.47,0,.63.39.27.67.49,1.35.77,2,.13.32.33.6.49.91a.38.38,0,0,1,.05.25,19.07,19.07,0,0,0-.73,5.51c0,1.73,0,3.45,0,5.17a5.25,5.25,0,0,1-1.28,3.7,2.55,2.55,0,0,0,.4-.16,5.38,5.38,0,0,0,1.64-1.37,15.18,15.18,0,0,0,2.3-4.12c.48-1.18,1-2.35,1.47-3.52a4.68,4.68,0,0,1,.52-.81c0-.06.18-.13.23-.11a.33.33,0,0,1,.16.23,3.21,3.21,0,0,1,0,.58,13.32,13.32,0,0,0,0,2.89,1.12,1.12,0,0,1,0,.45A11.2,11.2,0,0,1,76.56,25s0,.08-.09.18A3,3,0,0,0,77.75,24c.32-.45.59-.93.9-1.43L79,24.18A1.61,1.61,0,0,1,78.39,26ZM79,33.69A18.16,18.16,0,0,1,74,36.91a41.13,41.13,0,0,1-7.76,2.53c-.95.22-1.91.41-2.92.63.41-.51.77-1,1.14-1.41a.3.3,0,0,1,.18-.07,17.08,17.08,0,0,0,4.81-1.25,29,29,0,0,0,9.35-6.44l.06-.08a.81.81,0,0,0-.23.12,65,65,0,0,1-7.15,4.37,23.74,23.74,0,0,1-5,2c-.41.1-.83.18-1.31.27l.12-.2c.55-1,1.15-1.89,1.63-2.89A4,4,0,0,1,68.17,33a37.85,37.85,0,0,1,6.39-3.76l.12,0a8.38,8.38,0,0,1-3.12,3.39,7.05,7.05,0,0,0,4.06-2c1.08-.9,2.13-1.85,3.23-2.74a9.65,9.65,0,0,1,1.82-1.22A15.59,15.59,0,0,1,82.85,26a5.15,5.15,0,0,1,.66-.12,11.19,11.19,0,0,1-.25,1.25A15.71,15.71,0,0,1,79,33.69ZM65.56,53.46a8.91,8.91,0,0,1-1.71.75,12.61,12.61,0,0,1-3.72.37c-.89,0-1.78,0-2.66,0a4.1,4.1,0,0,0-.66.11s0,.08,0,.12c.19.07.38.16.57.22l1.85.51a2.64,2.64,0,0,1,.35.16v.07a1.65,1.65,0,0,1-.24.1c-1.24.25-2.47.55-3.73.72a41.46,41.46,0,0,0-6.27,1.29,1.59,1.59,0,0,1-.55.07l-6.22-.45a40.35,40.35,0,0,0-7.19.05,30.81,30.81,0,0,0-7.9,1.92,41.56,41.56,0,0,0-10.1,5.8l-.15.13a.76.76,0,0,0,.26-.11,56.88,56.88,0,0,1,8.89-4.4,36.15,36.15,0,0,1,8.12-2.09,44,44,0,0,1,6.07-.32c2.27,0,4.55,0,6.82,0h.09v0l-.16.07a24.73,24.73,0,0,0-5.72,3.08,6.93,6.93,0,0,1-1.71.92c-.47.18-.95.35-1.43.51a61,61,0,0,1-7.6,1.63c-2.1.38-4.2.77-6.29,1.23a19.37,19.37,0,0,0-5.44,2A9.78,9.78,0,0,0,14,75.47c-.07.52-.12,1.06-.17,1.53-.1-.19-.21-.42-.34-.64a15,15,0,0,1-2.13-6A8.68,8.68,0,0,1,14,62.8a1.15,1.15,0,0,0,.2-.31c.31-.62.56-1.27.91-1.86a12.82,12.82,0,0,1,4.06-4,29.76,29.76,0,0,1,6.9-3.2,88.2,88.2,0,0,1,11.67-2.89c3.21-.62,6.42-1.21,9.63-1.83A28.76,28.76,0,0,0,62.42,41a.52.52,0,0,1,.33-.12,28.64,28.64,0,0,0,4.51-.47,30,30,0,0,0,11.48-4.81l.21-.12c0,.13,0,.2,0,.27a25.16,25.16,0,0,1-1.17,3.82A26.86,26.86,0,0,1,65.56,53.46ZM99.08,85.19a25.61,25.61,0,0,1-.53,3,3.77,3.77,0,0,1-2.75,3,7.11,7.11,0,0,1-2.05.28,16.61,16.61,0,0,1-4-.54,10,10,0,0,1-3.12-1.28,4.07,4.07,0,0,1-1.85-2.47,5.13,5.13,0,0,1,0-2,.55.55,0,0,1,.41-.49,8.88,8.88,0,0,0,5-4.4.74.74,0,0,1,.64-.46,5,5,0,0,1,3,.43,1.91,1.91,0,0,0,1.82,0,4.31,4.31,0,0,0,.71-.44c.27-.21.52-.45.83-.72a.87.87,0,0,0,.07.12A7.81,7.81,0,0,1,99.08,85.19ZM83,89.64a3.65,3.65,0,0,1,.47.39,13.27,13.27,0,0,0,4.45,2.71,15.26,15.26,0,0,0,4.58.89,10.83,10.83,0,0,0,3.45-.26c.77-.21,1.51-.53,2.27-.78a.68.68,0,0,1,.52,0c.19.14,0,.37,0,.56v0a7.19,7.19,0,0,1-2.21,2.6A7.92,7.92,0,0,1,90.77,97a1.42,1.42,0,0,0-.9.18c-.13.07-.21.23-.31.35l.06.07.22,0a7,7,0,0,1,1.13,0A1.54,1.54,0,0,1,92,100a1,1,0,0,1-1,.51,1,1,0,0,1-.81-.76,1.13,1.13,0,0,1-.06-.3c0-.38-.07-.43-.47-.42a9.19,9.19,0,0,0-1.1.12.73.73,0,0,1-.9-.54,1.27,1.27,0,0,1,.1-1c.19-.35.43-.66.63-1-.55-.23-1.16-.44-1.73-.73a7.64,7.64,0,0,1-4.19-5.24,2.75,2.75,0,0,1-.07-.73C82.51,89.54,82.7,89.45,83,89.64Zm1.13-3a12.56,12.56,0,0,0,.49,1.49A4.75,4.75,0,0,0,87,90.37a15.39,15.39,0,0,0,7.83,1.42,4.29,4.29,0,0,0,3.79-2.41l0,0a1.4,1.4,0,0,1,.85,1.17A1,1,0,0,1,99,91.64a9.58,9.58,0,0,1-1.7.77,14.1,14.1,0,0,1-7.53.13A13.06,13.06,0,0,1,84.53,90,5.15,5.15,0,0,1,83,88.3a1.21,1.21,0,0,1-.15-.57A1.34,1.34,0,0,1,84.11,86.62ZM5,73.93A26.73,26.73,0,0,1,1.89,66.1a35.09,35.09,0,0,1,.4-5.35c.06-.41.14-.82.22-1.23a.48.48,0,0,1,.12.23c.3,1,.56,2,.9,3a47.24,47.24,0,0,0,7.92,13.95,1.71,1.71,0,0,1,.29.52,22,22,0,0,0,3.15,6.19c-1.52-.65-3.25-.88-5.31-3.25,2.53,4.88,8.53,6.81,8.53,6.81a28.15,28.15,0,0,0,11.52,6.14c.35.1.7.17,1,.26a.68.68,0,0,0-.25-.14,31,31,0,0,1-8.82-4.85,22.49,22.49,0,0,1-7.34-9.83,1.72,1.72,0,0,1-.07-1.27c.11-.3.17-.62.26-.93A13.51,13.51,0,0,1,18,70.27,14.36,14.36,0,0,1,24,67a53.24,53.24,0,0,1,8.12-1.42c1.58-.21,3.16-.46,4.74-.7.42-.06.84-.17,1.29-.26l-.06.1A20.18,20.18,0,0,0,35,69.33a.49.49,0,0,1-.27.24,21.4,21.4,0,0,1-2.2.65c-1.11.22-2.24.31-3.35.52-5.95,1.18-7.78,4.37-7.75,4.34,1.81-1.92,4.69-2.46,5.46-2.73a16.06,16.06,0,0,1,5.49-.77c.55,0,1.09,0,1.65.06a22.47,22.47,0,0,0,.81,16,1.11,1.11,0,0,0,0-.29,25.48,25.48,0,0,1-.74-10.27A18.25,18.25,0,0,1,39.6,66.36a26.78,26.78,0,0,1,7.9-5.11,49.32,49.32,0,0,1,8.56-2.68c2.2-.53,4.4-1,6.57-1.69a19.28,19.28,0,0,0,7.77-4.32,8.25,8.25,0,0,0,1-1,17.92,17.92,0,0,1,7-5.6,6.15,6.15,0,0,1,1-1.89,11.78,11.78,0,0,1,2.47-2.37,2.37,2.37,0,0,1,.93-.37.56.56,0,0,1,.69.44,2.16,2.16,0,0,1,.07.29,2,2,0,0,1,.56.31,3.77,3.77,0,0,1,.36.31,5.88,5.88,0,0,1,1.18,1.82.33.33,0,0,0,.3.22c.35,0,.7.09,1,.16A12.82,12.82,0,0,1,97.45,56.42a8.68,8.68,0,0,0,.23,1.65A17.8,17.8,0,0,0,98.53,60c.26.56.54,1.11.76,1.68a2.78,2.78,0,0,1,.08,1.82c-.06.21-.19.27-.35.16s-.44-.33-.66-.49a7.16,7.16,0,0,0-.81-.59.55.55,0,0,0-.72.14l.13.1c.58.52,1.16,1,1.73,1.56a.4.4,0,0,1,.11.28,3.24,3.24,0,0,1-.9,2.15,2.76,2.76,0,0,1-2.72.9c0,.41-.06.48-.29.6A9.72,9.72,0,0,1,90,69.57a6.92,6.92,0,0,0-3.54,1,4.79,4.79,0,0,1-1.09.46,15.69,15.69,0,0,1-3.64.44h-.3a.32.32,0,0,0,.19.11,9.75,9.75,0,0,0,3,.19,2.3,2.3,0,0,1,1,0c.83.34,1.63.74,2.42,1.15a.75.75,0,0,0,.65.09c.51-.19,1-.38,1.5-.59a5.93,5.93,0,0,1,3.27-.59,4.54,4.54,0,0,1,1.8.56,1.19,1.19,0,0,1,.67,1,.34.34,0,0,0,.12.18l.46.4a1.73,1.73,0,0,1,.57,1.5c0,.5-.19.58-.63.36a.56.56,0,0,0-.65,0c.28.18.55.34.81.52a1.21,1.21,0,0,1,.52,1.12,2.5,2.5,0,0,1-2.88,2.15,1.48,1.48,0,0,1-1.06-.67A.24.24,0,0,0,93,78.8a6.28,6.28,0,0,0-1,.09,4.43,4.43,0,0,1-1.83.16c-.29-.06-.57-.13-.87-.2A6.32,6.32,0,0,1,88.14,81a9.25,9.25,0,0,1-4.54,3,15.5,15.5,0,0,1-7.12.51,8.69,8.69,0,0,1-7.25-5.64,26.22,26.22,0,0,1-.74-2.52,18,18,0,0,0-1.63-3.89,11.61,11.61,0,0,0-4.66-4.68,11,11,0,0,0-7.24-1c-.48.09-.95.21-1.48.33.92.06,1.77.07,2.61.16a14.78,14.78,0,0,1,6.52,2.2,10.5,10.5,0,0,1,4.88,6.26,22.64,22.64,0,0,0,1.64,4.32,10.61,10.61,0,0,0,1.68,2.58,9,9,0,0,0,4.31,2.44c.5.14,1,.3,1.5.46a.78.78,0,0,1,.5.5,3.88,3.88,0,0,1,.2,2.19,6.59,6.59,0,0,1-1.58,3.07,11.36,11.36,0,0,1-2.33,1.9,12.09,12.09,0,0,0-1.17.88,1.32,1.32,0,0,0-.5,1.07c0,.76.08.88.84.63l.35-.14,1.86-.8a5.88,5.88,0,0,1,3.72-.38,3.69,3.69,0,0,1,2.86,2.59,1,1,0,0,1,0,.86.59.59,0,0,1-.41.26c-.13,0-.28-.14-.39-.26s-.06-.21-.09-.31a1.84,1.84,0,0,0-.92-1.3,2,2,0,0,0-.33-.1,3.38,3.38,0,0,1,1.05,2.6,1.28,1.28,0,0,1-1.42,1.23.38.38,0,0,1-.41-.34c0-.27,0-.54,0-.81a8.28,8.28,0,0,0,0-1,1.19,1.19,0,0,0-.88-1,.89.89,0,0,0-.69.08,1,1,0,0,1,.77.45,3.93,3.93,0,0,1,.38.88,1.45,1.45,0,0,1-.52,1.7,2.38,2.38,0,0,1-1,.3,5.76,5.76,0,0,1-2.1-.26,5.7,5.7,0,0,0-1.27-.16,6.83,6.83,0,0,0-1.2.15,38.34,38.34,0,0,1-7.31.22c-2.66,0-5.33,0-8,0H42.27c-2,0-3.94,0-5.91,0a32.31,32.31,0,0,1-8-1c-10-2.62-17.49-8-22.42-17.11A33.24,33.24,0,0,1,2.06,69.43C2,68.91,5,74.47,5,73.93Z"/><path class="cls-1" d="M83.18,50.35c-.84-1.79-.85-2.54.08-4.24.7-1.28,2.56-.14,2.31-1.57a6.28,6.28,0,0,0-1.65-2.9c-.3-.35-.46-.7-.9-.61a2.85,2.85,0,0,0-1.1.51,14.63,14.63,0,0,0-3,2.93c-1.54,2.06-.91,3.31.9,4.95A6.39,6.39,0,0,0,83.18,50.35Z"/><path class="cls-6" d="M81.5,43.56a10.67,10.67,0,0,1,1.86-1.44c.38-.25-.76,2.87-1.09,3.7-1.09,2.73.34,4.42-.06,4.21A5.16,5.16,0,0,1,80,47,5.46,5.46,0,0,1,81.5,43.56Z"/><path class="cls-36" d="M82.83,50.18c-.84-1.79-.85-2.54.08-4.24a5.92,5.92,0,0,0,.77-4,3.12,3.12,0,0,0-.11-.48c-.15-.43-.41-.64-.85-.55a3,3,0,0,0-1.15.45,14.6,14.6,0,0,0-3,2.93c-1.18,1.58-1.06,2.66-.16,3.85a.89.89,0,0,0,.75.39c.43.08.51-.51.38-.76a4.14,4.14,0,0,1-.56-1.55,4.3,4.3,0,0,1,1.24-3,8.8,8.8,0,0,1,3-2.18,7.78,7.78,0,0,1-.56,3.45c-.37,1-1.51,2.91-1.22,4.14A3.9,3.9,0,0,0,82.22,50C82.64,50.32,82.83,50.18,82.83,50.18Z"/><path class="cls-37" d="M78.35,16.27"/><g class="cls-3"><path class="cls-38" d="M31.85,70.82a.58.58,0,0,1-.31-.05A.7.7,0,0,1,31.85,70.82Z"/></g><path class="cls-2" d="M83.54,85.81c1-1.49,2.08-2,3.33-3.17s2.1-2.46,3.27-3.55a19.45,19.45,0,0,0,2.91.08c.68,1.67,4,.08,4.27-1l.44.66c.95,1.87-2.46,2-4.39,1.8-1.36-.14-7.23,1.41-7,9-.66,1-2.22,0-2.22,1.35s0,3.74,1.19,4.6c-.33,1.18-1.5-.07-1.82-.54a13.77,13.77,0,0,1-2-4.19C81.12,88.69,82.47,87.44,83.54,85.81Z"/></symbol></defs><title>Element 1</title><g id="Ebene_2" data-name="Ebene 2"><g id="Layer_2" data-name="Layer 2"><use width="100.91" height="101.91" transform="scale(4.87)" xlink:href="#New_Symbol"/></g></g></svg>