<svg xmlns="http://www.w3.org/2000/svg" viewBox="0 0 269.88 226.17">
  <defs>
    <style>
      .a, .b, .e {
        fill: #fff;
      }

      .a, .c, .e, .j, .k, .l {
        stroke: #000100;
      }

      .a, .c, .e, .j, .k {
        stroke-linecap: round;
        stroke-linejoin: round;
      }

      .a, .c {
        stroke-width: 0.75px;
      }

      .c, .h, .j, .k, .l {
        fill: none;
      }

      .d, .f, .i {
        isolation: isolate;
      }

      .d {
        font-size: 10px;
      }

      .d, .f, .g {
        fill: #000100;
        font-family: Calibri;
      }

      .e, .j {
        stroke-width: 0.24px;
      }

      .f, .g {
        font-size: 8px;
      }

      .k {
        stroke-width: 0.72px;
      }

      .l {
        stroke-miterlimit: 3;
        stroke-width: 1.5px;
      }
    </style>
  </defs>
  <title>plant-visualization</title>
  <path class="a" d="M155.55,191l-0.47.28" transform="translate(-4.25)"/>
  <g>
    <path class="b" d="M104.06,200.28H53V225.8h51V200.28Z" transform="translate(-4.25)"/>
    <path class="c" d="M104.06,200.28H53V225.8h51V200.28" transform="translate(-4.25)"/>
    <path class="c" d="M97.68,200.28V225.8" transform="translate(-4.25)"/>
    <path class="c" d="M91.3,200.28V225.8" transform="translate(-4.25)"/>
    <path class="c" d="M84.93,200.28V225.8" transform="translate(-4.25)"/>
    <path class="c" d="M78.55,200.28V225.8" transform="translate(-4.25)"/>
    <path class="c" d="M72.17,200.28V225.8" transform="translate(-4.25)"/>
    <path class="c" d="M65.78,200.28V225.8" transform="translate(-4.25)"/>
    <path class="c" d="M59.4,200.28V225.8" transform="translate(-4.25)"/>
  </g>
  <g>
    <path class="b" d="M27.52,131.25a17,17,0,1,1,17,17A17,17,0,0,1,27.52,131.25Z" transform="translate(-4.25)"/>
    <path class="c" d="M27.52,131.25a17,17,0,1,1,17,17,17,17,0,0,1-17-17" transform="translate(-4.25)"/>
    <path class="c" d="M27.52,131.25l17-17,17,17" transform="translate(-4.25)"/>
    <path class="c" d="M44.53,156.76v-8.5" transform="translate(-4.25)"/>
    <path class="c" d="M44.53,114.24v-8.5" transform="translate(-4.25)"/>
    <text class="d" transform="translate(58.04 123.43)">PSOP</text>
  </g>
  <path class="c" d="M53,208.65H44.53V157.76" transform="translate(-4.25)"/>
  <rect class="e" x="75.62" y="34.83" width="77.74" height="11.02" transform="translate(0.76 92.77) rotate(-45)"/>
  <g>
    <path class="b" d="M208.19,98.64H145.82c-3.78,4.54-3.78,9.64,0,14.18h62.37C212,108.28,212,103.18,208.19,98.64Z" transform="translate(-4.25)"/>
    <path class="c" d="M208.19,98.64H145.82c-3.78,4.54-3.78,9.64,0,14.18h62.37c3.78-4.54,3.78-9.64,0-14.18" transform="translate(-4.25)"/>
    <path class="c" d="M206.41,97.23v17" transform="translate(-4.25)"/>
    <path class="c" d="M147.59,97.23v17" transform="translate(-4.25)"/>
    <g>
      <text class="f" transform="translate(146.89 127.13)">E<tspan x="3.72" y="0">v</tspan><tspan x="7.21" y="0">acu</tspan><tspan x="18.63" y="0">a</tspan><tspan x="22.39" y="0">t</tspan><tspan x="24.98" y="0">ed </tspan><tspan x="34.98" y="0">T</tspan><tspan x="38.38" y="0">ube</tspan></text>
      <text class="f" transform="translate(155.68 136.73)"> </text>
      <text class="g" transform="translate(157.49 136.73)">Collec<tspan x="19.52" y="0">t</tspan><tspan x="22.12" y="0">o</tspan><tspan x="26.34" y="0">r</tspan><tspan x="28.99" y="0">s</tspan></text>
    </g>
  </g>
  <g>
    <rect class="h" x="108.31" y="44.71" width="52.61" height="20"/>
    <g class="i">
      <text class="f" transform="translate(119.47 52.31)">Fl<tspan x="5.51" y="0">a</tspan><tspan x="9.27" y="0">t Pl</tspan><tspan x="19.73" y="0">a</tspan><tspan x="23.48" y="0">t</tspan><tspan x="26.08" y="0">e </tspan></text>
      <text class="f" transform="translate(118.45 61.91)">Collec<tspan x="19.52" y="0">t</tspan><tspan x="22.12" y="0">o</tspan><tspan x="26.34" y="0">r</tspan><tspan x="28.99" y="0">s</tspan></text>
    </g>
  </g>
  <g>
    <path class="b" d="M91.3,105.73A4.26,4.26,0,1,0,87,110,4.26,4.26,0,0,0,91.3,105.73Zm4.25-4.25V110l-4.7-2.35a4.25,4.25,0,0,0,0-3.8Zm-17,0V110l4.72-2.35a4.08,4.08,0,0,1,0-3.8ZM91.3,97.22H82.79l2.35,4.71a4.25,4.25,0,0,1,3.81,0Z" transform="translate(-4.25)"/>
    <path class="j" d="M91.3,105.73A4.26,4.26,0,1,0,87,110a4.26,4.26,0,0,0,4.26-4.26" transform="translate(-4.25)"/>
    <path class="j" d="M95.55,101.48V110l-4.7-2.35a4.25,4.25,0,0,0,0-3.8l4.7-2.35" transform="translate(-4.25)"/>
    <path class="j" d="M78.54,101.48V110l4.72-2.35a4.08,4.08,0,0,1,0-3.8l-4.72-2.35" transform="translate(-4.25)"/>
    <path class="j" d="M91.3,97.22H82.79l2.35,4.71a4.25,4.25,0,0,1,3.81,0l2.35-4.71" transform="translate(-4.25)"/>
    <path class="j" d="M87.05,105.73l3.8,1.9a4.25,4.25,0,0,0,0-3.8l-3.8,1.9-3.79,1.9a4.09,4.09,0,0,1,0-3.8l3.79,1.9-1.91-3.8a4.25,4.25,0,0,1,3.81,0l-1.9,3.8" transform="translate(-4.25)"/>
    <text class="d" transform="translate(36.31 93.02)">MSOP</text>
  </g>
  <path class="c" d="M44.53,122.74v-17h34" transform="translate(-4.25)"/>
  <path class="c" d="M87.05,97.23V88.72H87V67.82" transform="translate(-4.25)"/>
  <path class="c" d="M95.55,105.73H143" transform="translate(-4.25)"/>
  <path class="c" d="M211,105.73h54.61V98.65" transform="translate(-4.25)"/>
  <path class="c" d="M142,12.85H265.63V96.09" transform="translate(-4.25)"/>
  <path class="c" d="M265.63,80.1v77.66H118.32" transform="translate(-4.25)"/>
  <rect class="h" x="216.74" width="21.26" height="34.02"/>
  <rect class="h" x="182.72" width="21.26" height="34.02"/>
  <g>
    <rect class="h" x="201.85" y="20.03" width="68.03" height="17.67"/>
    <text class="d" transform="translate(220.13 31.87)">T<tspan x="4.82" y="0">SOC_1</tspan></text>
  </g>
  <g>
    <rect class="h" x="212.48" y="111.4" width="46.77" height="22.68"/>
    <text class="d" transform="translate(220.13 125.74)">T<tspan x="4.82" y="0">SOC_2</tspan></text>
  </g>
  <g>
    <rect class="h" x="1.3" y="183.27" width="32.6" height="12.76"/>
    <text class="d" transform="translate(5.71 192.65)">T<tspan x="4.82" y="0">SOPI</tspan></text>
  </g>
  <g>
    <rect class="h" x="114.55" y="186.35" width="36.28" height="10.85"/>
    <text class="d" transform="translate(118.75 194.78)">T<tspan x="4.82" y="0">SOPO</tspan></text>
  </g>
  <line class="h" x1="108.31" y1="225.79" x2="141.76" y2="225.79"/>
  <path class="c" d="M265.63,96.1v2.55" transform="translate(-4.25)"/>
  <path class="k" d="M118.32,157.77h-5.67v51h-8.6" transform="translate(-4.25)"/>
  <g>
    <path class="b" d="M36,166.27v17H53v-17H36Z" transform="translate(-4.25)"/>
    <path class="j" d="M36,166.27v17H53v-17H36" transform="translate(-4.25)"/>
    <path class="j" d="M40.28,170.52h8.5L44.53,179l-4.25-8.51" transform="translate(-4.25)"/>
    <text class="d" transform="translate(0 164.17)">FMSOP</text>
  </g>
  <g>
    <path class="l" d="M240.4,12.76v7.37" transform="translate(-4.25)"/>
    <path class="l" d="M235.3,20.13h9.64" transform="translate(-4.25)"/>
  </g>
  <g>
    <path class="l" d="M240.4,105.73v8.5" transform="translate(-4.25)"/>
    <path class="l" d="M235.3,114.24h9.64" transform="translate(-4.25)"/>
  </g>
  <g>
    <path class="l" d="M36,196.6h8.5" transform="translate(-4.25)"/>
    <path class="l" d="M36.59,191.78v9.64" transform="translate(-4.25)"/>
  </g>
  <g>
    <path class="l" d="M112.56,191.5h8.5" transform="translate(-4.25)"/>
    <path class="l" d="M120.77,187v9.64" transform="translate(-4.25)"/>
  </g>
  <path class="l" d="M155.08,208.51" transform="translate(-4.25)"/>
</svg>
