<?xml version="1.0" encoding="iso-8859-1"?>
<!-- Generator: Adobe Illustrator 19.0.0, SVG Export Plug-In . SVG Version: 6.00 Build 0)  -->
<svg version="1.1" id="Capa_1" xmlns="http://www.w3.org/2000/svg" xmlns:xlink="http://www.w3.org/1999/xlink" x="0px" y="0px"
	 viewBox="0 0 522.853 522.853" style="enable-background:new 0 0 522.853 522.853;" xml:space="preserve">
<g>
	<g>
		<path d="M266.876,434.732l-41.862-60.475c-19.44-22.052-18.417-55.403,2.438-76.236c10.515-10.493,24.512-16.327,39.424-16.327
			c16.349,0,31.261,6.487,43.538,21.051v-106.8c0-24.011-19.527-43.538-43.538-43.538H114.491
			c-24.033,0-43.538,19.527-43.538,43.538v239.462c0,24.011,19.505,43.538,43.538,43.538h154.91
			c-1.502-6.836-2.525-13.802-2.525-20.942V434.732z M234.222,217.714c6.008,0,10.885,4.876,10.885,10.885
			c0,5.987-4.876,10.885-10.885,10.885c-6.008,0-10.885-4.898-10.885-10.885C223.337,222.59,228.214,217.714,234.222,217.714z
			 M234.222,261.253c6.008,0,10.885,4.876,10.885,10.885c0,5.987-4.876,10.885-10.885,10.885c-6.008,0-10.885-4.898-10.885-10.885
			C223.337,266.129,228.214,261.253,234.222,261.253z M147.145,413.637c-6.008,0-10.885-4.898-10.885-10.885
			c0-6.008,4.876-10.885,10.885-10.885c6.008,0,10.885,4.876,10.885,10.885C158.03,408.739,153.153,413.637,147.145,413.637z
			 M147.145,370.099c-6.008,0-10.885-4.898-10.885-10.885c0-6.008,4.876-10.885,10.885-10.885c6.008,0,10.885,4.876,10.885,10.885
			C158.03,365.201,153.153,370.099,147.145,370.099z M147.145,326.56c-6.008,0-10.885-4.898-10.885-10.885
			c0-6.008,4.876-10.885,10.885-10.885c6.008,0,10.885,4.876,10.885,10.885C158.03,321.662,153.153,326.56,147.145,326.56z
			 M147.145,283.022c-6.008,0-10.885-4.898-10.885-10.885c0-6.008,4.876-10.885,10.885-10.885c6.008,0,10.885,4.876,10.885,10.885
			C158.03,278.124,153.153,283.022,147.145,283.022z M147.145,239.483c-6.008,0-10.885-4.898-10.885-10.885
			c0-6.008,4.876-10.885,10.885-10.885c6.008,0,10.885,4.876,10.885,10.885C158.03,234.585,153.153,239.483,147.145,239.483z
			 M190.683,413.637c-6.008,0-10.885-4.898-10.885-10.885c0-6.008,4.876-10.885,10.885-10.885c6.008,0,10.885,4.876,10.885,10.885
			C201.568,408.739,196.692,413.637,190.683,413.637z M190.683,370.099c-6.008,0-10.885-4.898-10.885-10.885
			c0-6.008,4.876-10.885,10.885-10.885c6.008,0,10.885,4.876,10.885,10.885C201.568,365.201,196.692,370.099,190.683,370.099z
			 M190.683,326.56c-6.008,0-10.885-4.898-10.885-10.885c0-6.008,4.876-10.885,10.885-10.885c6.008,0,10.885,4.876,10.885,10.885
			C201.568,321.662,196.692,326.56,190.683,326.56z M190.683,283.022c-6.008,0-10.885-4.898-10.885-10.885
			c0-6.008,4.876-10.885,10.885-10.885c6.008,0,10.885,4.876,10.885,10.885C201.568,278.124,196.692,283.022,190.683,283.022z
			 M190.683,239.483c-6.008,0-10.885-4.898-10.885-10.885c0-6.008,4.876-10.885,10.885-10.885c6.008,0,10.885,4.876,10.885,10.885
			C201.568,234.585,196.692,239.483,190.683,239.483z M95.443,51.049c28.648-19.157,62.086-29.28,96.59-29.28
			s67.898,10.123,96.568,29.28c1.872,1.263,3.984,1.829,6.03,1.829c3.527,0,6.966-1.698,9.078-4.855
			c3.331-4.985,1.981-11.755-3.026-15.086C268.443,11.385,230.869,0,192.033,0c-38.858,0-76.41,11.385-108.694,32.937
			c-4.985,3.331-6.335,10.101-2.982,15.086C83.709,53.008,90.436,54.38,95.443,51.049z M270.489,89.08
			c3.527,0,6.966-1.654,9.056-4.811c3.352-5.007,2.003-11.777-3.004-15.108c-25.056-16.762-54.292-25.622-84.508-25.622
			s-59.43,8.86-84.508,25.622c-5.029,3.331-6.357,10.101-3.026,15.108c3.331,4.985,10.101,6.335,15.086,2.982
			c21.53-14.324,46.564-21.943,72.448-21.943s50.94,7.619,72.404,21.943C266.332,88.47,268.421,89.08,270.489,89.08z
			 M131.645,105.385c-4.985,3.331-6.335,10.101-3.004,15.108c3.309,4.963,10.079,6.313,15.086,2.982
			c28.627-19.113,67.876-19.135,96.612,0c1.85,1.241,3.962,1.829,6.008,1.829c3.527,0,6.966-1.698,9.078-4.855
			c3.331-4.985,1.981-11.734-3.026-15.086C216.545,81.417,167.456,81.46,131.645,105.385z M450.477,506.2l-42.102-73.689V336.16
			c0-26.733-6.683-50.461-20.202-72.47c-9.121-14.694-20.311-28.235-38.053-43.364l-0.044-0.044
			c-3.222-2.743-7.75-3.309-11.581-1.567c-3.853,1.785-6.313,5.638-6.313,9.883v133.576l-21.769-25.709v-0.044l-19.505-23.032
			c-6.444-6.4-14.977-9.949-24.033-9.949c-9.056,0-17.633,3.548-24.033,9.949c-12.822,12.844-13.345,33.372-1.197,46.804l0.871,1.11
			l44.17,63.806c1.284,1.829,1.959,3.984,1.959,6.182c0,28.256-2.438,47.653,14.172,71.033l11.451,16
			c2.046,2.852,5.333,4.528,8.838,4.528h0.022l64.916-0.218l53.008-0.174c3.875-0.022,7.445-2.09,9.383-5.442
			C452.371,513.667,452.393,509.552,450.477,506.2z"/>
	</g>
</g>
<g>
</g>
<g>
</g>
<g>
</g>
<g>
</g>
<g>
</g>
<g>
</g>
<g>
</g>
<g>
</g>
<g>
</g>
<g>
</g>
<g>
</g>
<g>
</g>
<g>
</g>
<g>
</g>
<g>
</g>
</svg>
