<svg xmlns="http://www.w3.org/2000/svg" xmlns:xlink="http://www.w3.org/1999/xlink" viewBox="0 0 866.56 371.09"><defs><style>.a,.ae,.ag,.i{fill:none;}.b{clip-path:url(#a);}.c{fill:#fff;}.d{fill:#f39200;}.ac,.ad,.ah,.aj,.e{fill:#1d1d1b;}.f{fill:#dadada;}.g{fill:#c2c5e5;}.h{fill:#b2b2b2;}.i{stroke:#477572;stroke-miterlimit:10;stroke-width:2px;}.j{fill:#3d3d3b;}.k{fill:#d9d9d9;}.l{clip-path:url(#d);}.m{fill:url(#e);}.n{opacity:0.1;}.o{clip-path:url(#g);}.p{clip-path:url(#h);}.q{fill:url(#i);}.r{clip-path:url(#k);}.s{clip-path:url(#l);}.t{fill:url(#m);}.u{clip-path:url(#o);}.v{clip-path:url(#p);}.w{fill:url(#q);}.x{clip-path:url(#s);}.y{fill:#cbbba0;}.z{fill:#936037;}.aa{opacity:0;}.ab{clip-path:url(#u);}.ac,.ah{font-size:8px;}.ac,.ad,.ah,.aj{font-family:Arial;}.ad,.aj{font-size:10px;}.ae{stroke:#575756;stroke-linecap:round;}.af{fill:#e30613;}.ag{stroke:#e30613;stroke-linejoin:round;stroke-width:0.7px;}.ah,.aj{font-weight:700;}.ai{clip-path:url(#ag);}.ak{clip-path:url(#ar);}.al{clip-path:url(#au);}.am{fill:url(#av);}.an{clip-path:url(#ax);}.ao{clip-path:url(#ay);}.ap{fill:url(#az);}.aq{clip-path:url(#bb);}.ar{clip-path:url(#bc);}.as{fill:url(#bd);}.at{clip-path:url(#bf);}.au{clip-path:url(#bg);}.av{fill:url(#bh);}.aw{clip-path:url(#bj);}.ax{fill:#9d9d9c;}.ay{fill:#706f6f;}.az{fill:#ededed;}.ba{fill:#878787;}.bb{fill:#3c3c3b;}.bc{clip-path:url(#bk);}.bd{fill:url(#bl);}.be{clip-path:url(#bn);}.bf{clip-path:url(#bp);}.bg{clip-path:url(#cb);}</style><clipPath id="a" transform="translate(0 -4.22)"><rect class="a" width="420" height="375.31"/></clipPath><clipPath id="d" transform="translate(0 -4.22)"><rect class="a" x="190.48" y="167.1" width="27.64" height="15.52"/></clipPath><linearGradient id="e" y1="-241.51" x2="1" y2="-241.51" gradientTransform="matrix(27.64, 0, 0, -27.64, 190.48, -6504.99)" gradientUnits="userSpaceOnUse"><stop offset="0" stop-color="#b2b2b2"/><stop offset="1" stop-color="#595756"/></linearGradient><clipPath id="g" transform="translate(0 -4.22)"><rect class="a" x="189.82" y="168.89" width="28.96" height="15.56"/></clipPath><clipPath id="h" transform="translate(0 -4.22)"><rect class="a" x="283.21" y="167.1" width="27.64" height="15.52"/></clipPath><linearGradient id="i" x1="0" y1="-241.51" x2="1" y2="-241.51" gradientTransform="matrix(27.64, 0, 0, -27.64, 283.21, -6504.99)" xlink:href="#e"/><clipPath id="k" transform="translate(0 -4.22)"><rect class="a" x="282.55" y="168.89" width="28.96" height="15.56"/></clipPath><clipPath id="l" transform="translate(0 -4.22)"><rect class="a" x="283.21" y="71.25" width="27.64" height="15.52"/></clipPath><linearGradient id="m" x1="0" y1="-241.51" x2="1" y2="-241.51" gradientTransform="matrix(27.64, 0, 0, -27.64, 283.21, -6600.83)" xlink:href="#e"/><clipPath id="o" transform="translate(0 -4.22)"><rect class="a" x="282.55" y="73.04" width="28.96" height="15.56"/></clipPath><clipPath id="p" transform="translate(0 -4.22)"><rect class="a" x="190.48" y="71.25" width="27.64" height="15.52"/></clipPath><linearGradient id="q" x1="0" y1="-241.51" x2="1" y2="-241.51" gradientTransform="matrix(27.64, 0, 0, -27.64, 190.48, -6600.83)" xlink:href="#e"/><clipPath id="s" transform="translate(0 -4.22)"><rect class="a" x="189.82" y="73.04" width="28.96" height="15.56"/></clipPath><clipPath id="u" transform="translate(0 -4.22)"><rect class="a" x="270.64" y="58.34" width="24.9" height="312.94"/></clipPath><clipPath id="ag" transform="translate(0 -4.22)"><rect class="a" x="129.63" y="58.34" width="27.11" height="312.94"/></clipPath><clipPath id="ar" transform="translate(0 -4.22)"><rect class="a" x="446" width="420" height="375.31"/></clipPath><clipPath id="au" transform="translate(0 -4.22)"><rect class="a" x="636.48" y="167.1" width="27.64" height="15.52"/></clipPath><linearGradient id="av" x1="16.14" y1="-241.51" x2="17.14" y2="-241.51" xlink:href="#e"/><clipPath id="ax" transform="translate(0 -4.22)"><rect class="a" x="635.82" y="168.89" width="28.96" height="15.56"/></clipPath><clipPath id="ay" transform="translate(0 -4.22)"><rect class="a" x="729.21" y="167.1" width="27.64" height="15.52"/></clipPath><linearGradient id="az" x1="16.14" y1="-241.51" x2="17.14" y2="-241.51" gradientTransform="matrix(27.64, 0, 0, -27.64, 283.21, -6504.99)" xlink:href="#e"/><clipPath id="bb" transform="translate(0 -4.22)"><rect class="a" x="728.55" y="168.89" width="28.96" height="15.56"/></clipPath><clipPath id="bc" transform="translate(0 -4.22)"><rect class="a" x="729.21" y="71.25" width="27.64" height="15.52"/></clipPath><linearGradient id="bd" x1="16.14" y1="-241.51" x2="17.14" y2="-241.51" gradientTransform="matrix(27.64, 0, 0, -27.64, 283.21, -6600.83)" xlink:href="#e"/><clipPath id="bf" transform="translate(0 -4.22)"><rect class="a" x="728.55" y="73.04" width="28.96" height="15.56"/></clipPath><clipPath id="bg" transform="translate(0 -4.22)"><rect class="a" x="636.48" y="71.25" width="27.64" height="15.52"/></clipPath><linearGradient id="bh" x1="16.14" y1="-241.51" x2="17.14" y2="-241.51" gradientTransform="matrix(27.64, 0, 0, -27.64, 190.48, -6600.83)" xlink:href="#e"/><clipPath id="bj" transform="translate(0 -4.22)"><rect class="a" x="635.82" y="73.04" width="28.96" height="15.56"/></clipPath><clipPath id="bk" transform="translate(0 -4.22)"><polygon class="a" points="743.82 257.16 753.38 283.26 753.38 258.58 743.82 234.9 743.82 257.16"/></clipPath><linearGradient id="bl" x1="46.66" y1="-282.25" x2="47.66" y2="-282.25" gradientTransform="matrix(9.56, 0, 0, -9.56, 297.82, -2442.97)" xlink:href="#e"/><clipPath id="bn" transform="translate(0 -4.22)"><rect class="a" x="743.62" y="255.1" width="10.02" height="31.4"/></clipPath><clipPath id="bp" transform="translate(0 -4.22)"><rect class="a" x="716.64" y="58.34" width="26.67" height="312.94"/></clipPath><clipPath id="cb" transform="translate(0 -4.22)"><rect class="a" x="575.64" y="58.34" width="24.46" height="312.94"/></clipPath></defs><title>atrium</title><g class="b"><g class="b"><rect class="c" y="23.09" width="420" height="348"/><polygon class="c" points="0 41.09 0 371.09 40.65 301.8 40.65 35.67 0 41.09"/><polygon class="c" points="379.36 301.8 420 371.09 420 41.09 379.36 35.67 379.36 301.8"/><rect class="d" x="1.06" y="236.05" width="24.51" height="65.75"/><g class="b"><path class="e" d="M21.59,273.14a1.7,1.7,0,1,1-1.7-1.7,1.7,1.7,0,0,1,1.7,1.7" transform="translate(0 -4.22)"/><rect class="d" x="318.18" y="236.05" width="41.55" height="65.75"/><path class="e" d="M355.76,273.14a1.7,1.7,0,1,1-1.7-1.7,1.7,1.7,0,0,1,1.7,1.7" transform="translate(0 -4.22)"/><rect class="d" x="141.18" y="236.05" width="41.56" height="65.75"/><path class="e" d="M178.76,273.14a1.7,1.7,0,1,1-1.7-1.7,1.7,1.7,0,0,1,1.7,1.7" transform="translate(0 -4.22)"/><rect class="f" x="0.1" y="301.9" width="419.8" height="69.09"/><path class="c" d="M419.8,375.11H0.2V306.22H419.8v68.89ZM420,306H0v69.29H420V306Z" transform="translate(0 -4.22)"/><polygon class="g" points="36.79 259.03 40.55 253.73 40.55 301.8 36.79 308.18 36.79 259.03"/><path class="c" d="M40.45,258.26V306L36.89,312V263.31Zm0.2-.63-4,5.62v49.52l4-6.75V257.63Z" transform="translate(0 -4.22)"/><polygon class="g" points="0.1 259.58 5.68 253.06 5.68 361.23 0.1 370.72 0.1 259.58"/><path class="c" d="M5.58,257.55V365.39L0.2,374.57V263.87Zm0.2-.54L0,263.8V375.31l5.78-9.86V257Z" transform="translate(0 -4.22)"/><rect class="g" x="33.86" y="258.76" width="2.72" height="49.69"/><path class="c" d="M36.49,312.56H34V263.08h2.52v49.49Zm0.2-49.69H33.76v49.89h2.92V262.88Z" transform="translate(0 -4.22)"/><polygon class="g" points="379.44 301.75 379.45 253.73 383.23 259.09 383.21 308.18 379.44 301.75"/><path class="c" d="M379.55,258.26l3.56,5V312L379.55,306v-47.7Zm-0.2-.63V306l4,6.75V263.25Z" transform="translate(0 -4.22)"/><polygon class="g" points="414.3 361.18 414.32 253.06 419.92 259.64 419.9 370.72 414.3 361.18"/><path class="c" d="M414.42,257.55l5.38,6.32v110.7l-5.38-9.18V257.55Zm-0.2-.54V365.45l5.78,9.86V263.8Z" transform="translate(0 -4.22)"/><rect class="g" x="383.41" y="258.76" width="2.72" height="49.69"/><path class="c" d="M386,312.56h-2.52V263.08H386v49.49Zm0.2-49.69h-2.92v49.89h2.92V262.88Z" transform="translate(0 -4.22)"/><rect class="h" x="0.66" y="263.19" width="419.8" height="8.16"/><path class="c" d="M420.36,275.47H0.76v-8h419.6v8Zm0.2-8.16H0.55v8.36h420v-8.36Z" transform="translate(0 -4.22)"/><rect class="f" x="0.1" y="214.8" width="419.8" height="48.18"/><path class="c" d="M419.8,267.1H0.2v-48H419.8v48Zm0.2-48.18H0V267.3H420V218.92Z" transform="translate(0 -4.22)"/><rect class="d" x="2.89" y="143.84" width="22.74" height="70.87"/><path class="e" d="M21.66,186a1.7,1.7,0,1,1-1.7-1.7,1.7,1.7,0,0,1,1.7,1.7" transform="translate(0 -4.22)"/><rect class="d" x="318.25" y="143.84" width="41.55" height="70.87"/><path class="e" d="M355.83,186a1.7,1.7,0,1,1-1.7-1.7,1.7,1.7,0,0,1,1.7,1.7" transform="translate(0 -4.22)"/><rect class="d" x="141.25" y="143.84" width="41.55" height="70.87"/><path class="e" d="M178.83,186a1.7,1.7,0,1,1-1.7-1.7,1.7,1.7,0,0,1,1.7,1.7" transform="translate(0 -4.22)"/><polygon class="g" points="379.43 214.64 379.45 118.11 383.26 120.46 383.21 219.14 379.43 214.64"/><path class="c" d="M379.55,122.5l3.56,2.2v98.38l-3.56-4.24V122.5Zm-0.2-.36v96.77l4,4.71v-99Z" transform="translate(0 -4.22)"/><polygon class="g" points="414.29 256.14 414.32 139.69 419.95 143.17 419.9 262.81 414.29 256.14"/><path class="c" d="M414.42,144.09l5.38,3.33V266.76l-5.38-6.41V144.09Zm-0.2-.36v116.7l5.78,6.88v-120Z" transform="translate(0 -4.22)"/><polygon class="g" points="380 133.53 380.05 118.47 419.95 143.17 419.9 161.82 380 133.53"/><path class="c" d="M380.14,122.87l39.65,24.55v18.43l-39.65-28.12V122.87Zm-0.2-.36v15.32L420,166.23V147.31Z" transform="translate(0 -4.22)"/><rect class="g" x="383.41" y="143.19" width="2.72" height="76.13"/><path class="c" d="M386,223.43h-2.52V147.51H386v75.92Zm0.2-76.12h-2.92v76.32h2.92V147.31Z" transform="translate(0 -4.22)"/><polygon class="g" points="36.79 120.38 40.55 118.11 40.55 214.7 36.79 219.14 36.79 120.38"/><path class="c" d="M40.45,122.5v96.34l-3.56,4.24V124.71Zm0.2-.36-4,2.45v99l4-4.71V122.15Z" transform="translate(0 -4.22)"/><polygon class="g" points="0.1 143.09 5.68 139.69 5.68 256.2 0.1 262.82 0.1 143.09"/><path class="c" d="M5.58,144.09V260.35L0.2,266.76V147.42Zm0.2-.36L0,147.31v120l5.78-6.88V143.73Z" transform="translate(0 -4.22)"/><polygon class="g" points="0.1 143.09 39.95 118.47 39.95 133.61 0.1 161.82 0.1 143.09"/><path class="c" d="M39.85,122.87v14.85L0.2,165.85V147.42Zm0.2-.36L0,147.31v18.93l40.06-28.41V122.51Z" transform="translate(0 -4.22)"/><rect class="g" x="33.86" y="143.19" width="2.72" height="76.13"/><path class="c" d="M36.49,223.43H34V147.51h2.52v75.92Zm0.2-76.12H33.76v76.32h2.92V147.31Z" transform="translate(0 -4.22)"/><line class="i" x1="420" y1="221.57" y2="221.57"/><line class="i" x1="406.45" y1="263.09" x2="406.45" y2="221.57"/><line class="i" x1="392.9" y1="263.09" x2="392.9" y2="221.57"/><line class="i" x1="379.36" y1="263.09" x2="379.36" y2="221.57"/><line class="i" x1="365.81" y1="263.09" x2="365.81" y2="221.57"/><line class="i" x1="352.26" y1="263.09" x2="352.26" y2="221.57"/><line class="i" x1="338.71" y1="263.09" x2="338.71" y2="221.57"/><line class="i" x1="325.16" y1="263.09" x2="325.16" y2="221.57"/><line class="i" x1="311.61" y1="263.09" x2="311.61" y2="221.57"/><line class="i" x1="298.06" y1="263.09" x2="298.06" y2="221.57"/><line class="i" x1="284.52" y1="263.09" x2="284.52" y2="221.57"/><line class="i" x1="270.97" y1="263.09" x2="270.97" y2="221.57"/><line class="i" x1="257.42" y1="263.09" x2="257.42" y2="221.57"/><line class="i" x1="243.87" y1="263.09" x2="243.87" y2="221.57"/><line class="i" x1="230.32" y1="263.09" x2="230.32" y2="221.57"/><line class="i" x1="216.77" y1="263.09" x2="216.77" y2="221.57"/><line class="i" x1="203.23" y1="263.09" x2="203.23" y2="221.57"/><line class="i" x1="189.68" y1="263.09" x2="189.68" y2="221.57"/><line class="i" x1="176.13" y1="263.09" x2="176.13" y2="221.57"/><line class="i" x1="162.58" y1="263.09" x2="162.58" y2="221.57"/><line class="i" x1="149.03" y1="263.09" x2="149.03" y2="221.57"/><line class="i" x1="135.48" y1="263.09" x2="135.48" y2="221.57"/><line class="i" x1="121.94" y1="263.09" x2="121.94" y2="221.57"/><line class="i" x1="108.39" y1="263.09" x2="108.39" y2="221.57"/><line class="i" x1="94.84" y1="263.09" x2="94.84" y2="221.57"/><line class="i" x1="81.29" y1="263.09" x2="81.29" y2="221.57"/><line class="i" x1="67.74" y1="263.09" x2="67.74" y2="221.57"/><line class="i" x1="54.19" y1="263.09" x2="54.19" y2="221.57"/><line class="i" x1="40.65" y1="263.09" x2="40.65" y2="221.57"/><line class="i" x1="27.1" y1="263.09" x2="27.1" y2="221.57"/><line class="i" x1="13.55" y1="263.09" x2="13.55" y2="221.57"/><rect class="h" x="0.1" y="143.19" width="419.8" height="8.16"/><path class="c" d="M419.8,155.47H0.2v-8H419.8v8Zm0.2-8.16H0v8.36H420v-8.36Z" transform="translate(0 -4.22)"/><rect class="f" x="0.1" y="118.03" width="419.8" height="24.96"/><path class="c" d="M419.8,147.11H0.2V122.35H419.8v24.76Zm0.2-25H0v25.16H420V122.15Z" transform="translate(0 -4.22)"/><rect class="d" x="2.89" y="47.06" width="22.74" height="70.87"/><path class="e" d="M21.66,89.27a1.7,1.7,0,1,1-1.7-1.7,1.7,1.7,0,0,1,1.7,1.7" transform="translate(0 -4.22)"/><rect class="d" x="318.25" y="47.06" width="41.55" height="70.87"/><path class="e" d="M355.83,89.27a1.7,1.7,0,1,1-1.7-1.7,1.7,1.7,0,0,1,1.7,1.7" transform="translate(0 -4.22)"/><rect class="d" x="141.25" y="47.06" width="41.55" height="70.87"/><path class="e" d="M178.83,89.27a1.7,1.7,0,1,1-1.7-1.7,1.7,1.7,0,0,1,1.7,1.7" transform="translate(0 -4.22)"/><polygon class="g" points="379.41 117.84 379.45 21.26 383.21 21.44 383.21 120.2 379.41 117.84"/><path class="c" d="M379.55,25.58l3.56,0.17v98.49l-3.56-2.2V25.58Zm-0.2-.21v96.77l4,2.45v-99Z" transform="translate(0 -4.22)"/><polygon class="g" points="414.27 139.43 414.32 22.92 419.9 23.18 419.9 142.91 414.27 139.43"/><path class="c" d="M414.42,27.24l5.38,0.26V146.95l-5.38-3.33V27.24Zm-0.2-.21v116.7l5.78,3.58v-120Z" transform="translate(0 -4.22)"/><rect class="g" x="383.41" y="36.44" width="2.72" height="83.84"/><path class="c" d="M386,124.4h-2.52V40.76H386V124.4Zm0.2-83.84h-2.92v84h2.92v-84Z" transform="translate(0 -4.22)"/><polygon class="g" points="379.45 36.33 379.45 21.26 419.9 23.18 419.9 41.9 379.45 36.33"/><path class="c" d="M379.55,25.58L419.8,27.5V46l-40.24-5.54V25.58Zm-0.2-.21V40.63L420,46.23V27.31Z" transform="translate(0 -4.22)"/><polygon class="g" points="36.79 21.44 40.55 21.26 40.55 117.93 36.79 120.2 36.79 21.44"/><path class="c" d="M40.45,25.58V122l-3.56,2.2V25.75Zm0.2-.21-4,.19v99l4-2.45V25.37Z" transform="translate(0 -4.22)"/><polygon class="g" points="0.1 23.18 5.68 22.92 5.68 139.51 0.1 142.91 0.1 23.18"/><path class="c" d="M5.58,27.24V143.62L0.2,146.95V27.5ZM5.78,27L0,27.31v120l5.78-3.58V27Z" transform="translate(0 -4.22)"/><rect class="g" x="33.86" y="36.44" width="2.72" height="83.84"/><path class="c" d="M36.49,124.4H34V40.76h2.52V124.4Zm0.2-83.84H33.76v84h2.92v-84Z" transform="translate(0 -4.22)"/><polygon class="g" points="0.1 23.18 40.55 21.26 40.55 36.33 0.1 41.9 0.1 23.18"/><path class="c" d="M40.45,25.58V40.46L0.2,46V27.5Zm0.2-.21L0,27.31V46.23l40.65-5.6V25.37Z" transform="translate(0 -4.22)"/><line class="i" x1="420" y1="101.57" y2="101.57"/><line class="i" x1="406.45" y1="143.09" x2="406.45" y2="101.57"/><line class="i" x1="392.9" y1="143.09" x2="392.9" y2="101.57"/><line class="i" x1="379.36" y1="143.09" x2="379.36" y2="101.57"/><line class="i" x1="365.81" y1="143.09" x2="365.81" y2="101.57"/><line class="i" x1="352.26" y1="143.09" x2="352.26" y2="101.57"/><line class="i" x1="338.71" y1="143.09" x2="338.71" y2="101.57"/><line class="i" x1="325.16" y1="143.09" x2="325.16" y2="101.57"/><line class="i" x1="311.61" y1="143.09" x2="311.61" y2="101.57"/><line class="i" x1="298.06" y1="143.09" x2="298.06" y2="101.57"/><line class="i" x1="284.52" y1="143.09" x2="284.52" y2="101.57"/><line class="i" x1="270.97" y1="143.09" x2="270.97" y2="101.57"/><line class="i" x1="257.42" y1="143.09" x2="257.42" y2="101.57"/><line class="i" x1="243.87" y1="143.09" x2="243.87" y2="101.57"/><line class="i" x1="230.32" y1="143.09" x2="230.32" y2="101.57"/><line class="i" x1="216.77" y1="143.09" x2="216.77" y2="101.57"/><line class="i" x1="203.23" y1="143.09" x2="203.23" y2="101.57"/><line class="i" x1="189.68" y1="143.09" x2="189.68" y2="101.57"/><line class="i" x1="176.13" y1="143.09" x2="176.13" y2="101.57"/><line class="i" x1="162.58" y1="143.09" x2="162.58" y2="101.57"/><line class="i" x1="149.03" y1="143.09" x2="149.03" y2="101.57"/><line class="i" x1="135.48" y1="143.09" x2="135.48" y2="101.57"/><line class="i" x1="121.94" y1="143.09" x2="121.94" y2="101.57"/><line class="i" x1="108.39" y1="143.09" x2="108.39" y2="101.57"/><line class="i" x1="94.84" y1="143.09" x2="94.84" y2="101.57"/><line class="i" x1="81.29" y1="143.09" x2="81.29" y2="101.57"/><line class="i" x1="67.74" y1="143.09" x2="67.74" y2="101.57"/><line class="i" x1="54.19" y1="143.09" x2="54.19" y2="101.57"/><line class="i" x1="40.65" y1="143.09" x2="40.65" y2="101.57"/><line class="i" x1="27.1" y1="143.09" x2="27.1" y2="101.57"/><line class="i" x1="13.55" y1="143.09" x2="13.55" y2="101.57"/><path class="j" d="M218.78,183.85a0.55,0.55,0,0,1-.51.59H190.33a0.55,0.55,0,0,1-.5-0.59V166.92a0.55,0.55,0,0,1,.5-0.59h27.95a0.55,0.55,0,0,1,.51.59v16.93Z" transform="translate(0 -4.22)"/><rect class="k" x="203.27" y="178.99" width="2.07" height="0.59"/></g><g class="l"><rect class="m" x="190.48" y="162.88" width="27.64" height="15.52"/></g><g class="b"><g class="n"><g class="o"><path class="k" d="M217.49,181.31A67.93,67.93,0,0,1,201,175.78a49.55,49.55,0,0,1-6.53-3.82,18.49,18.49,0,0,1-3.47-3.07h-0.69a0.5,0.5,0,0,0-.5.51v14.55a0.51,0.51,0,0,0,.5.51h27.95a0.51,0.51,0,0,0,.51-0.51v-2.37l-1.29-.26" transform="translate(0 -4.22)"/></g></g><path class="j" d="M311.51,183.85a0.55,0.55,0,0,1-.51.59H283.06a0.55,0.55,0,0,1-.51-0.59V166.92a0.55,0.55,0,0,1,.51-0.59H311a0.55,0.55,0,0,1,.51.59v16.93Z" transform="translate(0 -4.22)"/><rect class="k" x="295.99" y="178.99" width="2.07" height="0.59"/></g><g class="p"><rect class="q" x="283.21" y="162.88" width="27.64" height="15.52"/></g><g class="b"><g class="n"><g class="r"><path class="k" d="M310.21,181.31a67.93,67.93,0,0,1-16.47-5.53,49.55,49.55,0,0,1-6.53-3.82,18.49,18.49,0,0,1-3.47-3.07h-0.69a0.5,0.5,0,0,0-.51.51v14.55a0.51,0.51,0,0,0,.51.51H311a0.51,0.51,0,0,0,.51-0.51v-2.37l-1.29-.26" transform="translate(0 -4.22)"/></g></g><path class="j" d="M311.51,88a0.55,0.55,0,0,1-.51.59H283.06a0.55,0.55,0,0,1-.51-0.59V71.08a0.55,0.55,0,0,1,.51-0.59H311a0.55,0.55,0,0,1,.51.59V88Z" transform="translate(0 -4.22)"/><rect class="k" x="295.99" y="83.14" width="2.07" height="0.59"/></g><g class="s"><rect class="t" x="283.21" y="67.03" width="27.64" height="15.52"/></g><g class="b"><g class="n"><g class="u"><path class="k" d="M310.21,85.46a67.92,67.92,0,0,1-16.47-5.53,49.55,49.55,0,0,1-6.53-3.82A18.49,18.49,0,0,1,283.74,73h-0.69a0.5,0.5,0,0,0-.51.51V88.1a0.51,0.51,0,0,0,.51.51H311a0.51,0.51,0,0,0,.51-0.51V85.73l-1.29-.26" transform="translate(0 -4.22)"/></g></g><path class="j" d="M218.78,88a0.55,0.55,0,0,1-.51.59H190.33a0.55,0.55,0,0,1-.5-0.59V71.08a0.55,0.55,0,0,1,.5-0.59h27.95a0.55,0.55,0,0,1,.51.59V88Z" transform="translate(0 -4.22)"/><rect class="k" x="203.27" y="83.14" width="2.07" height="0.59"/></g><g class="v"><rect class="w" x="190.48" y="67.03" width="27.64" height="15.52"/></g><g class="b"><g class="n"><g class="x"><path class="k" d="M217.49,85.46A67.93,67.93,0,0,1,201,79.93a49.55,49.55,0,0,1-6.53-3.82A18.49,18.49,0,0,1,191,73h-0.69a0.5,0.5,0,0,0-.5.51V88.1a0.51,0.51,0,0,0,.5.51h27.95a0.51,0.51,0,0,0,.51-0.51V85.73l-1.29-.26" transform="translate(0 -4.22)"/></g></g><rect class="y" x="270.28" y="21.15" width="19.84" height="349.93"/><rect class="y" x="129.55" y="21.15" width="19.84" height="349.93"/><polygon class="z" points="379.36 21.15 40.65 21.15 0 23.09 420 23.09 379.36 21.15"/></g><g class="b"><g class="aa"><g class="ab"><text class="ac" transform="translate(270.64 94.74)">TNE_5</text><text class="ac" transform="translate(270.64 60.98)">TNE_6</text><text class="ac" transform="translate(270.64 164.09)">TNE_9</text><text class="ac" transform="translate(270.64 187.23)">TNE_4</text><text class="ac" transform="translate(270.64 208.38)">TNE_3</text><text class="ac" transform="translate(270.64 285.97)">TNE_8</text><text class="ac" transform="translate(270.64 305.79)">TNE_2</text><text class="ac" transform="translate(270.64 325.09)">TNE_1</text><text class="ac" transform="translate(270.64 345.09)">TNE_0</text><text class="ac" transform="translate(270.64 364.46)">TNE_7</text></g></g></g><text class="ad" transform="translate(281.99 56.09)">6</text><g class="b"><path class="c" d="M277.27,61.61a3.51,3.51,0,1,0,2.58,0" transform="translate(0 -4.22)"/><path class="c" d="M277.27,61.61V53.2a1.34,1.34,0,0,1,2.58,0v8.4" transform="translate(0 -4.22)"/><path class="ae" d="M277.27,61.61a3.51,3.51,0,1,0,2.58,0" transform="translate(0 -4.22)"/><path class="ae" d="M277.27,61.61V53.2a1.34,1.34,0,0,1,2.58,0v8.4" transform="translate(0 -4.22)"/><path class="af" d="M281,64.88a2.4,2.4,0,1,1-2.4-2.4,2.4,2.4,0,0,1,2.4,2.4" transform="translate(0 -4.22)"/><line class="ag" x1="278.56" y1="52.04" x2="278.56" y2="60.76"/></g><text class="ad" transform="translate(281.99 90.58)">5</text><g class="b"><path class="c" d="M277.27,96.1a3.51,3.51,0,1,0,2.58,0" transform="translate(0 -4.22)"/><path class="c" d="M277.27,96.1v-8.4a1.34,1.34,0,0,1,2.58,0v8.4" transform="translate(0 -4.22)"/><path class="ae" d="M277.27,96.1a3.51,3.51,0,1,0,2.58,0" transform="translate(0 -4.22)"/><path class="ae" d="M277.27,96.1v-8.4a1.34,1.34,0,0,1,2.58,0v8.4" transform="translate(0 -4.22)"/><path class="af" d="M281,99.37a2.4,2.4,0,1,1-2.4-2.4,2.4,2.4,0,0,1,2.4,2.4" transform="translate(0 -4.22)"/><line class="ag" x1="278.56" y1="86.54" x2="278.56" y2="95.25"/></g><text class="ad" transform="translate(281.99 159.43)">9</text><g class="b"><path class="c" d="M277.27,165a3.51,3.51,0,1,0,2.58,0" transform="translate(0 -4.22)"/><path class="c" d="M277.27,165v-8.4a1.34,1.34,0,0,1,2.58,0V165" transform="translate(0 -4.22)"/><path class="ae" d="M277.27,165a3.51,3.51,0,1,0,2.58,0" transform="translate(0 -4.22)"/><path class="ae" d="M277.27,165v-8.4a1.34,1.34,0,0,1,2.58,0V165" transform="translate(0 -4.22)"/><path class="af" d="M281,168.22a2.4,2.4,0,1,1-2.4-2.4,2.4,2.4,0,0,1,2.4,2.4" transform="translate(0 -4.22)"/><line class="ag" x1="278.56" y1="155.39" x2="278.56" y2="164.1"/></g><text class="ad" transform="translate(281.99 182.4)">4</text><g class="b"><path class="c" d="M277.27,187.92a3.51,3.51,0,1,0,2.58,0" transform="translate(0 -4.22)"/><path class="c" d="M277.27,187.92v-8.4a1.34,1.34,0,0,1,2.58,0v8.4" transform="translate(0 -4.22)"/><path class="ae" d="M277.27,187.92a3.51,3.51,0,1,0,2.58,0" transform="translate(0 -4.22)"/><path class="ae" d="M277.27,187.92v-8.4a1.34,1.34,0,0,1,2.58,0v8.4" transform="translate(0 -4.22)"/><path class="af" d="M281,191.19a2.4,2.4,0,1,1-2.4-2.4,2.4,2.4,0,0,1,2.4,2.4" transform="translate(0 -4.22)"/><line class="ag" x1="278.56" y1="178.36" x2="278.56" y2="187.07"/></g><text class="ad" transform="translate(281.99 203.38)">3</text><g class="b"><path class="c" d="M277.27,208.9a3.51,3.51,0,1,0,2.58,0" transform="translate(0 -4.22)"/><path class="c" d="M277.27,208.9v-8.4a1.34,1.34,0,0,1,2.58,0v8.4" transform="translate(0 -4.22)"/><path class="ae" d="M277.27,208.9a3.51,3.51,0,1,0,2.58,0" transform="translate(0 -4.22)"/><path class="ae" d="M277.27,208.9v-8.4a1.34,1.34,0,0,1,2.58,0v8.4" transform="translate(0 -4.22)"/><path class="af" d="M281,212.17a2.4,2.4,0,1,1-2.4-2.4,2.4,2.4,0,0,1,2.4,2.4" transform="translate(0 -4.22)"/><line class="ag" x1="278.56" y1="199.34" x2="278.56" y2="208.05"/></g><text class="ad" transform="translate(281.99 360.35)">7</text><g class="b"><path class="c" d="M277.27,365.87a3.51,3.51,0,1,0,2.58,0" transform="translate(0 -4.22)"/><path class="c" d="M277.27,365.87v-8.4a1.34,1.34,0,0,1,2.58,0v8.4" transform="translate(0 -4.22)"/><path class="ae" d="M277.27,365.87a3.51,3.51,0,1,0,2.58,0" transform="translate(0 -4.22)"/><path class="ae" d="M277.27,365.87v-8.4a1.34,1.34,0,0,1,2.58,0v8.4" transform="translate(0 -4.22)"/><path class="af" d="M281,369.14a2.4,2.4,0,1,1-2.4-2.4,2.4,2.4,0,0,1,2.4,2.4" transform="translate(0 -4.22)"/><line class="ag" x1="278.56" y1="356.31" x2="278.56" y2="365.02"/></g><text class="ad" transform="translate(281.99 340.51)">0</text><g class="b"><path class="c" d="M277.27,346a3.51,3.51,0,1,0,2.58,0" transform="translate(0 -4.22)"/><path class="c" d="M277.27,346v-8.4a1.34,1.34,0,0,1,2.58,0V346" transform="translate(0 -4.22)"/><path class="ae" d="M277.27,346a3.51,3.51,0,1,0,2.58,0" transform="translate(0 -4.22)"/><path class="ae" d="M277.27,346v-8.4a1.34,1.34,0,0,1,2.58,0V346" transform="translate(0 -4.22)"/><path class="af" d="M281,349.3a2.4,2.4,0,1,1-2.4-2.4,2.4,2.4,0,0,1,2.4,2.4" transform="translate(0 -4.22)"/><line class="ag" x1="278.56" y1="336.46" x2="278.56" y2="345.18"/></g><text class="ad" transform="translate(281.99 320.66)">1</text><g class="b"><path class="c" d="M277.27,326.19a3.51,3.51,0,1,0,2.58,0" transform="translate(0 -4.22)"/><path class="c" d="M277.27,326.19v-8.4a1.34,1.34,0,0,1,2.58,0v8.4" transform="translate(0 -4.22)"/><path class="ae" d="M277.27,326.19a3.51,3.51,0,1,0,2.58,0" transform="translate(0 -4.22)"/><path class="ae" d="M277.27,326.19v-8.4a1.34,1.34,0,0,1,2.58,0v8.4" transform="translate(0 -4.22)"/><path class="af" d="M281,329.45a2.4,2.4,0,1,1-2.4-2.4,2.4,2.4,0,0,1,2.4,2.4" transform="translate(0 -4.22)"/><line class="ag" x1="278.56" y1="316.62" x2="278.56" y2="325.33"/></g><text class="ad" transform="translate(281.99 300.82)">2</text><g class="b"><path class="c" d="M277.27,306.34a3.51,3.51,0,1,0,2.58,0" transform="translate(0 -4.22)"/><path class="c" d="M277.27,306.34v-8.4a1.34,1.34,0,0,1,2.58,0v8.4" transform="translate(0 -4.22)"/><path class="ae" d="M277.27,306.34a3.51,3.51,0,1,0,2.58,0" transform="translate(0 -4.22)"/><path class="ae" d="M277.27,306.34v-8.4a1.34,1.34,0,0,1,2.58,0v8.4" transform="translate(0 -4.22)"/><path class="af" d="M281,309.61a2.4,2.4,0,1,1-2.4-2.4,2.4,2.4,0,0,1,2.4,2.4" transform="translate(0 -4.22)"/><line class="ag" x1="278.56" y1="296.78" x2="278.56" y2="305.49"/></g><text class="ad" transform="translate(281.99 280.98)">8</text><g class="b"><path class="c" d="M277.27,286.5a3.51,3.51,0,1,0,2.58,0" transform="translate(0 -4.22)"/><path class="c" d="M277.27,286.5v-8.4a1.34,1.34,0,0,1,2.58,0v8.4" transform="translate(0 -4.22)"/><path class="ae" d="M277.27,286.5a3.51,3.51,0,1,0,2.58,0" transform="translate(0 -4.22)"/><path class="ae" d="M277.27,286.5v-8.4a1.34,1.34,0,0,1,2.58,0v8.4" transform="translate(0 -4.22)"/><path class="af" d="M281,289.77a2.4,2.4,0,1,1-2.4-2.4,2.4,2.4,0,0,1,2.4,2.4" transform="translate(0 -4.22)"/><line class="ag" x1="278.56" y1="276.94" x2="278.56" y2="285.65"/></g><text class="ah" transform="translate(273.95 17.58)">NE</text><g class="b"><g class="aa"><g class="ai"><text class="ac" transform="translate(129.64 94.74)">TNW_5</text><text class="ac" transform="translate(129.64 60.98)">TNW_6</text><text class="ac" transform="translate(129.64 164.09)">TNW_9</text><text class="ac" transform="translate(129.64 187.23)">TNW_4</text><text class="ac" transform="translate(129.64 208.38)">TNW_3</text><text class="ac" transform="translate(129.64 285.97)">TNW_8</text><text class="ac" transform="translate(129.64 305.79)">TNW_2</text><text class="ac" transform="translate(129.64 325.09)">TNW_1</text><text class="ac" transform="translate(129.64 345.09)">TNW_0</text><text class="ac" transform="translate(129.64 364.46)">TNW_7</text></g></g></g><text class="ad" transform="translate(140.98 56.09)">6</text><g class="b"><path class="c" d="M136.26,61.61a3.51,3.51,0,1,0,2.58,0" transform="translate(0 -4.22)"/><path class="c" d="M136.26,61.61V53.2a1.34,1.34,0,0,1,2.58,0v8.4" transform="translate(0 -4.22)"/><path class="ae" d="M136.26,61.61a3.51,3.51,0,1,0,2.58,0" transform="translate(0 -4.22)"/><path class="ae" d="M136.26,61.61V53.2a1.34,1.34,0,0,1,2.58,0v8.4" transform="translate(0 -4.22)"/><path class="af" d="M139.95,64.88a2.4,2.4,0,1,1-2.4-2.4,2.4,2.4,0,0,1,2.4,2.4" transform="translate(0 -4.22)"/><line class="ag" x1="137.55" y1="52.04" x2="137.55" y2="60.76"/></g><text class="ad" transform="translate(140.98 90.58)">5</text><g class="b"><path class="c" d="M136.26,96.1a3.51,3.51,0,1,0,2.58,0" transform="translate(0 -4.22)"/><path class="c" d="M136.26,96.1v-8.4a1.34,1.34,0,0,1,2.58,0v8.4" transform="translate(0 -4.22)"/><path class="ae" d="M136.26,96.1a3.51,3.51,0,1,0,2.58,0" transform="translate(0 -4.22)"/><path class="ae" d="M136.26,96.1v-8.4a1.34,1.34,0,0,1,2.58,0v8.4" transform="translate(0 -4.22)"/><path class="af" d="M139.95,99.37a2.4,2.4,0,1,1-2.4-2.4,2.4,2.4,0,0,1,2.4,2.4" transform="translate(0 -4.22)"/><line class="ag" x1="137.55" y1="86.54" x2="137.55" y2="95.25"/></g><text class="ad" transform="translate(140.98 159.43)">9</text><g class="b"><path class="c" d="M136.26,165a3.51,3.51,0,1,0,2.58,0" transform="translate(0 -4.22)"/><path class="c" d="M136.26,165v-8.4a1.34,1.34,0,0,1,2.58,0V165" transform="translate(0 -4.22)"/><path class="ae" d="M136.26,165a3.51,3.51,0,1,0,2.58,0" transform="translate(0 -4.22)"/><path class="ae" d="M136.26,165v-8.4a1.34,1.34,0,0,1,2.58,0V165" transform="translate(0 -4.22)"/><path class="af" d="M139.95,168.22a2.4,2.4,0,1,1-2.4-2.4,2.4,2.4,0,0,1,2.4,2.4" transform="translate(0 -4.22)"/><line class="ag" x1="137.55" y1="155.39" x2="137.55" y2="164.1"/></g><text class="ad" transform="translate(140.98 182.4)">4</text><g class="b"><path class="c" d="M136.26,187.92a3.51,3.51,0,1,0,2.58,0" transform="translate(0 -4.22)"/><path class="c" d="M136.26,187.92v-8.4a1.34,1.34,0,0,1,2.58,0v8.4" transform="translate(0 -4.22)"/><path class="ae" d="M136.26,187.92a3.51,3.51,0,1,0,2.58,0" transform="translate(0 -4.22)"/><path class="ae" d="M136.26,187.92v-8.4a1.34,1.34,0,0,1,2.58,0v8.4" transform="translate(0 -4.22)"/><path class="af" d="M139.95,191.19a2.4,2.4,0,1,1-2.4-2.4,2.4,2.4,0,0,1,2.4,2.4" transform="translate(0 -4.22)"/><line class="ag" x1="137.55" y1="178.36" x2="137.55" y2="187.07"/></g><text class="ad" transform="translate(140.98 203.38)">3</text><g class="b"><path class="c" d="M136.26,208.9a3.51,3.51,0,1,0,2.58,0" transform="translate(0 -4.22)"/><path class="c" d="M136.26,208.9v-8.4a1.34,1.34,0,0,1,2.58,0v8.4" transform="translate(0 -4.22)"/><path class="ae" d="M136.26,208.9a3.51,3.51,0,1,0,2.58,0" transform="translate(0 -4.22)"/><path class="ae" d="M136.26,208.9v-8.4a1.34,1.34,0,0,1,2.58,0v8.4" transform="translate(0 -4.22)"/><path class="af" d="M139.95,212.17a2.4,2.4,0,1,1-2.4-2.4,2.4,2.4,0,0,1,2.4,2.4" transform="translate(0 -4.22)"/><line class="ag" x1="137.55" y1="199.34" x2="137.55" y2="208.05"/></g><text class="ad" transform="translate(140.98 360.35)">7</text><g class="b"><path class="c" d="M136.26,365.87a3.51,3.51,0,1,0,2.58,0" transform="translate(0 -4.22)"/><path class="c" d="M136.26,365.87v-8.4a1.34,1.34,0,0,1,2.58,0v8.4" transform="translate(0 -4.22)"/><path class="ae" d="M136.26,365.87a3.51,3.51,0,1,0,2.58,0" transform="translate(0 -4.22)"/><path class="ae" d="M136.26,365.87v-8.4a1.34,1.34,0,0,1,2.58,0v8.4" transform="translate(0 -4.22)"/><path class="af" d="M139.95,369.14a2.4,2.4,0,1,1-2.4-2.4,2.4,2.4,0,0,1,2.4,2.4" transform="translate(0 -4.22)"/><line class="ag" x1="137.55" y1="356.31" x2="137.55" y2="365.02"/></g><text class="ad" transform="translate(140.98 340.51)">0</text><g class="b"><path class="c" d="M136.26,346a3.51,3.51,0,1,0,2.58,0" transform="translate(0 -4.22)"/><path class="c" d="M136.26,346v-8.4a1.34,1.34,0,0,1,2.58,0V346" transform="translate(0 -4.22)"/><path class="ae" d="M136.26,346a3.51,3.51,0,1,0,2.58,0" transform="translate(0 -4.22)"/><path class="ae" d="M136.26,346v-8.4a1.34,1.34,0,0,1,2.58,0V346" transform="translate(0 -4.22)"/><path class="af" d="M139.95,349.3a2.4,2.4,0,1,1-2.4-2.4,2.4,2.4,0,0,1,2.4,2.4" transform="translate(0 -4.22)"/><line class="ag" x1="137.55" y1="336.46" x2="137.55" y2="345.18"/></g><text class="ad" transform="translate(140.98 320.66)">1</text><g class="b"><path class="c" d="M136.26,326.19a3.51,3.51,0,1,0,2.58,0" transform="translate(0 -4.22)"/><path class="c" d="M136.26,326.19v-8.4a1.34,1.34,0,0,1,2.58,0v8.4" transform="translate(0 -4.22)"/><path class="ae" d="M136.26,326.19a3.51,3.51,0,1,0,2.58,0" transform="translate(0 -4.22)"/><path class="ae" d="M136.26,326.19v-8.4a1.34,1.34,0,0,1,2.58,0v8.4" transform="translate(0 -4.22)"/><path class="af" d="M139.95,329.45a2.4,2.4,0,1,1-2.4-2.4,2.4,2.4,0,0,1,2.4,2.4" transform="translate(0 -4.22)"/><line class="ag" x1="137.55" y1="316.62" x2="137.55" y2="325.33"/></g><text class="ad" transform="translate(140.98 300.82)">2</text><g class="b"><path class="c" d="M136.26,306.34a3.51,3.51,0,1,0,2.58,0" transform="translate(0 -4.22)"/><path class="c" d="M136.26,306.34v-8.4a1.34,1.34,0,0,1,2.58,0v8.4" transform="translate(0 -4.22)"/><path class="ae" d="M136.26,306.34a3.51,3.51,0,1,0,2.58,0" transform="translate(0 -4.22)"/><path class="ae" d="M136.26,306.34v-8.4a1.34,1.34,0,0,1,2.58,0v8.4" transform="translate(0 -4.22)"/><path class="af" d="M139.95,309.61a2.4,2.4,0,1,1-2.4-2.4,2.4,2.4,0,0,1,2.4,2.4" transform="translate(0 -4.22)"/><line class="ag" x1="137.55" y1="296.78" x2="137.55" y2="305.49"/></g><text class="ad" transform="translate(140.98 280.98)">8</text><g class="b"><path class="c" d="M136.26,286.5a3.51,3.51,0,1,0,2.58,0" transform="translate(0 -4.22)"/><path class="c" d="M136.26,286.5v-8.4a1.34,1.34,0,0,1,2.58,0v8.4" transform="translate(0 -4.22)"/><path class="ae" d="M136.26,286.5a3.51,3.51,0,1,0,2.58,0" transform="translate(0 -4.22)"/><path class="ae" d="M136.26,286.5v-8.4a1.34,1.34,0,0,1,2.58,0v8.4" transform="translate(0 -4.22)"/><path class="af" d="M139.95,289.77a2.4,2.4,0,1,1-2.4-2.4,2.4,2.4,0,0,1,2.4,2.4" transform="translate(0 -4.22)"/><line class="ag" x1="137.55" y1="276.94" x2="137.55" y2="285.65"/></g><text class="ah" transform="translate(133.27 17.58)">NW</text><text class="aj" transform="translate(196.67 8.58)">North</text></g></g><g class="ak"><g class="ak"><rect class="c" x="446" y="23.09" width="420" height="348"/><polygon class="c" points="446 41.09 446 371.09 486.65 301.8 486.65 35.67 446 41.09"/><polygon class="c" points="825.36 301.8 866 371.09 866 41.09 825.36 35.67 825.36 301.8"/><rect class="d" x="447.06" y="236.05" width="24.51" height="65.75"/><g class="ak"><path class="e" d="M467.59,273.14a1.7,1.7,0,1,1-1.7-1.7,1.7,1.7,0,0,1,1.7,1.7" transform="translate(0 -4.22)"/><rect class="d" x="764.18" y="236.05" width="41.55" height="65.75"/><path class="e" d="M801.76,273.14a1.7,1.7,0,1,1-1.7-1.7,1.7,1.7,0,0,1,1.7,1.7" transform="translate(0 -4.22)"/><rect class="d" x="587.18" y="236.05" width="41.56" height="65.75"/><path class="e" d="M624.76,273.14a1.7,1.7,0,1,1-1.7-1.7,1.7,1.7,0,0,1,1.7,1.7" transform="translate(0 -4.22)"/><rect class="f" x="446.1" y="301.9" width="419.8" height="69.09"/><path class="c" d="M865.8,375.11H446.2V306.22H865.8v68.89ZM866,306H446v69.29H866V306Z" transform="translate(0 -4.22)"/><polygon class="g" points="482.79 259.03 486.55 253.73 486.55 301.8 482.79 308.18 482.79 259.03"/><path class="c" d="M486.45,258.26V306L482.89,312V263.31Zm0.2-.63-4,5.62v49.52l4-6.75V257.63Z" transform="translate(0 -4.22)"/><polygon class="g" points="446.1 259.58 451.68 253.06 451.68 361.23 446.1 370.72 446.1 259.58"/><path class="c" d="M451.58,257.55V365.39l-5.38,9.18V263.87Zm0.2-.54L446,263.8V375.31l5.78-9.86V257Z" transform="translate(0 -4.22)"/><rect class="g" x="479.86" y="258.76" width="2.72" height="49.69"/><path class="c" d="M482.49,312.56H480V263.08h2.52v49.49Zm0.2-49.69h-2.92v49.89h2.92V262.88Z" transform="translate(0 -4.22)"/><polygon class="g" points="825.44 301.75 825.46 253.73 829.23 259.09 829.21 308.18 825.44 301.75"/><path class="c" d="M825.56,258.26l3.56,5V312L825.56,306v-47.7Zm-0.2-.63V306l4,6.75V263.25Z" transform="translate(0 -4.22)"/><polygon class="g" points="860.3 361.18 860.32 253.06 865.92 259.64 865.9 370.72 860.3 361.18"/><path class="c" d="M860.42,257.55l5.38,6.32v110.7l-5.38-9.18V257.55Zm-0.2-.54V365.45l5.78,9.86V263.8Z" transform="translate(0 -4.22)"/><rect class="g" x="829.41" y="258.76" width="2.72" height="49.69"/><path class="c" d="M832,312.56h-2.52V263.08H832v49.49Zm0.2-49.69h-2.92v49.89h2.92V262.88Z" transform="translate(0 -4.22)"/><rect class="h" x="446.66" y="263.19" width="419.8" height="8.16"/><path class="c" d="M866.36,275.47H446.76v-8h419.6v8Zm0.2-8.16h-420v8.36h420v-8.36Z" transform="translate(0 -4.22)"/><rect class="f" x="446.1" y="214.8" width="419.8" height="48.18"/><path class="c" d="M865.8,267.1H446.2v-48H865.8v48Zm0.2-48.18H446V267.3H866V218.92Z" transform="translate(0 -4.22)"/><rect class="d" x="448.89" y="143.84" width="22.74" height="70.87"/><path class="e" d="M467.66,186a1.7,1.7,0,1,1-1.7-1.7,1.7,1.7,0,0,1,1.7,1.7" transform="translate(0 -4.22)"/><rect class="d" x="764.25" y="143.84" width="41.55" height="70.87"/><path class="e" d="M801.83,186a1.7,1.7,0,1,1-1.7-1.7,1.7,1.7,0,0,1,1.7,1.7" transform="translate(0 -4.22)"/><rect class="d" x="587.25" y="143.84" width="41.55" height="70.87"/><path class="e" d="M624.83,186a1.7,1.7,0,1,1-1.7-1.7,1.7,1.7,0,0,1,1.7,1.7" transform="translate(0 -4.22)"/><polygon class="g" points="825.43 214.64 825.46 118.11 829.26 120.46 829.21 219.14 825.43 214.64"/><path class="c" d="M825.56,122.5l3.56,2.2v98.38l-3.56-4.24V122.5Zm-0.2-.36v96.77l4,4.71v-99Z" transform="translate(0 -4.22)"/><polygon class="g" points="860.29 256.14 860.32 139.69 865.95 143.17 865.9 262.81 860.29 256.14"/><path class="c" d="M860.42,144.09l5.38,3.33V266.76l-5.38-6.41V144.09Zm-0.2-.36v116.7l5.78,6.88v-120Z" transform="translate(0 -4.22)"/><polygon class="g" points="826 133.53 826.04 118.47 865.95 143.17 865.9 161.82 826 133.53"/><path class="c" d="M826.15,122.87l39.65,24.55v18.43l-39.65-28.12V122.87Zm-0.2-.36v15.32L866,166.23V147.31Z" transform="translate(0 -4.22)"/><rect class="g" x="829.41" y="143.19" width="2.72" height="76.13"/><path class="c" d="M832,223.43h-2.52V147.51H832v75.92Zm0.2-76.12h-2.92v76.32h2.92V147.31Z" transform="translate(0 -4.22)"/><polygon class="g" points="482.79 120.38 486.55 118.11 486.55 214.7 482.79 219.14 482.79 120.38"/><path class="c" d="M486.45,122.5v96.34l-3.56,4.24V124.71Zm0.2-.36-4,2.45v99l4-4.71V122.15Z" transform="translate(0 -4.22)"/><polygon class="g" points="446.1 143.09 451.68 139.69 451.68 256.2 446.1 262.82 446.1 143.09"/><path class="c" d="M451.58,144.09V260.35l-5.38,6.41V147.42Zm0.2-.36L446,147.31v120l5.78-6.88V143.73Z" transform="translate(0 -4.22)"/><polygon class="g" points="446.1 143.09 485.96 118.47 485.96 133.61 446.1 161.82 446.1 143.09"/><path class="c" d="M485.86,122.87v14.85L446.2,165.85V147.42Zm0.2-.36L446,147.31v18.93l40.06-28.41V122.51Z" transform="translate(0 -4.22)"/><rect class="g" x="479.86" y="143.19" width="2.72" height="76.13"/><path class="c" d="M482.49,223.43H480V147.51h2.52v75.92Zm0.2-76.12h-2.92v76.32h2.92V147.31Z" transform="translate(0 -4.22)"/><line class="i" x1="866" y1="221.57" x2="446" y2="221.57"/><line class="i" x1="852.45" y1="263.09" x2="852.45" y2="221.57"/><line class="i" x1="838.9" y1="263.09" x2="838.9" y2="221.57"/><line class="i" x1="825.36" y1="263.09" x2="825.36" y2="221.57"/><line class="i" x1="811.81" y1="263.09" x2="811.81" y2="221.57"/><line class="i" x1="798.26" y1="263.09" x2="798.26" y2="221.57"/><line class="i" x1="784.71" y1="263.09" x2="784.71" y2="221.57"/><line class="i" x1="771.16" y1="263.09" x2="771.16" y2="221.57"/><line class="i" x1="757.61" y1="263.09" x2="757.61" y2="221.57"/><line class="i" x1="744.07" y1="263.09" x2="744.07" y2="221.57"/><line class="i" x1="730.52" y1="263.09" x2="730.52" y2="221.57"/><line class="i" x1="716.97" y1="263.09" x2="716.97" y2="221.57"/><line class="i" x1="703.42" y1="263.09" x2="703.42" y2="221.57"/><line class="i" x1="689.87" y1="263.09" x2="689.87" y2="221.57"/><line class="i" x1="676.32" y1="263.09" x2="676.32" y2="221.57"/><line class="i" x1="662.77" y1="263.09" x2="662.77" y2="221.57"/><line class="i" x1="649.23" y1="263.09" x2="649.23" y2="221.57"/><line class="i" x1="635.68" y1="263.09" x2="635.68" y2="221.57"/><line class="i" x1="622.13" y1="263.09" x2="622.13" y2="221.57"/><line class="i" x1="608.58" y1="263.09" x2="608.58" y2="221.57"/><line class="i" x1="595.03" y1="263.09" x2="595.03" y2="221.57"/><line class="i" x1="581.48" y1="263.09" x2="581.48" y2="221.57"/><line class="i" x1="567.94" y1="263.09" x2="567.94" y2="221.57"/><line class="i" x1="554.39" y1="263.09" x2="554.39" y2="221.57"/><line class="i" x1="540.84" y1="263.09" x2="540.84" y2="221.57"/><line class="i" x1="527.29" y1="263.09" x2="527.29" y2="221.57"/><line class="i" x1="513.74" y1="263.09" x2="513.74" y2="221.57"/><line class="i" x1="500.19" y1="263.09" x2="500.19" y2="221.57"/><line class="i" x1="486.65" y1="263.09" x2="486.65" y2="221.57"/><line class="i" x1="473.1" y1="263.09" x2="473.1" y2="221.57"/><line class="i" x1="459.55" y1="263.09" x2="459.55" y2="221.57"/><rect class="h" x="446.1" y="143.19" width="419.8" height="8.16"/><path class="c" d="M865.8,155.47H446.2v-8H865.8v8Zm0.2-8.16H446v8.36H866v-8.36Z" transform="translate(0 -4.22)"/><rect class="f" x="446.1" y="118.03" width="419.8" height="24.96"/><path class="c" d="M865.8,147.11H446.2V122.35H865.8v24.76Zm0.2-25H446v25.16H866V122.15Z" transform="translate(0 -4.22)"/><rect class="d" x="448.89" y="47.06" width="22.74" height="70.87"/><path class="e" d="M467.66,89.27a1.7,1.7,0,1,1-1.7-1.7,1.7,1.7,0,0,1,1.7,1.7" transform="translate(0 -4.22)"/><rect class="d" x="764.25" y="47.06" width="41.55" height="70.87"/><path class="e" d="M801.83,89.27a1.7,1.7,0,1,1-1.7-1.7,1.7,1.7,0,0,1,1.7,1.7" transform="translate(0 -4.22)"/><rect class="d" x="587.25" y="47.06" width="41.55" height="70.87"/><path class="e" d="M624.83,89.27a1.7,1.7,0,1,1-1.7-1.7,1.7,1.7,0,0,1,1.7,1.7" transform="translate(0 -4.22)"/><polygon class="g" points="825.41 117.84 825.46 21.26 829.21 21.44 829.21 120.2 825.41 117.84"/><path class="c" d="M825.56,25.58l3.56,0.17v98.49l-3.56-2.2V25.58Zm-0.2-.21v96.77l4,2.45v-99Z" transform="translate(0 -4.22)"/><polygon class="g" points="860.27 139.43 860.32 22.92 865.9 23.18 865.9 142.91 860.27 139.43"/><path class="c" d="M860.42,27.24l5.38,0.26V146.95l-5.38-3.33V27.24Zm-0.2-.21v116.7l5.78,3.58v-120Z" transform="translate(0 -4.22)"/><rect class="g" x="829.41" y="36.44" width="2.72" height="83.84"/><path class="c" d="M832,124.4h-2.52V40.76H832V124.4Zm0.2-83.84h-2.92v84h2.92v-84Z" transform="translate(0 -4.22)"/><polygon class="g" points="825.46 36.33 825.46 21.26 865.9 23.18 865.9 41.9 825.46 36.33"/><path class="c" d="M825.56,25.58L865.8,27.5V46l-40.24-5.54V25.58Zm-0.2-.21V40.63L866,46.23V27.31Z" transform="translate(0 -4.22)"/><polygon class="g" points="482.79 21.44 486.55 21.26 486.55 117.93 482.79 120.2 482.79 21.44"/><path class="c" d="M486.45,25.58V122l-3.56,2.2V25.75Zm0.2-.21-4,.19v99l4-2.45V25.37Z" transform="translate(0 -4.22)"/><polygon class="g" points="446.1 23.18 451.68 22.92 451.68 139.51 446.1 142.91 446.1 23.18"/><path class="c" d="M451.58,27.24V143.62l-5.38,3.33V27.5Zm0.2-.21-5.78.28v120l5.78-3.58V27Z" transform="translate(0 -4.22)"/><rect class="g" x="479.86" y="36.44" width="2.72" height="83.84"/><path class="c" d="M482.49,124.4H480V40.76h2.52V124.4Zm0.2-83.84h-2.92v84h2.92v-84Z" transform="translate(0 -4.22)"/><polygon class="g" points="446.1 23.18 486.55 21.26 486.55 36.33 446.1 41.9 446.1 23.18"/><path class="c" d="M486.45,25.58V40.46L446.2,46V27.5Zm0.2-.21L446,27.31V46.23l40.65-5.6V25.37Z" transform="translate(0 -4.22)"/><line class="i" x1="866" y1="101.57" x2="446" y2="101.57"/><line class="i" x1="852.45" y1="143.09" x2="852.45" y2="101.57"/><line class="i" x1="838.9" y1="143.09" x2="838.9" y2="101.57"/><line class="i" x1="825.36" y1="143.09" x2="825.36" y2="101.57"/><line class="i" x1="811.81" y1="143.09" x2="811.81" y2="101.57"/><line class="i" x1="798.26" y1="143.09" x2="798.26" y2="101.57"/><line class="i" x1="784.71" y1="143.09" x2="784.71" y2="101.57"/><line class="i" x1="771.16" y1="143.09" x2="771.16" y2="101.57"/><line class="i" x1="757.61" y1="143.09" x2="757.61" y2="101.57"/><line class="i" x1="744.07" y1="143.09" x2="744.07" y2="101.57"/><line class="i" x1="730.52" y1="143.09" x2="730.52" y2="101.57"/><line class="i" x1="716.97" y1="143.09" x2="716.97" y2="101.57"/><line class="i" x1="703.42" y1="143.09" x2="703.42" y2="101.57"/><line class="i" x1="689.87" y1="143.09" x2="689.87" y2="101.57"/><line class="i" x1="676.32" y1="143.09" x2="676.32" y2="101.57"/><line class="i" x1="662.77" y1="143.09" x2="662.77" y2="101.57"/><line class="i" x1="649.23" y1="143.09" x2="649.23" y2="101.57"/><line class="i" x1="635.68" y1="143.09" x2="635.68" y2="101.57"/><line class="i" x1="622.13" y1="143.09" x2="622.13" y2="101.57"/><line class="i" x1="608.58" y1="143.09" x2="608.58" y2="101.57"/><line class="i" x1="595.03" y1="143.09" x2="595.03" y2="101.57"/><line class="i" x1="581.48" y1="143.09" x2="581.48" y2="101.57"/><line class="i" x1="567.94" y1="143.09" x2="567.94" y2="101.57"/><line class="i" x1="554.39" y1="143.09" x2="554.39" y2="101.57"/><line class="i" x1="540.84" y1="143.09" x2="540.84" y2="101.57"/><line class="i" x1="527.29" y1="143.09" x2="527.29" y2="101.57"/><line class="i" x1="513.74" y1="143.09" x2="513.74" y2="101.57"/><line class="i" x1="500.19" y1="143.09" x2="500.19" y2="101.57"/><line class="i" x1="486.65" y1="143.09" x2="486.65" y2="101.57"/><line class="i" x1="473.1" y1="143.09" x2="473.1" y2="101.57"/><line class="i" x1="459.55" y1="143.09" x2="459.55" y2="101.57"/><path class="j" d="M664.78,183.85a0.55,0.55,0,0,1-.51.59H636.33a0.55,0.55,0,0,1-.5-0.59V166.92a0.55,0.55,0,0,1,.5-0.59h27.95a0.55,0.55,0,0,1,.51.59v16.93Z" transform="translate(0 -4.22)"/><rect class="k" x="649.27" y="178.99" width="2.07" height="0.59"/></g><g class="al"><rect class="am" x="636.48" y="162.88" width="27.64" height="15.52"/></g><g class="ak"><g class="n"><g class="an"><path class="k" d="M663.49,181.31A67.93,67.93,0,0,1,647,175.78a49.55,49.55,0,0,1-6.53-3.82,18.49,18.49,0,0,1-3.47-3.07h-0.69a0.5,0.5,0,0,0-.5.51v14.55a0.51,0.51,0,0,0,.5.51h27.95a0.51,0.51,0,0,0,.51-0.51v-2.37l-1.29-.26" transform="translate(0 -4.22)"/></g></g><path class="j" d="M757.51,183.85a0.55,0.55,0,0,1-.51.59H729.06a0.55,0.55,0,0,1-.51-0.59V166.92a0.55,0.55,0,0,1,.51-0.59H757a0.55,0.55,0,0,1,.51.59v16.93Z" transform="translate(0 -4.22)"/><rect class="k" x="741.99" y="178.99" width="2.07" height="0.59"/></g><g class="ao"><rect class="ap" x="729.21" y="162.88" width="27.64" height="15.52"/></g><g class="ak"><g class="n"><g class="aq"><path class="k" d="M756.21,181.31a67.93,67.93,0,0,1-16.47-5.53,49.55,49.55,0,0,1-6.53-3.82,18.49,18.49,0,0,1-3.47-3.07h-0.69a0.5,0.5,0,0,0-.51.51v14.55a0.51,0.51,0,0,0,.51.51H757a0.51,0.51,0,0,0,.51-0.51v-2.37l-1.29-.26" transform="translate(0 -4.22)"/></g></g><path class="j" d="M757.51,88a0.55,0.55,0,0,1-.51.59H729.06a0.55,0.55,0,0,1-.51-0.59V71.08a0.55,0.55,0,0,1,.51-0.59H757a0.55,0.55,0,0,1,.51.59V88Z" transform="translate(0 -4.22)"/><rect class="k" x="741.99" y="83.14" width="2.07" height="0.59"/></g><g class="ar"><rect class="as" x="729.21" y="67.03" width="27.64" height="15.52"/></g><g class="ak"><g class="n"><g class="at"><path class="k" d="M756.21,85.46a67.92,67.92,0,0,1-16.47-5.53,49.55,49.55,0,0,1-6.53-3.82A18.49,18.49,0,0,1,729.74,73h-0.69a0.5,0.5,0,0,0-.51.51V88.1a0.51,0.51,0,0,0,.51.51H757a0.51,0.51,0,0,0,.51-0.51V85.73l-1.29-.26" transform="translate(0 -4.22)"/></g></g><path class="j" d="M664.78,88a0.55,0.55,0,0,1-.51.59H636.33a0.55,0.55,0,0,1-.5-0.59V71.08a0.55,0.55,0,0,1,.5-0.59h27.95a0.55,0.55,0,0,1,.51.59V88Z" transform="translate(0 -4.22)"/><rect class="k" x="649.27" y="83.14" width="2.07" height="0.59"/></g><g class="au"><rect class="av" x="636.48" y="67.03" width="27.64" height="15.52"/></g><g class="ak"><g class="n"><g class="aw"><path class="k" d="M663.49,85.46A67.93,67.93,0,0,1,647,79.93a49.55,49.55,0,0,1-6.53-3.82A18.49,18.49,0,0,1,637,73h-0.69a0.5,0.5,0,0,0-.5.51V88.1a0.51,0.51,0,0,0,.5.51h27.95a0.51,0.51,0,0,0,.51-0.51V85.73l-1.29-.26" transform="translate(0 -4.22)"/></g></g><rect class="ax" x="742.55" y="25.7" width="14.3" height="345.39"/><rect class="h" x="755.03" y="27.52" width="94.5" height="343.57"/><rect class="ay" x="766.13" y="282.92" width="68.4" height="88.17"/><rect class="az" x="768.9" y="285.68" width="62.76" height="85.4"/><rect class="ay" x="769.53" y="286.3" width="61.44" height="84.79"/><rect class="ba" x="797.4" y="286.3" width="5.94" height="84.79"/><rect class="bb" x="799.84" y="286.3" width="1.06" height="84.79"/><rect class="ba" x="836.43" y="329.64" width="7.55" height="13.66"/><polygon class="az" points="843.02 337.47 840.21 341.46 837.4 337.47 843.02 337.47"/><polygon class="af" points="837.4 335.91 840.21 331.92 843.02 335.91 837.4 335.91"/><polygon class="ay" points="824.58 25.7 742.55 25.7 755.03 27.52 848.89 27.52 824.58 25.7"/><path class="j" d="M743.62,258.37a4.78,4.78,0,0,0,.16,1.28l9.66,26.68c0.11,0.3.19,0.12,0.19-.4v-27a4.8,4.8,0,0,0-.19-1.42l-9.66-23.82c-0.09-.21-0.16,0-0.16.45v24.22Z" transform="translate(0 -4.22)"/><polygon class="k" points="748 265.23 748.72 267.19 748.72 268.08 748 266.11 748 265.23"/></g><g class="bc"><rect class="bd" x="743.82" y="230.68" width="9.56" height="48.36"/></g><g class="ak"><g class="n"><g class="be"><path class="k" d="M744,255.82c1.81,3.15,3.68,5.6,5.48,6.41a2.87,2.87,0,0,0,2.37.22,2.56,2.56,0,0,0,1.31-1.53l0.26,0.66a4.31,4.31,0,0,1,.19,1.29v23.2c0,0.44-.09.57-0.19,0.27l-9.66-26.68a4.21,4.21,0,0,1-.16-1.16v-3.4l0.4,0.71" transform="translate(0 -4.22)"/></g></g><polygon class="f" points="741.5 322.12 730.66 322.12 742.5 371.09 755.04 371.09 741.5 322.12"/><rect class="y" x="716.28" y="21.15" width="19.84" height="349.93"/><rect class="y" x="575.55" y="21.15" width="19.84" height="349.93"/><polygon class="z" points="825.36 21.15 486.64 21.15 446 23.09 866 23.09 825.36 21.15"/></g><g class="ak"><g class="aa"><g class="bf"><text class="ac" transform="translate(716.64 94.74)">TSW_5</text><text class="ac" transform="translate(716.64 60.98)">TSW_6</text><text class="ac" transform="translate(716.64 164.09)">TSW_9</text><text class="ac" transform="translate(716.64 187.23)">TSW_4</text><text class="ac" transform="translate(716.64 208.38)">TSW_3</text><text class="ac" transform="translate(716.64 285.97)">TSW_8</text><text class="ac" transform="translate(716.64 305.79)">TSW_2</text><text class="ac" transform="translate(716.64 325.09)">TSW_1</text><text class="ac" transform="translate(716.64 345.09)">TSW_0</text><text class="ac" transform="translate(716.64 364.46)">TSW_7</text></g></g></g><text class="ad" transform="translate(727.99 56.09)">6</text><g class="ak"><path class="c" d="M723.27,61.61a3.51,3.51,0,1,0,2.58,0" transform="translate(0 -4.22)"/><path class="c" d="M723.27,61.61V53.2a1.34,1.34,0,0,1,2.58,0v8.4" transform="translate(0 -4.22)"/><path class="ae" d="M723.27,61.61a3.51,3.51,0,1,0,2.58,0" transform="translate(0 -4.22)"/><path class="ae" d="M723.27,61.61V53.2a1.34,1.34,0,0,1,2.58,0v8.4" transform="translate(0 -4.22)"/><path class="af" d="M727,64.88a2.4,2.4,0,1,1-2.4-2.4,2.4,2.4,0,0,1,2.4,2.4" transform="translate(0 -4.22)"/><line class="ag" x1="724.56" y1="52.04" x2="724.56" y2="60.76"/></g><text class="ad" transform="translate(727.99 90.58)">5</text><g class="ak"><path class="c" d="M723.27,96.1a3.51,3.51,0,1,0,2.58,0" transform="translate(0 -4.22)"/><path class="c" d="M723.27,96.1v-8.4a1.34,1.34,0,0,1,2.58,0v8.4" transform="translate(0 -4.22)"/><path class="ae" d="M723.27,96.1a3.51,3.51,0,1,0,2.58,0" transform="translate(0 -4.22)"/><path class="ae" d="M723.27,96.1v-8.4a1.34,1.34,0,0,1,2.58,0v8.4" transform="translate(0 -4.22)"/><path class="af" d="M727,99.37a2.4,2.4,0,1,1-2.4-2.4,2.4,2.4,0,0,1,2.4,2.4" transform="translate(0 -4.22)"/><line class="ag" x1="724.56" y1="86.54" x2="724.56" y2="95.25"/></g><text class="ad" transform="translate(727.99 159.43)">9</text><g class="ak"><path class="c" d="M723.27,165a3.51,3.51,0,1,0,2.58,0" transform="translate(0 -4.22)"/><path class="c" d="M723.27,165v-8.4a1.34,1.34,0,0,1,2.58,0V165" transform="translate(0 -4.22)"/><path class="ae" d="M723.27,165a3.51,3.51,0,1,0,2.58,0" transform="translate(0 -4.22)"/><path class="ae" d="M723.27,165v-8.4a1.34,1.34,0,0,1,2.58,0V165" transform="translate(0 -4.22)"/><path class="af" d="M727,168.22a2.4,2.4,0,1,1-2.4-2.4,2.4,2.4,0,0,1,2.4,2.4" transform="translate(0 -4.22)"/><line class="ag" x1="724.56" y1="155.39" x2="724.56" y2="164.1"/></g><text class="ad" transform="translate(727.99 182.4)">4</text><g class="ak"><path class="c" d="M723.27,187.92a3.51,3.51,0,1,0,2.58,0" transform="translate(0 -4.22)"/><path class="c" d="M723.27,187.92v-8.4a1.34,1.34,0,0,1,2.58,0v8.4" transform="translate(0 -4.22)"/><path class="ae" d="M723.27,187.92a3.51,3.51,0,1,0,2.58,0" transform="translate(0 -4.22)"/><path class="ae" d="M723.27,187.92v-8.4a1.34,1.34,0,0,1,2.58,0v8.4" transform="translate(0 -4.22)"/><path class="af" d="M727,191.19a2.4,2.4,0,1,1-2.4-2.4,2.4,2.4,0,0,1,2.4,2.4" transform="translate(0 -4.22)"/><line class="ag" x1="724.56" y1="178.36" x2="724.56" y2="187.07"/></g><text class="ad" transform="translate(727.99 203.38)">3</text><g class="ak"><path class="c" d="M723.27,208.9a3.51,3.51,0,1,0,2.58,0" transform="translate(0 -4.22)"/><path class="c" d="M723.27,208.9v-8.4a1.34,1.34,0,0,1,2.58,0v8.4" transform="translate(0 -4.22)"/><path class="ae" d="M723.27,208.9a3.51,3.51,0,1,0,2.58,0" transform="translate(0 -4.22)"/><path class="ae" d="M723.27,208.9v-8.4a1.34,1.34,0,0,1,2.58,0v8.4" transform="translate(0 -4.22)"/><path class="af" d="M727,212.17a2.4,2.4,0,1,1-2.4-2.4,2.4,2.4,0,0,1,2.4,2.4" transform="translate(0 -4.22)"/><line class="ag" x1="724.56" y1="199.34" x2="724.56" y2="208.05"/></g><text class="ad" transform="translate(727.99 360.35)">7</text><g class="ak"><path class="c" d="M723.27,365.87a3.51,3.51,0,1,0,2.58,0" transform="translate(0 -4.22)"/><path class="c" d="M723.27,365.87v-8.4a1.34,1.34,0,0,1,2.58,0v8.4" transform="translate(0 -4.22)"/><path class="ae" d="M723.27,365.87a3.51,3.51,0,1,0,2.58,0" transform="translate(0 -4.22)"/><path class="ae" d="M723.27,365.87v-8.4a1.34,1.34,0,0,1,2.58,0v8.4" transform="translate(0 -4.22)"/><path class="af" d="M727,369.14a2.4,2.4,0,1,1-2.4-2.4,2.4,2.4,0,0,1,2.4,2.4" transform="translate(0 -4.22)"/><line class="ag" x1="724.56" y1="356.31" x2="724.56" y2="365.02"/></g><text class="ad" transform="translate(727.99 340.51)">0</text><g class="ak"><path class="c" d="M723.27,346a3.51,3.51,0,1,0,2.58,0" transform="translate(0 -4.22)"/><path class="c" d="M723.27,346v-8.4a1.34,1.34,0,0,1,2.58,0V346" transform="translate(0 -4.22)"/><path class="ae" d="M723.27,346a3.51,3.51,0,1,0,2.58,0" transform="translate(0 -4.22)"/><path class="ae" d="M723.27,346v-8.4a1.34,1.34,0,0,1,2.58,0V346" transform="translate(0 -4.22)"/><path class="af" d="M727,349.3a2.4,2.4,0,1,1-2.4-2.4,2.4,2.4,0,0,1,2.4,2.4" transform="translate(0 -4.22)"/><line class="ag" x1="724.56" y1="336.46" x2="724.56" y2="345.18"/></g><text class="ad" transform="translate(727.99 320.66)">1</text><g class="ak"><path class="c" d="M723.27,326.19a3.51,3.51,0,1,0,2.58,0" transform="translate(0 -4.22)"/><path class="c" d="M723.27,326.19v-8.4a1.34,1.34,0,0,1,2.58,0v8.4" transform="translate(0 -4.22)"/><path class="ae" d="M723.27,326.19a3.51,3.51,0,1,0,2.58,0" transform="translate(0 -4.22)"/><path class="ae" d="M723.27,326.19v-8.4a1.34,1.34,0,0,1,2.58,0v8.4" transform="translate(0 -4.22)"/><path class="af" d="M727,329.45a2.4,2.4,0,1,1-2.4-2.4,2.4,2.4,0,0,1,2.4,2.4" transform="translate(0 -4.22)"/><line class="ag" x1="724.56" y1="316.62" x2="724.56" y2="325.33"/></g><text class="ad" transform="translate(727.99 300.82)">2</text><g class="ak"><path class="c" d="M723.27,306.34a3.51,3.51,0,1,0,2.58,0" transform="translate(0 -4.22)"/><path class="c" d="M723.27,306.34v-8.4a1.34,1.34,0,0,1,2.58,0v8.4" transform="translate(0 -4.22)"/><path class="ae" d="M723.27,306.34a3.51,3.51,0,1,0,2.58,0" transform="translate(0 -4.22)"/><path class="ae" d="M723.27,306.34v-8.4a1.34,1.34,0,0,1,2.58,0v8.4" transform="translate(0 -4.22)"/><path class="af" d="M727,309.61a2.4,2.4,0,1,1-2.4-2.4,2.4,2.4,0,0,1,2.4,2.4" transform="translate(0 -4.22)"/><line class="ag" x1="724.56" y1="296.78" x2="724.56" y2="305.49"/></g><text class="ad" transform="translate(727.99 280.98)">8</text><g class="ak"><path class="c" d="M723.27,286.5a3.51,3.51,0,1,0,2.58,0" transform="translate(0 -4.22)"/><path class="c" d="M723.27,286.5v-8.4a1.34,1.34,0,0,1,2.58,0v8.4" transform="translate(0 -4.22)"/><path class="ae" d="M723.27,286.5a3.51,3.51,0,1,0,2.58,0" transform="translate(0 -4.22)"/><path class="ae" d="M723.27,286.5v-8.4a1.34,1.34,0,0,1,2.58,0v8.4" transform="translate(0 -4.22)"/><path class="af" d="M727,289.77a2.4,2.4,0,1,1-2.4-2.4,2.4,2.4,0,0,1,2.4,2.4" transform="translate(0 -4.22)"/><line class="ag" x1="724.56" y1="276.94" x2="724.56" y2="285.65"/></g><text class="ah" transform="translate(719.95 17.58)">SW</text><g class="ak"><g class="aa"><g class="bg"><text class="ac" transform="translate(575.64 94.74)">TSE_5</text><text class="ac" transform="translate(575.64 60.98)">TSE_6</text><text class="ac" transform="translate(575.64 164.09)">TSE_9</text><text class="ac" transform="translate(575.64 187.23)">TSE_4</text><text class="ac" transform="translate(575.64 208.38)">TSE_3</text><text class="ac" transform="translate(575.64 285.97)">TSE_8</text><text class="ac" transform="translate(575.64 305.79)">TSE_2</text><text class="ac" transform="translate(575.64 325.09)">TSE_1</text><text class="ac" transform="translate(575.64 345.09)">TSE_0</text><text class="ac" transform="translate(575.64 364.46)">TSE_7</text></g></g></g><text class="ad" transform="translate(586.98 56.09)">6</text><g class="ak"><path class="c" d="M582.26,61.61a3.51,3.51,0,1,0,2.58,0" transform="translate(0 -4.22)"/><path class="c" d="M582.26,61.61V53.2a1.34,1.34,0,0,1,2.58,0v8.4" transform="translate(0 -4.22)"/><path class="ae" d="M582.26,61.61a3.51,3.51,0,1,0,2.58,0" transform="translate(0 -4.22)"/><path class="ae" d="M582.26,61.61V53.2a1.34,1.34,0,0,1,2.58,0v8.4" transform="translate(0 -4.22)"/><path class="af" d="M585.95,64.88a2.4,2.4,0,1,1-2.4-2.4,2.4,2.4,0,0,1,2.4,2.4" transform="translate(0 -4.22)"/><line class="ag" x1="583.55" y1="52.04" x2="583.55" y2="60.76"/></g><text class="ad" transform="translate(586.98 90.58)">5</text><g class="ak"><path class="c" d="M582.26,96.1a3.51,3.51,0,1,0,2.58,0" transform="translate(0 -4.22)"/><path class="c" d="M582.26,96.1v-8.4a1.34,1.34,0,0,1,2.58,0v8.4" transform="translate(0 -4.22)"/><path class="ae" d="M582.26,96.1a3.51,3.51,0,1,0,2.58,0" transform="translate(0 -4.22)"/><path class="ae" d="M582.26,96.1v-8.4a1.34,1.34,0,0,1,2.58,0v8.4" transform="translate(0 -4.22)"/><path class="af" d="M585.95,99.37a2.4,2.4,0,1,1-2.4-2.4,2.4,2.4,0,0,1,2.4,2.4" transform="translate(0 -4.22)"/><line class="ag" x1="583.55" y1="86.54" x2="583.55" y2="95.25"/></g><text class="ad" transform="translate(586.98 159.43)">9</text><g class="ak"><path class="c" d="M582.26,165a3.51,3.51,0,1,0,2.58,0" transform="translate(0 -4.22)"/><path class="c" d="M582.26,165v-8.4a1.34,1.34,0,0,1,2.58,0V165" transform="translate(0 -4.22)"/><path class="ae" d="M582.26,165a3.51,3.51,0,1,0,2.58,0" transform="translate(0 -4.22)"/><path class="ae" d="M582.26,165v-8.4a1.34,1.34,0,0,1,2.58,0V165" transform="translate(0 -4.22)"/><path class="af" d="M585.95,168.22a2.4,2.4,0,1,1-2.4-2.4,2.4,2.4,0,0,1,2.4,2.4" transform="translate(0 -4.22)"/><line class="ag" x1="583.55" y1="155.39" x2="583.55" y2="164.1"/></g><text class="ad" transform="translate(586.98 182.4)">4</text><g class="ak"><path class="c" d="M582.26,187.92a3.51,3.51,0,1,0,2.58,0" transform="translate(0 -4.22)"/><path class="c" d="M582.26,187.92v-8.4a1.34,1.34,0,0,1,2.58,0v8.4" transform="translate(0 -4.22)"/><path class="ae" d="M582.26,187.92a3.51,3.51,0,1,0,2.58,0" transform="translate(0 -4.22)"/><path class="ae" d="M582.26,187.92v-8.4a1.34,1.34,0,0,1,2.58,0v8.4" transform="translate(0 -4.22)"/><path class="af" d="M585.95,191.19a2.4,2.4,0,1,1-2.4-2.4,2.4,2.4,0,0,1,2.4,2.4" transform="translate(0 -4.22)"/><line class="ag" x1="583.55" y1="178.36" x2="583.55" y2="187.07"/></g><text class="ad" transform="translate(586.98 203.38)">3</text><g class="ak"><path class="c" d="M582.26,208.9a3.51,3.51,0,1,0,2.58,0" transform="translate(0 -4.22)"/><path class="c" d="M582.26,208.9v-8.4a1.34,1.34,0,0,1,2.58,0v8.4" transform="translate(0 -4.22)"/><path class="ae" d="M582.26,208.9a3.51,3.51,0,1,0,2.58,0" transform="translate(0 -4.22)"/><path class="ae" d="M582.26,208.9v-8.4a1.34,1.34,0,0,1,2.58,0v8.4" transform="translate(0 -4.22)"/><path class="af" d="M585.95,212.17a2.4,2.4,0,1,1-2.4-2.4,2.4,2.4,0,0,1,2.4,2.4" transform="translate(0 -4.22)"/><line class="ag" x1="583.55" y1="199.34" x2="583.55" y2="208.05"/></g><text class="ad" transform="translate(586.98 360.35)">7</text><g class="ak"><path class="c" d="M582.26,365.87a3.51,3.51,0,1,0,2.58,0" transform="translate(0 -4.22)"/><path class="c" d="M582.26,365.87v-8.4a1.34,1.34,0,0,1,2.58,0v8.4" transform="translate(0 -4.22)"/><path class="ae" d="M582.26,365.87a3.51,3.51,0,1,0,2.58,0" transform="translate(0 -4.22)"/><path class="ae" d="M582.26,365.87v-8.4a1.34,1.34,0,0,1,2.58,0v8.4" transform="translate(0 -4.22)"/><path class="af" d="M585.95,369.14a2.4,2.4,0,1,1-2.4-2.4,2.4,2.4,0,0,1,2.4,2.4" transform="translate(0 -4.22)"/><line class="ag" x1="583.55" y1="356.31" x2="583.55" y2="365.02"/></g><text class="ad" transform="translate(586.98 340.51)">0</text><g class="ak"><path class="c" d="M582.26,346a3.51,3.51,0,1,0,2.58,0" transform="translate(0 -4.22)"/><path class="c" d="M582.26,346v-8.4a1.34,1.34,0,0,1,2.58,0V346" transform="translate(0 -4.22)"/><path class="ae" d="M582.26,346a3.51,3.51,0,1,0,2.58,0" transform="translate(0 -4.22)"/><path class="ae" d="M582.26,346v-8.4a1.34,1.34,0,0,1,2.58,0V346" transform="translate(0 -4.22)"/><path class="af" d="M585.95,349.3a2.4,2.4,0,1,1-2.4-2.4,2.4,2.4,0,0,1,2.4,2.4" transform="translate(0 -4.22)"/><line class="ag" x1="583.55" y1="336.46" x2="583.55" y2="345.18"/></g><text class="ad" transform="translate(586.98 320.66)">1</text><g class="ak"><path class="c" d="M582.26,326.19a3.51,3.51,0,1,0,2.58,0" transform="translate(0 -4.22)"/><path class="c" d="M582.26,326.19v-8.4a1.34,1.34,0,0,1,2.58,0v8.4" transform="translate(0 -4.22)"/><path class="ae" d="M582.26,326.19a3.51,3.51,0,1,0,2.58,0" transform="translate(0 -4.22)"/><path class="ae" d="M582.26,326.19v-8.4a1.34,1.34,0,0,1,2.58,0v8.4" transform="translate(0 -4.22)"/><path class="af" d="M585.95,329.45a2.4,2.4,0,1,1-2.4-2.4,2.4,2.4,0,0,1,2.4,2.4" transform="translate(0 -4.22)"/><line class="ag" x1="583.55" y1="316.62" x2="583.55" y2="325.33"/></g><text class="ad" transform="translate(586.98 300.82)">2</text><g class="ak"><path class="c" d="M582.26,306.34a3.51,3.51,0,1,0,2.58,0" transform="translate(0 -4.22)"/><path class="c" d="M582.26,306.34v-8.4a1.34,1.34,0,0,1,2.58,0v8.4" transform="translate(0 -4.22)"/><path class="ae" d="M582.26,306.34a3.51,3.51,0,1,0,2.58,0" transform="translate(0 -4.22)"/><path class="ae" d="M582.26,306.34v-8.4a1.34,1.34,0,0,1,2.58,0v8.4" transform="translate(0 -4.22)"/><path class="af" d="M585.95,309.61a2.4,2.4,0,1,1-2.4-2.4,2.4,2.4,0,0,1,2.4,2.4" transform="translate(0 -4.22)"/><line class="ag" x1="583.55" y1="296.78" x2="583.55" y2="305.49"/></g><text class="ad" transform="translate(586.98 280.98)">8</text><g class="ak"><path class="c" d="M582.26,286.5a3.51,3.51,0,1,0,2.58,0" transform="translate(0 -4.22)"/><path class="c" d="M582.26,286.5v-8.4a1.34,1.34,0,0,1,2.58,0v8.4" transform="translate(0 -4.22)"/><path class="ae" d="M582.26,286.5a3.51,3.51,0,1,0,2.58,0" transform="translate(0 -4.22)"/><path class="ae" d="M582.26,286.5v-8.4a1.34,1.34,0,0,1,2.58,0v8.4" transform="translate(0 -4.22)"/><path class="af" d="M585.95,289.77a2.4,2.4,0,1,1-2.4-2.4,2.4,2.4,0,0,1,2.4,2.4" transform="translate(0 -4.22)"/><line class="ag" x1="583.55" y1="276.94" x2="583.55" y2="285.65"/></g><text class="ah" transform="translate(580.6 17.58)">SE</text><text class="aj" transform="translate(641.84 8.58)">South</text></g></g></svg>