<svg xmlns="http://www.w3.org/2000/svg" xmlns:xlink="http://www.w3.org/1999/xlink" viewBox="0 0 885.06 349.94"><defs><style>.a{fill:#fff;}.b{fill:#f39200;}.c,.s{fill:#1d1d1b;}.d{fill:#dadada;}.e{fill:#3d3d3b;}.f,.h{fill:#d9d9d9;}.g{fill:url(#a);}.h{opacity:0.1;}.i{fill:url(#b);}.j{fill:#c2c5e5;}.k{fill:#b2b2b2;}.l{fill:none;stroke:#467572;stroke-miterlimit:10;stroke-width:2px;}.m{fill:url(#c);}.n{fill:url(#d);}.o{fill:url(#e);}.p{fill:url(#f);}.q{fill:#cbbba0;}.r{fill:#3c3c3b;}.s{font-size:8px;font-family:Arial;}.t{fill:url(#g);}.u{fill:url(#h);}.v{fill:url(#i);}.w{fill:url(#j);}.x{fill:url(#k);}.y{fill:url(#l);}.z{fill:#9d9d9c;}.aa{fill:#706f6f;}.ab{fill:#ededed;}.ac{fill:#878787;}.ad{fill:#e30613;}</style><linearGradient id="a" x1="190.48" y1="241.4" x2="218.12" y2="241.4" gradientUnits="userSpaceOnUse"><stop offset="0" stop-color="#b3b2b2"/><stop offset="1" stop-color="#585857"/></linearGradient><linearGradient id="b" x1="284.24" y1="241.4" x2="311.89" y2="241.4" xlink:href="#a"/><linearGradient id="c" x1="190.48" y1="153.49" x2="218.12" y2="153.49" xlink:href="#a"/><linearGradient id="d" x1="283.21" y1="153.49" x2="310.85" y2="153.49" xlink:href="#a"/><linearGradient id="e" x1="283.21" y1="57.64" x2="310.85" y2="57.64" xlink:href="#a"/><linearGradient id="f" x1="190.48" y1="57.64" x2="218.12" y2="57.64" xlink:href="#a"/><linearGradient id="g" x1="655.54" y1="241.4" x2="683.18" y2="241.4" xlink:href="#a"/><linearGradient id="h" x1="749.3" y1="241.4" x2="776.94" y2="241.4" xlink:href="#a"/><linearGradient id="i" x1="655.54" y1="153.49" x2="683.18" y2="153.49" xlink:href="#a"/><linearGradient id="j" x1="748.26" y1="153.49" x2="775.9" y2="153.49" xlink:href="#a"/><linearGradient id="k" x1="748.26" y1="57.64" x2="775.9" y2="57.64" xlink:href="#a"/><linearGradient id="l" x1="655.54" y1="57.64" x2="683.18" y2="57.64" xlink:href="#a"/></defs><title>atrium</title><rect class="a" y="1.94" width="420" height="348"/><polygon class="a" points="40.65 14.52 0 19.93 0 349.94 40.65 280.64 40.65 14.52"/><polygon class="a" points="379.36 14.52 420 19.93 420 349.94 379.36 280.64 379.36 14.52"/><rect class="b" x="1.06" y="214.89" width="24.51" height="65.75"/><circle class="c" cx="19.89" cy="247.77" r="1.7"/><rect class="b" x="318.18" y="214.89" width="41.56" height="65.75"/><circle class="c" cx="354.06" cy="247.77" r="1.7"/><rect class="b" x="141.18" y="214.89" width="41.56" height="65.75"/><circle class="c" cx="177.06" cy="247.77" r="1.7"/><rect class="d" x="0.1" y="280.74" width="419.8" height="69.09"/><path class="a" d="M419.8,280.85v68.89H0.2V280.85H419.8m0.2-.2H0v69.29H420V280.65h0Z" transform="translate(0 0)"/><path class="e" d="M218.78,250.39a0.55,0.55,0,0,1-.51.59H190.33a0.55,0.55,0,0,1-.51-0.59V233.46a0.55,0.55,0,0,1,.51-0.59h27.94a0.55,0.55,0,0,1,.51.59v16.93Z" transform="translate(0 0)"/><rect class="f" x="203.27" y="249.75" width="2.07" height="0.59"/><rect class="g" x="190.48" y="233.64" width="27.64" height="15.52"/><path class="h" d="M217.49,247.85A67.93,67.93,0,0,1,201,242.32a49.67,49.67,0,0,1-6.53-3.82,18.5,18.5,0,0,1-3.47-3.07h-0.69a0.51,0.51,0,0,0-.51.51v14.55a0.51,0.51,0,0,0,.51.51h27.94a0.51,0.51,0,0,0,.51-0.51v-2.37Z" transform="translate(0 0)"/><path class="e" d="M312.54,250.39a0.55,0.55,0,0,1-.51.59H284.09a0.55,0.55,0,0,1-.51-0.59V233.46a0.55,0.55,0,0,1,.51-0.59H312a0.55,0.55,0,0,1,.51.59v16.93Z" transform="translate(0 0)"/><rect class="f" x="297.03" y="249.75" width="2.07" height="0.59"/><rect class="i" x="284.24" y="233.64" width="27.64" height="15.52"/><path class="h" d="M311.25,247.85a67.93,67.93,0,0,1-16.47-5.53,49.67,49.67,0,0,1-6.53-3.82,18.5,18.5,0,0,1-3.47-3.07h-0.69a0.51,0.51,0,0,0-.51.51v14.55a0.51,0.51,0,0,0,.51.51H312a0.51,0.51,0,0,0,.51-0.51v-2.37Z" transform="translate(0 0)"/><polygon class="j" points="36.79 237.88 40.55 232.57 40.55 280.64 36.79 287.02 36.79 237.88"/><path class="a" d="M40.45,232.89v47.7l-3.56,6.07V237.94l3.56-5m0.2-.63-4,5.62v49.52l4-6.75V232.26h0Z" transform="translate(0 0)"/><polygon class="j" points="0.1 238.42 5.68 231.91 5.68 340.08 0.1 349.57 0.1 238.42"/><path class="a" d="M5.58,232.18V340L0.2,349.2V238.5l5.38-6.32m0.2-.54L0,238.42V349.94l5.78-9.86V231.64h0Z" transform="translate(0 0)"/><rect class="j" x="33.86" y="237.6" width="2.72" height="49.69"/><path class="a" d="M36.49,237.7v49.49H34V237.7h2.52m0.2-.2H33.76v49.89h2.92V237.5h0Z" transform="translate(0 0)"/><polygon class="j" points="379.44 280.59 379.45 232.57 383.23 237.93 383.21 287.02 379.44 280.59"/><path class="a" d="M379.55,232.89l3.56,5v48.72l-3.56-6.07v-47.7m-0.2-.63v48.39l4,6.75V237.87l-4-5.62h0Z" transform="translate(0 0)"/><polygon class="j" points="414.3 340.03 414.32 231.91 419.92 238.49 419.9 349.57 414.3 340.03"/><path class="a" d="M414.42,232.18l5.38,6.32V349.2L414.42,340V232.18m-0.2-.54V340.08l5.78,9.86V238.42l-5.78-6.79h0Z" transform="translate(0 0)"/><rect class="j" x="383.41" y="237.6" width="2.72" height="49.69"/><path class="a" d="M386,237.7v49.49h-2.52V237.7H386m0.2-.2h-2.92v49.89h2.92V237.5h0Z" transform="translate(0 0)"/><rect class="k" x="0.66" y="242.03" width="419.8" height="8.16"/><path class="a" d="M420.35,242.14v8H0.75v-8h419.6m0.2-.2H0.56v8.36h420v-8.36h0Z" transform="translate(0 0)"/><rect class="d" x="0.1" y="193.65" width="419.8" height="48.18"/><path class="a" d="M419.8,193.75v48H0.2v-48H419.8m0.2-.2H0v48.38H420V193.55h0Z" transform="translate(0 0)"/><rect class="b" x="2.89" y="127.8" width="22.74" height="65.75"/><circle class="c" cx="19.96" cy="160.67" r="1.7"/><rect class="b" x="318.25" y="127.8" width="41.56" height="65.75"/><circle class="c" cx="354.13" cy="160.67" r="1.7"/><rect class="b" x="141.25" y="127.8" width="41.56" height="65.75"/><circle class="c" cx="177.13" cy="160.67" r="1.7"/><polygon class="j" points="379.43 193.48 379.45 96.95 383.26 99.31 383.21 197.99 379.43 193.48"/><path class="a" d="M379.55,97.13l3.56,2.2v98.38l-3.56-4.24V97.13m-0.2-.36v96.77l4,4.71v-99l-4-2.45h0Z" transform="translate(0 0)"/><polygon class="j" points="414.29 234.99 414.32 118.54 419.95 122.02 419.9 241.66 414.29 234.99"/><path class="a" d="M414.42,118.71L419.8,122V241.39L414.42,235V118.71m-0.2-.36v116.7l5.78,6.88v-120l-5.78-3.58h0Z" transform="translate(0 0)"/><polygon class="j" points="380 112.37 380.04 97.32 419.95 122.02 419.9 140.67 380 112.37"/><path class="a" d="M380.15,97.5L419.8,122v18.43l-39.65-28.12V97.5m-0.2-.36v15.32L420,140.86V121.94l-40.05-24.8h0Z" transform="translate(0 0)"/><rect class="j" x="383.41" y="122.03" width="2.72" height="76.13"/><path class="a" d="M386,122.14v75.92h-2.52V122.14H386m0.2-.2h-2.92v76.32h2.92V121.94h0Z" transform="translate(0 0)"/><polygon class="j" points="36.79 99.22 40.55 96.95 40.55 193.55 36.79 197.99 36.79 99.22"/><path class="a" d="M40.45,97.13v96.34l-3.56,4.24V99.34l3.56-2.2m0.2-.36-4,2.45v99l4-4.71V96.77h0Z" transform="translate(0 0)"/><polygon class="j" points="0.1 121.94 5.68 118.53 5.68 235.05 0.1 241.66 0.1 121.94"/><path class="a" d="M5.58,118.71V235L0.2,241.39V122l5.38-3.33m0.2-.36L0,121.94v120l5.78-6.88V118.36h0Z" transform="translate(0 0)"/><polygon class="j" points="0.1 121.94 39.95 97.32 39.95 112.45 0.1 140.67 0.1 121.94"/><path class="a" d="M39.86,97.5v14.85L0.2,140.47V122L39.86,97.5m0.2-.36L0,121.94v18.92l40.05-28.41V97.14h0Z" transform="translate(0 0)"/><rect class="j" x="33.86" y="122.03" width="2.72" height="76.13"/><path class="a" d="M36.49,122.14v75.92H34V122.14h2.52m0.2-.2H33.76v76.32h2.92V121.94h0Z" transform="translate(0 0)"/><path class="l" d="M0,241.94" transform="translate(0 0)"/><line class="l" x1="420" y1="200.42" y2="200.42"/><line class="l" x1="406.45" y1="241.94" x2="406.45" y2="200.42"/><line class="l" x1="392.9" y1="241.94" x2="392.9" y2="200.42"/><line class="l" x1="379.35" y1="241.94" x2="379.35" y2="200.42"/><line class="l" x1="365.81" y1="241.94" x2="365.81" y2="200.42"/><line class="l" x1="352.26" y1="241.94" x2="352.26" y2="200.42"/><line class="l" x1="338.71" y1="241.94" x2="338.71" y2="200.42"/><line class="l" x1="325.16" y1="241.94" x2="325.16" y2="200.42"/><line class="l" x1="311.61" y1="241.94" x2="311.61" y2="200.42"/><line class="l" x1="298.06" y1="241.94" x2="298.06" y2="200.42"/><line class="l" x1="284.52" y1="241.94" x2="284.52" y2="200.42"/><line class="l" x1="270.97" y1="241.94" x2="270.97" y2="200.42"/><line class="l" x1="257.42" y1="241.94" x2="257.42" y2="200.42"/><line class="l" x1="243.87" y1="241.94" x2="243.87" y2="200.42"/><line class="l" x1="230.32" y1="241.94" x2="230.32" y2="200.42"/><line class="l" x1="216.77" y1="241.94" x2="216.77" y2="200.42"/><line class="l" x1="203.23" y1="241.94" x2="203.23" y2="200.42"/><line class="l" x1="189.68" y1="241.94" x2="189.68" y2="200.42"/><line class="l" x1="176.13" y1="241.94" x2="176.13" y2="200.42"/><line class="l" x1="162.58" y1="241.94" x2="162.58" y2="200.42"/><line class="l" x1="149.03" y1="241.94" x2="149.03" y2="200.42"/><line class="l" x1="135.48" y1="241.94" x2="135.48" y2="200.42"/><line class="l" x1="121.94" y1="241.94" x2="121.94" y2="200.42"/><line class="l" x1="108.39" y1="241.94" x2="108.39" y2="200.42"/><line class="l" x1="94.84" y1="241.94" x2="94.84" y2="200.42"/><line class="l" x1="81.29" y1="241.94" x2="81.29" y2="200.42"/><line class="l" x1="67.74" y1="241.94" x2="67.74" y2="200.42"/><line class="l" x1="54.19" y1="241.94" x2="54.19" y2="200.42"/><line class="l" x1="40.65" y1="241.94" x2="40.65" y2="200.42"/><line class="l" x1="27.1" y1="241.94" x2="27.1" y2="200.42"/><line class="l" x1="13.55" y1="241.94" x2="13.55" y2="200.42"/><rect class="k" x="0.1" y="122.03" width="419.8" height="8.16"/><path class="a" d="M419.8,122.14v8H0.2v-8H419.8m0.2-.2H0v8.36H420v-8.36h0Z" transform="translate(0 0)"/><rect class="d" x="0.1" y="96.87" width="419.8" height="24.96"/><path class="a" d="M419.8,97v24.76H0.2V97H419.8m0.2-.2H0v25.16H420V96.77h0Z" transform="translate(0 0)"/><rect class="b" x="2.89" y="31.02" width="22.74" height="65.75"/><circle class="c" cx="19.96" cy="63.9" r="1.7"/><rect class="b" x="318.25" y="31.02" width="41.56" height="65.75"/><circle class="c" cx="354.13" cy="63.9" r="1.7"/><rect class="b" x="141.25" y="31.02" width="41.56" height="65.75"/><circle class="c" cx="177.13" cy="63.9" r="1.7"/><polygon class="j" points="379.41 96.69 379.45 0.1 383.21 0.28 383.21 99.05 379.41 96.69"/><path class="a" d="M379.55,0.21l3.56,0.17V98.87l-3.56-2.2V0.21M379.35,0V96.77l4,2.45v-99l-4-.19h0Z" transform="translate(0 0)"/><polygon class="j" points="414.27 118.27 414.32 1.76 419.9 2.03 419.9 121.75 414.27 118.27"/><path class="a" d="M414.42,1.87l5.38,0.26V121.58l-5.38-3.33V1.87m-0.2-.21v116.7l5.78,3.58V1.94l-5.78-.28h0Z" transform="translate(0 0)"/><rect class="j" x="383.41" y="15.29" width="2.72" height="83.84"/><path class="a" d="M386,15.39V99h-2.52V15.39H386m0.2-.2h-2.92v84h2.92v-84h0Z" transform="translate(0 0)"/><polygon class="j" points="379.45 15.18 379.45 0.1 419.9 2.03 419.9 20.75 379.45 15.18"/><path class="a" d="M379.55,0.21L419.8,2.13v18.5l-40.25-5.54V0.21M379.35,0V15.26L420,20.86V1.94L379.35,0h0Z" transform="translate(0 0)"/><polygon class="j" points="36.79 0.28 40.55 0.1 40.55 96.77 36.79 99.05 36.79 0.28"/><path class="a" d="M40.45,0.21V96.66l-3.56,2.2V0.38l3.56-.17M40.65,0l-4,.19v99l4-2.45V0h0Z" transform="translate(0 0)"/><polygon class="j" points="0.1 2.03 5.68 1.76 5.68 118.36 0.1 121.76 0.1 2.03"/><path class="a" d="M5.58,1.87V118.24L0.2,121.58V2.13l5.38-.26m0.2-.21L0,1.94v120l5.78-3.58V1.66h0Z" transform="translate(0 0)"/><rect class="j" x="33.86" y="15.29" width="2.72" height="83.84"/><path class="a" d="M36.49,15.39V99H34V15.39h2.52m0.2-.2H33.76v84h2.92v-84h0Z" transform="translate(0 0)"/><polygon class="j" points="0.1 2.03 40.55 0.1 40.55 15.18 0.1 20.75 0.1 2.03"/><path class="a" d="M40.45,0.21V15.09L0.2,20.63V2.13L40.45,0.21M40.65,0L0,1.94V20.86l40.65-5.6V0h0Z" transform="translate(0 0)"/><path class="l" d="M0,121.94" transform="translate(0 0)"/><line class="l" x1="420" y1="80.42" y2="80.42"/><line class="l" x1="406.45" y1="121.94" x2="406.45" y2="80.42"/><line class="l" x1="392.9" y1="121.94" x2="392.9" y2="80.42"/><line class="l" x1="379.35" y1="121.94" x2="379.35" y2="80.42"/><line class="l" x1="365.81" y1="121.94" x2="365.81" y2="80.42"/><line class="l" x1="352.26" y1="121.94" x2="352.26" y2="80.42"/><line class="l" x1="338.71" y1="121.94" x2="338.71" y2="80.42"/><line class="l" x1="325.16" y1="121.94" x2="325.16" y2="80.42"/><line class="l" x1="311.61" y1="121.94" x2="311.61" y2="80.42"/><line class="l" x1="298.06" y1="121.94" x2="298.06" y2="80.42"/><line class="l" x1="284.52" y1="121.94" x2="284.52" y2="80.42"/><line class="l" x1="270.97" y1="121.94" x2="270.97" y2="80.42"/><line class="l" x1="257.42" y1="121.94" x2="257.42" y2="80.42"/><line class="l" x1="243.87" y1="121.94" x2="243.87" y2="80.42"/><line class="l" x1="230.32" y1="121.94" x2="230.32" y2="80.42"/><line class="l" x1="216.77" y1="121.94" x2="216.77" y2="80.42"/><line class="l" x1="203.23" y1="121.94" x2="203.23" y2="80.42"/><line class="l" x1="189.68" y1="121.94" x2="189.68" y2="80.42"/><line class="l" x1="176.13" y1="121.94" x2="176.13" y2="80.42"/><line class="l" x1="162.58" y1="121.94" x2="162.58" y2="80.42"/><line class="l" x1="149.03" y1="121.94" x2="149.03" y2="80.42"/><line class="l" x1="135.48" y1="121.94" x2="135.48" y2="80.42"/><line class="l" x1="121.94" y1="121.94" x2="121.94" y2="80.42"/><line class="l" x1="108.39" y1="121.94" x2="108.39" y2="80.42"/><line class="l" x1="94.84" y1="121.94" x2="94.84" y2="80.42"/><line class="l" x1="81.29" y1="121.94" x2="81.29" y2="80.42"/><line class="l" x1="67.74" y1="121.94" x2="67.74" y2="80.42"/><line class="l" x1="54.19" y1="121.94" x2="54.19" y2="80.42"/><line class="l" x1="40.65" y1="121.94" x2="40.65" y2="80.42"/><line class="l" x1="27.1" y1="121.94" x2="27.1" y2="80.42"/><line class="l" x1="13.55" y1="121.94" x2="13.55" y2="80.42"/><path class="e" d="M218.78,162.48a0.55,0.55,0,0,1-.51.59H190.33a0.55,0.55,0,0,1-.51-0.59V145.55a0.55,0.55,0,0,1,.51-0.59h27.94a0.55,0.55,0,0,1,.51.59v16.93Z" transform="translate(0 0)"/><rect class="f" x="203.27" y="161.83" width="2.07" height="0.59"/><rect class="m" x="190.48" y="145.73" width="27.64" height="15.52"/><path class="h" d="M217.49,159.94A67.93,67.93,0,0,1,201,154.41a49.67,49.67,0,0,1-6.53-3.82,18.5,18.5,0,0,1-3.47-3.07h-0.69a0.51,0.51,0,0,0-.51.51v14.55a0.51,0.51,0,0,0,.51.51h27.94a0.51,0.51,0,0,0,.51-0.51V160.2Z" transform="translate(0 0)"/><path class="e" d="M311.51,162.48a0.55,0.55,0,0,1-.51.59H283.06a0.55,0.55,0,0,1-.51-0.59V145.55a0.55,0.55,0,0,1,.51-0.59H311a0.55,0.55,0,0,1,.51.59v16.93Z" transform="translate(0 0)"/><rect class="f" x="295.99" y="161.83" width="2.07" height="0.59"/><rect class="n" x="283.21" y="145.73" width="27.64" height="15.52"/><path class="h" d="M310.21,159.94a67.93,67.93,0,0,1-16.47-5.53,49.67,49.67,0,0,1-6.53-3.82,18.5,18.5,0,0,1-3.47-3.07h-0.69a0.51,0.51,0,0,0-.51.51v14.55a0.51,0.51,0,0,0,.51.51H311a0.51,0.51,0,0,0,.51-0.51V160.2Z" transform="translate(0 0)"/><path class="e" d="M311.51,66.64a0.55,0.55,0,0,1-.51.59H283.06a0.55,0.55,0,0,1-.51-0.59V49.7a0.55,0.55,0,0,1,.51-0.59H311a0.55,0.55,0,0,1,.51.59V66.64Z" transform="translate(0 0)"/><rect class="f" x="295.99" y="65.99" width="2.07" height="0.59"/><rect class="o" x="283.21" y="49.88" width="27.64" height="15.52"/><path class="h" d="M310.21,64.09a67.93,67.93,0,0,1-16.47-5.53,49.67,49.67,0,0,1-6.53-3.82,18.5,18.5,0,0,1-3.47-3.07h-0.69a0.51,0.51,0,0,0-.51.51V66.73a0.51,0.51,0,0,0,.51.51H311a0.51,0.51,0,0,0,.51-0.51V64.36Z" transform="translate(0 0)"/><path class="e" d="M218.78,66.64a0.55,0.55,0,0,1-.51.59H190.33a0.55,0.55,0,0,1-.51-0.59V49.7a0.55,0.55,0,0,1,.51-0.59h27.94a0.55,0.55,0,0,1,.51.59V66.64Z" transform="translate(0 0)"/><rect class="f" x="203.27" y="65.99" width="2.07" height="0.59"/><rect class="p" x="190.48" y="49.88" width="27.64" height="15.52"/><path class="h" d="M217.49,64.09A67.93,67.93,0,0,1,201,58.56a49.67,49.67,0,0,1-6.53-3.82A18.5,18.5,0,0,1,191,51.67h-0.69a0.51,0.51,0,0,0-.51.51V66.73a0.51,0.51,0,0,0,.51.51h27.94a0.51,0.51,0,0,0,.51-0.51V64.36Z" transform="translate(0 0)"/><rect class="q" x="118.05" width="28.35" height="349.94"/><rect class="q" x="260.28" width="28.35" height="349.94"/><polygon class="r" points="379.36 0 40.65 0 0 1.94 420 1.94 379.36 0"/><text class="s" transform="translate(118.63 37.83)">TNW_6</text><text class="s" transform="translate(118.63 74.58)">TNW_5</text><text class="s" transform="translate(118.63 138.94)">TNW_9</text><text class="s" transform="translate(118.63 163.08)">TNW_4</text><text class="s" transform="translate(118.63 189.23)">TNW_3</text><text class="s" transform="translate(118.63 259.82)">TNW_8</text><text class="s" transform="translate(118.63 278.64)">TNW_2</text><text class="s" transform="translate(118.63 296.94)">TNW_1</text><text class="s" transform="translate(118.63 319.94)">TNW_0</text><text class="s" transform="translate(118.63 342.31)">TNW_7</text><text class="s" transform="translate(261.76 342.31)">TNE_7</text><text class="s" transform="translate(261.76 319.94)">TNE_0</text><text class="s" transform="translate(261.88 297.06)">TNE_1</text><text class="s" transform="translate(261.76 278.64)">TNE_2</text><text class="s" transform="translate(261.76 259.82)">TNE_8</text><text class="s" transform="translate(261.76 189.23)">TNE_3</text><text class="s" transform="translate(261.88 163.08)">TNE_4</text><text class="s" transform="translate(261.88 138.94)">TNE_9</text><text class="s" transform="translate(261.76 74.58)">TNE_5</text><text class="s" transform="translate(261.76 37.83)">TNE_6</text><rect class="a" x="465.05" y="1.94" width="420" height="348"/><polygon class="a" points="505.7 14.52 465.06 19.93 465.06 349.94 505.7 280.64 505.7 14.52"/><polygon class="a" points="844.41 14.52 885.05 19.93 885.05 349.94 844.41 280.64 844.41 14.52"/><rect class="b" x="466.11" y="214.89" width="24.51" height="65.75"/><circle class="c" cx="484.95" cy="247.77" r="1.7"/><rect class="b" x="783.23" y="214.89" width="41.56" height="65.75"/><circle class="c" cx="819.12" cy="247.77" r="1.7"/><rect class="b" x="606.23" y="214.89" width="41.56" height="65.75"/><circle class="c" cx="642.12" cy="247.77" r="1.7"/><rect class="d" x="465.15" y="280.74" width="419.8" height="69.09"/><path class="a" d="M884.86,280.85v68.89H465.26V280.85h419.6m0.2-.2h-420v69.29h420V280.65h0Z" transform="translate(0 0)"/><path class="e" d="M683.83,250.39a0.55,0.55,0,0,1-.51.59H655.38a0.55,0.55,0,0,1-.51-0.59V233.46a0.55,0.55,0,0,1,.51-0.59h27.94a0.55,0.55,0,0,1,.51.59v16.93Z" transform="translate(0 0)"/><rect class="f" x="668.32" y="249.75" width="2.07" height="0.59"/><rect class="t" x="655.54" y="233.64" width="27.64" height="15.52"/><path class="h" d="M682.54,247.85a67.93,67.93,0,0,1-16.47-5.53,49.67,49.67,0,0,1-6.53-3.82,18.5,18.5,0,0,1-3.47-3.07h-0.69a0.51,0.51,0,0,0-.51.51v14.55a0.51,0.51,0,0,0,.51.51h27.94a0.51,0.51,0,0,0,.51-0.51v-2.37Z" transform="translate(0 0)"/><path class="e" d="M777.6,250.39a0.55,0.55,0,0,1-.51.59H749.15a0.55,0.55,0,0,1-.51-0.59V233.46a0.55,0.55,0,0,1,.51-0.59h27.94a0.55,0.55,0,0,1,.51.59v16.93Z" transform="translate(0 0)"/><rect class="f" x="762.08" y="249.75" width="2.07" height="0.59"/><rect class="u" x="749.3" y="233.64" width="27.64" height="15.52"/><path class="h" d="M776.3,247.85a67.93,67.93,0,0,1-16.47-5.53,49.67,49.67,0,0,1-6.53-3.82,18.5,18.5,0,0,1-3.47-3.07h-0.69a0.51,0.51,0,0,0-.51.51v14.55a0.51,0.51,0,0,0,.51.51h27.94a0.51,0.51,0,0,0,.51-0.51v-2.37Z" transform="translate(0 0)"/><polygon class="j" points="501.84 237.88 505.6 232.57 505.6 280.64 501.84 287.02 501.84 237.88"/><path class="a" d="M505.5,232.89v47.7l-3.56,6.07V237.94l3.56-5m0.2-.63-4,5.62v49.52l4-6.75V232.26h0Z" transform="translate(0 0)"/><polygon class="j" points="465.15 238.42 470.74 231.91 470.74 340.08 465.15 349.57 465.15 238.42"/><path class="a" d="M470.64,232.18V340l-5.38,9.18V238.5l5.38-6.32m0.2-.54-5.78,6.79V349.94l5.78-9.86V231.64h0Z" transform="translate(0 0)"/><rect class="j" x="498.92" y="237.6" width="2.72" height="49.69"/><path class="a" d="M501.54,237.7v49.49H499V237.7h2.52m0.2-.2h-2.92v49.89h2.92V237.5h0Z" transform="translate(0 0)"/><polygon class="j" points="844.5 280.59 844.51 232.57 848.29 237.93 848.27 287.02 844.5 280.59"/><path class="a" d="M844.61,232.89l3.56,5v48.72l-3.56-6.07v-47.7m-0.2-.63v48.39l4,6.75V237.87l-4-5.62h0Z" transform="translate(0 0)"/><polygon class="j" points="879.36 340.03 879.37 231.91 884.98 238.49 884.96 349.57 879.36 340.03"/><path class="a" d="M879.47,232.18l5.38,6.32V349.2L879.47,340V232.18m-0.2-.54V340.08l5.78,9.86V238.42l-5.78-6.79h0Z" transform="translate(0 0)"/><rect class="j" x="848.47" y="237.6" width="2.72" height="49.69"/><path class="a" d="M851.09,237.7v49.49h-2.52V237.7h2.52m0.2-.2h-2.92v49.89h2.92V237.5h0Z" transform="translate(0 0)"/><rect class="k" x="465.15" y="242.03" width="419.8" height="8.16"/><path class="a" d="M884.86,242.14v8H465.26v-8h419.6m0.2-.2h-420v8.36h420v-8.36h0Z" transform="translate(0 0)"/><rect class="d" x="465.15" y="193.65" width="419.8" height="48.18"/><path class="a" d="M884.86,193.75v48H465.26v-48h419.6m0.2-.2h-420v48.38h420V193.55h0Z" transform="translate(0 0)"/><rect class="b" x="467.95" y="127.8" width="22.74" height="65.75"/><circle class="c" cx="485.02" cy="160.67" r="1.7"/><rect class="b" x="783.3" y="127.8" width="41.56" height="65.75"/><circle class="c" cx="819.19" cy="160.67" r="1.7"/><rect class="b" x="606.3" y="127.8" width="41.56" height="65.75"/><circle class="c" cx="642.19" cy="160.67" r="1.7"/><polygon class="j" points="844.49 193.48 844.51 96.95 848.32 99.31 848.27 197.99 844.49 193.48"/><path class="a" d="M844.61,97.13l3.56,2.2v98.38l-3.56-4.24V97.13m-0.2-.36v96.77l4,4.71v-99l-4-2.45h0Z" transform="translate(0 0)"/><polygon class="j" points="879.35 234.99 879.37 118.54 885 122.02 884.96 241.66 879.35 234.99"/><path class="a" d="M879.47,118.71l5.38,3.33V241.39L879.47,235V118.71m-0.2-.36v116.7l5.78,6.88v-120l-5.78-3.58h0Z" transform="translate(0 0)"/><polygon class="j" points="845.06 112.37 845.1 97.32 885 122.02 884.96 140.67 845.06 112.37"/><path class="a" d="M845.2,97.5L884.85,122v18.43L845.2,112.35V97.5m-0.2-.36v15.32l40.05,28.41V121.94L845,97.14h0Z" transform="translate(0 0)"/><rect class="j" x="848.47" y="122.03" width="2.72" height="76.13"/><path class="a" d="M851.09,122.14v75.92h-2.52V122.14h2.52m0.2-.2h-2.92v76.32h2.92V121.94h0Z" transform="translate(0 0)"/><polygon class="j" points="501.84 99.22 505.6 96.95 505.6 193.55 501.84 197.99 501.84 99.22"/><path class="a" d="M505.5,97.13v96.34l-3.56,4.24V99.34l3.56-2.2m0.2-.36-4,2.45v99l4-4.71V96.77h0Z" transform="translate(0 0)"/><polygon class="j" points="465.15 121.94 470.74 118.53 470.74 235.05 465.15 241.66 465.15 121.94"/><path class="a" d="M470.64,118.71V235l-5.38,6.41V122l5.38-3.33m0.2-.36-5.78,3.58v120l5.78-6.88V118.36h0Z" transform="translate(0 0)"/><polygon class="j" points="465.15 121.94 505.01 97.32 505.01 112.45 465.15 140.67 465.15 121.94"/><path class="a" d="M504.91,97.5v14.85l-39.66,28.12V122L504.91,97.5m0.2-.36-40.05,24.8v18.92l40.05-28.41V97.14h0Z" transform="translate(0 0)"/><rect class="j" x="498.92" y="122.03" width="2.72" height="76.13"/><path class="a" d="M501.54,122.14v75.92H499V122.14h2.52m0.2-.2h-2.92v76.32h2.92V121.94h0Z" transform="translate(0 0)"/><path class="l" d="M465.06,241.94" transform="translate(0 0)"/><line class="l" x1="885.05" y1="200.42" x2="465.05" y2="200.42"/><line class="l" x1="871.51" y1="241.94" x2="871.51" y2="200.42"/><line class="l" x1="857.96" y1="241.94" x2="857.96" y2="200.42"/><line class="l" x1="844.41" y1="241.94" x2="844.41" y2="200.42"/><line class="l" x1="830.86" y1="241.94" x2="830.86" y2="200.42"/><line class="l" x1="817.31" y1="241.94" x2="817.31" y2="200.42"/><line class="l" x1="803.76" y1="241.94" x2="803.76" y2="200.42"/><line class="l" x1="790.22" y1="241.94" x2="790.22" y2="200.42"/><line class="l" x1="776.67" y1="241.94" x2="776.67" y2="200.42"/><line class="l" x1="763.12" y1="241.94" x2="763.12" y2="200.42"/><line class="l" x1="749.57" y1="241.94" x2="749.57" y2="200.42"/><line class="l" x1="736.02" y1="241.94" x2="736.02" y2="200.42"/><line class="l" x1="722.47" y1="241.94" x2="722.47" y2="200.42"/><line class="l" x1="708.93" y1="241.94" x2="708.93" y2="200.42"/><line class="l" x1="695.38" y1="241.94" x2="695.38" y2="200.42"/><line class="l" x1="681.83" y1="241.94" x2="681.83" y2="200.42"/><line class="l" x1="668.28" y1="241.94" x2="668.28" y2="200.42"/><line class="l" x1="654.73" y1="241.94" x2="654.73" y2="200.42"/><line class="l" x1="641.18" y1="241.94" x2="641.18" y2="200.42"/><line class="l" x1="627.64" y1="241.94" x2="627.64" y2="200.42"/><line class="l" x1="614.09" y1="241.94" x2="614.09" y2="200.42"/><line class="l" x1="600.54" y1="241.94" x2="600.54" y2="200.42"/><line class="l" x1="586.99" y1="241.94" x2="586.99" y2="200.42"/><line class="l" x1="573.44" y1="241.94" x2="573.44" y2="200.42"/><line class="l" x1="559.89" y1="241.94" x2="559.89" y2="200.42"/><line class="l" x1="546.35" y1="241.94" x2="546.35" y2="200.42"/><line class="l" x1="532.8" y1="241.94" x2="532.8" y2="200.42"/><line class="l" x1="519.25" y1="241.94" x2="519.25" y2="200.42"/><line class="l" x1="505.7" y1="241.94" x2="505.7" y2="200.42"/><line class="l" x1="492.15" y1="241.94" x2="492.15" y2="200.42"/><line class="l" x1="478.6" y1="241.94" x2="478.6" y2="200.42"/><rect class="k" x="465.15" y="122.03" width="419.8" height="8.16"/><path class="a" d="M884.85,122.14v8H465.26v-8h419.6m0.2-.2h-420v8.36h420v-8.36h0Z" transform="translate(0 0)"/><rect class="d" x="465.15" y="96.87" width="419.8" height="24.96"/><path class="a" d="M884.85,97v24.76H465.26V97h419.6m0.2-.2h-420v25.16h420V96.77h0Z" transform="translate(0 0)"/><rect class="b" x="467.95" y="31.02" width="22.74" height="65.75"/><circle class="c" cx="485.02" cy="63.9" r="1.7"/><rect class="b" x="783.3" y="31.02" width="41.56" height="65.75"/><circle class="c" cx="819.19" cy="63.9" r="1.7"/><rect class="b" x="606.3" y="31.02" width="41.56" height="65.75"/><circle class="c" cx="642.19" cy="63.9" r="1.7"/><polygon class="j" points="844.46 96.69 844.51 0.1 848.27 0.28 848.27 99.05 844.46 96.69"/><path class="a" d="M844.61,0.21l3.56,0.17V98.87l-3.56-2.2V0.21M844.41,0V96.77l4,2.45v-99l-4-.19h0Z" transform="translate(0 0)"/><polygon class="j" points="879.33 118.27 879.37 1.76 884.96 2.03 884.96 121.75 879.33 118.27"/><path class="a" d="M879.47,1.87l5.38,0.26V121.58l-5.38-3.33V1.87m-0.2-.21v116.7l5.78,3.58V1.94l-5.78-.28h0Z" transform="translate(0 0)"/><rect class="j" x="848.47" y="15.29" width="2.72" height="83.84"/><path class="a" d="M851.09,15.39V99h-2.52V15.39h2.52m0.2-.2h-2.92v84h2.92v-84h0Z" transform="translate(0 0)"/><polygon class="j" points="844.51 15.18 844.51 0.1 884.96 2.03 884.96 20.75 844.51 15.18"/><path class="a" d="M844.61,0.21l40.25,1.92v18.5l-40.25-5.54V0.21M844.41,0V15.26l40.65,5.6V1.94L844.41,0h0Z" transform="translate(0 0)"/><polygon class="j" points="501.84 0.28 505.6 0.1 505.6 96.77 501.84 99.05 501.84 0.28"/><path class="a" d="M505.5,0.21V96.66l-3.56,2.2V0.38l3.56-.17M505.7,0l-4,.19v99l4-2.45V0h0Z" transform="translate(0 0)"/><polygon class="j" points="465.15 2.03 470.74 1.76 470.74 118.36 465.15 121.76 465.15 2.03"/><path class="a" d="M470.64,1.87V118.24l-5.38,3.33V2.13l5.38-.26m0.2-.21-5.78.28v120l5.78-3.58V1.66h0Z" transform="translate(0 0)"/><rect class="j" x="498.92" y="15.29" width="2.72" height="83.84"/><path class="a" d="M501.54,15.39V99H499V15.39h2.52m0.2-.2h-2.92v84h2.92v-84h0Z" transform="translate(0 0)"/><polygon class="j" points="465.15 2.03 505.6 0.1 505.6 15.18 465.15 20.75 465.15 2.03"/><path class="a" d="M505.5,0.21V15.09l-40.25,5.54V2.13L505.5,0.21M505.7,0L465.06,1.94V20.86l40.65-5.6V0h0Z" transform="translate(0 0)"/><path class="l" d="M465.06,121.94" transform="translate(0 0)"/><line class="l" x1="885.05" y1="80.42" x2="465.05" y2="80.42"/><line class="l" x1="871.51" y1="121.94" x2="871.51" y2="80.42"/><line class="l" x1="857.96" y1="121.94" x2="857.96" y2="80.42"/><line class="l" x1="844.41" y1="121.94" x2="844.41" y2="80.42"/><line class="l" x1="830.86" y1="121.94" x2="830.86" y2="80.42"/><line class="l" x1="817.31" y1="121.94" x2="817.31" y2="80.42"/><line class="l" x1="803.76" y1="121.94" x2="803.76" y2="80.42"/><line class="l" x1="790.22" y1="121.94" x2="790.22" y2="80.42"/><line class="l" x1="776.67" y1="121.94" x2="776.67" y2="80.42"/><line class="l" x1="763.12" y1="121.94" x2="763.12" y2="80.42"/><line class="l" x1="749.57" y1="121.94" x2="749.57" y2="80.42"/><line class="l" x1="736.02" y1="121.94" x2="736.02" y2="80.42"/><line class="l" x1="722.47" y1="121.94" x2="722.47" y2="80.42"/><line class="l" x1="708.93" y1="121.94" x2="708.93" y2="80.42"/><line class="l" x1="695.38" y1="121.94" x2="695.38" y2="80.42"/><line class="l" x1="681.83" y1="121.94" x2="681.83" y2="80.42"/><line class="l" x1="668.28" y1="121.94" x2="668.28" y2="80.42"/><line class="l" x1="654.73" y1="121.94" x2="654.73" y2="80.42"/><line class="l" x1="641.18" y1="121.94" x2="641.18" y2="80.42"/><line class="l" x1="627.64" y1="121.94" x2="627.64" y2="80.42"/><line class="l" x1="614.09" y1="121.94" x2="614.09" y2="80.42"/><line class="l" x1="600.54" y1="121.94" x2="600.54" y2="80.42"/><line class="l" x1="586.99" y1="121.94" x2="586.99" y2="80.42"/><line class="l" x1="573.44" y1="121.94" x2="573.44" y2="80.42"/><line class="l" x1="559.89" y1="121.94" x2="559.89" y2="80.42"/><line class="l" x1="546.35" y1="121.94" x2="546.35" y2="80.42"/><line class="l" x1="532.8" y1="121.94" x2="532.8" y2="80.42"/><line class="l" x1="519.25" y1="121.94" x2="519.25" y2="80.42"/><line class="l" x1="505.7" y1="121.94" x2="505.7" y2="80.42"/><line class="l" x1="492.15" y1="121.94" x2="492.15" y2="80.42"/><line class="l" x1="478.6" y1="121.94" x2="478.6" y2="80.42"/><path class="e" d="M683.83,162.48a0.55,0.55,0,0,1-.51.59H655.38a0.55,0.55,0,0,1-.51-0.59V145.55a0.55,0.55,0,0,1,.51-0.59h27.94a0.55,0.55,0,0,1,.51.59v16.93Z" transform="translate(0 0)"/><rect class="f" x="668.32" y="161.83" width="2.07" height="0.59"/><rect class="v" x="655.54" y="145.73" width="27.64" height="15.52"/><path class="h" d="M682.54,159.94a67.93,67.93,0,0,1-16.47-5.53,49.67,49.67,0,0,1-6.53-3.82,18.5,18.5,0,0,1-3.47-3.07h-0.69a0.51,0.51,0,0,0-.51.51v14.55a0.51,0.51,0,0,0,.51.51h27.94a0.51,0.51,0,0,0,.51-0.51V160.2Z" transform="translate(0 0)"/><path class="e" d="M776.56,162.48a0.55,0.55,0,0,1-.51.59H748.11a0.55,0.55,0,0,1-.51-0.59V145.55a0.55,0.55,0,0,1,.51-0.59h27.94a0.55,0.55,0,0,1,.51.59v16.93Z" transform="translate(0 0)"/><rect class="f" x="761.05" y="161.83" width="2.07" height="0.59"/><rect class="w" x="748.26" y="145.73" width="27.64" height="15.52"/><path class="h" d="M775.27,159.94a67.93,67.93,0,0,1-16.47-5.53,49.67,49.67,0,0,1-6.53-3.82,18.5,18.5,0,0,1-3.47-3.07h-0.69a0.51,0.51,0,0,0-.51.51v14.55a0.51,0.51,0,0,0,.51.51h27.94a0.51,0.51,0,0,0,.51-0.51V160.2Z" transform="translate(0 0)"/><path class="e" d="M776.56,66.64a0.55,0.55,0,0,1-.51.59H748.11a0.55,0.55,0,0,1-.51-0.59V49.7a0.55,0.55,0,0,1,.51-0.59h27.94a0.55,0.55,0,0,1,.51.59V66.64Z" transform="translate(0 0)"/><rect class="f" x="761.05" y="65.99" width="2.07" height="0.59"/><rect class="x" x="748.26" y="49.88" width="27.64" height="15.52"/><path class="h" d="M775.27,64.09a67.93,67.93,0,0,1-16.47-5.53,49.67,49.67,0,0,1-6.53-3.82,18.5,18.5,0,0,1-3.47-3.07h-0.69a0.51,0.51,0,0,0-.51.51V66.73a0.51,0.51,0,0,0,.51.51h27.94a0.51,0.51,0,0,0,.51-0.51V64.36Z" transform="translate(0 0)"/><path class="e" d="M683.83,66.64a0.55,0.55,0,0,1-.51.59H655.38a0.55,0.55,0,0,1-.51-0.59V49.7a0.55,0.55,0,0,1,.51-0.59h27.94a0.55,0.55,0,0,1,.51.59V66.64Z" transform="translate(0 0)"/><rect class="f" x="668.32" y="65.99" width="2.07" height="0.59"/><rect class="y" x="655.54" y="49.88" width="27.64" height="15.52"/><path class="h" d="M682.54,64.09a67.93,67.93,0,0,1-16.47-5.53,49.67,49.67,0,0,1-6.53-3.82,18.5,18.5,0,0,1-3.47-3.07h-0.69a0.51,0.51,0,0,0-.51.51V66.73a0.51,0.51,0,0,0,.51.51h27.94a0.51,0.51,0,0,0,.51-0.51V64.36Z" transform="translate(0 0)"/><rect class="q" x="583.1" width="28.35" height="349.94"/><rect class="q" x="725.33" width="28.35" height="349.94"/><polygon class="r" points="844.41 0 505.7 0 465.06 1.94 885.05 1.94 844.41 0"/><rect class="z" x="766.06" y="6.3" width="94.5" height="343.64"/><rect class="aa" x="779.16" y="261.69" width="68.4" height="88.24"/><rect class="ab" x="781.92" y="264.46" width="62.76" height="85.47"/><rect class="aa" x="782.56" y="265.08" width="61.44" height="84.86"/><rect class="ac" x="810.43" y="265.08" width="5.94" height="84.86"/><rect class="r" x="812.87" y="265.08" width="1.06" height="84.86"/><rect class="ac" x="850.43" y="308.42" width="5.88" height="10.63"/><polygon class="ab" points="855.55 314.51 853.37 317.61 851.18 314.51 855.55 314.51"/><polygon class="ad" points="851.18 313.29 853.37 310.19 855.55 313.29 851.18 313.29"/><text class="s" transform="translate(726.06 319.94)">TSW_0</text><text class="s" transform="translate(726.19 297.06)">TSW_1</text><text class="s" transform="translate(726.06 278.64)">TSW_2</text><text class="s" transform="translate(726.06 259.82)">TSW_8</text><text class="s" transform="translate(726.06 189.23)">TSW_3</text><text class="s" transform="translate(726.19 163.08)">TSW_4</text><text class="s" transform="translate(726.19 138.94)">TSW_9</text><text class="s" transform="translate(726.06 74.58)">TSW_5</text><text class="s" transform="translate(726.06 37.83)">TSW_6</text><text class="s" transform="translate(726.06 342.31)">TSW_7</text><text class="s" transform="translate(584.69 37.83)">TSE_6</text><text class="s" transform="translate(584.69 74.58)">TSE_5</text><text class="s" transform="translate(584.69 138.94)">TSE_9</text><text class="s" transform="translate(584.69 163.08)">TSE_4</text><text class="s" transform="translate(584.69 189.23)">TSE_3</text><text class="s" transform="translate(584.69 259.82)">TSE_8</text><text class="s" transform="translate(584.69 278.64)">TSE_2</text><text class="s" transform="translate(584.69 296.94)">TSE_1</text><text class="s" transform="translate(584.69 319.94)">TSE_0</text><text class="s" transform="translate(584.69 342.31)">TSE_7</text></svg>